<?xml version="1.0" encoding="UTF-8" standalone="no"?>
<!-- Generator: Adobe Illustrator 15.0.0, SVG Export Plug-In . SVG Version: 6.00 Build 0)  -->

<svg
   xmlns:dc="http://purl.org/dc/elements/1.1/"
   xmlns:cc="http://creativecommons.org/ns#"
   xmlns:rdf="http://www.w3.org/1999/02/22-rdf-syntax-ns#"
   xmlns:svg="http://www.w3.org/2000/svg"
   xmlns="http://www.w3.org/2000/svg"
   xmlns:sodipodi="http://sodipodi.sourceforge.net/DTD/sodipodi-0.dtd"
   xmlns:inkscape="http://www.inkscape.org/namespaces/inkscape"
   version="1.1"
   id="Calque_1"
   x="0px"
   y="0px"
   width="698.849"
   height="219.83099"
   viewBox="4.873 77.155 698.849 219.831"
   enable-background="new 4.873 77.155 405.849 168.831"
   xml:space="preserve"
   sodipodi:docname="logo5.svg"
   inkscape:version="0.92.1 r"><metadata
     id="metadata424"><rdf:RDF><cc:Work
         rdf:about=""><dc:format>image/svg+xml</dc:format><dc:type
           rdf:resource="http://purl.org/dc/dcmitype/StillImage" /><dc:title></dc:title></cc:Work></rdf:RDF></metadata><defs
     id="defs422" /><sodipodi:namedview
     pagecolor="#000000"
     bordercolor="#666666"
     borderopacity="1"
     objecttolerance="10"
     gridtolerance="10"
     guidetolerance="10"
     inkscape:pageopacity="0.04705882"
     inkscape:pageshadow="2"
     inkscape:window-width="1280"
     inkscape:window-height="969"
     id="namedview420"
     showgrid="false"
     inkscape:pagecheckerboard="false"
     inkscape:zoom="1.337936"
     inkscape:cx="215.64221"
     inkscape:cy="84.415497"
     inkscape:window-x="1920"
     inkscape:window-y="27"
     inkscape:window-maximized="1"
     inkscape:current-layer="Calque_1" /><path
     d="m 241.45913,90.800614 c -0.11425,-0.124283 0.0919,-0.599683 0,-0.748317"
     id="path237"
     inkscape:connector-curvature="0"
     style="fill:#5a5a5a;stroke-width:1.22859097" /><path
     d="m 184.23039,160.54955 c 0.0919,-0.14864 -0.11543,-0.6253 0,-0.74831 0.11425,-0.12429 0.55131,0.1 0.68914,0 0,0.24858 0,0.49973 0,0.74831 -0.22972,0 -0.45942,0 -0.68914,0 z"
     id="path239"
     inkscape:connector-curvature="0"
     style="fill:#5a5a5a;stroke-width:1.22859097" /><path
     d="m 184.91953,160.54955 c 0,-0.24858 0,-0.49973 0,-0.74831 0.2297,0 0.46059,0 0.69031,0 -0.0931,0.14864 0.11425,0.62402 0,0.74831 -0.11543,0.12685 -0.5513,-0.0986 -0.69031,0 z"
     id="path241"
     inkscape:connector-curvature="0"
     style="fill:#5a5a5a;stroke-width:1.22859097" /><path
     d="m 185.60984,159.80124 c 8.27314,0 16.54746,0 24.82178,0 8.27432,0 16.54746,0 24.82177,0 8.27316,0 16.54865,0 24.82296,0 4.13717,0 8.27315,0 12.41031,0 0.91884,0 1.83887,0 2.75771,0 0.46061,0 0.91884,0 1.38062,0 0.68797,0 1.37827,0 2.0674,0 0.91885,0 1.84005,0 2.75772,0 0.46178,0 0.92003,0 1.37945,0 0.92002,0 1.84005,0 2.76006,0 0.0907,0.14864 -0.1166,0.62402 0,0.74831 0.11426,0.12685 0.55131,-0.1 0.68796,0 0.22971,0 0.45943,0 0.69032,0 0.2297,0 0.46059,0 0.69031,0 0.0907,0.1512 -0.1166,0.6253 0,0.75087 0.11425,0.12428 0.55131,-0.1 0.68795,0 0.0919,0.14863 -0.11425,0.6253 0,0.74958 0.1166,0.12558 0.55249,-0.1 0.69031,0 0,0.24859 0,0.50102 0,0.74832 0.22853,0 0.4606,0 0.69032,0 0,0.24986 0,0.501 0,0.75086 0,0.24987 0,0.49973 0,0.74959 0,0.24858 0,0.50101 0,0.74959 0.22735,0 0.45942,0 0.68913,0 0,10.75051 0,21.49973 0,32.25152 0,5.24839 0,10.49808 0,15.74776 0,5.25096 0,10.50064 0,15.75032 0,10.49808 0,21 0,31.49936 0,10.50065 0,21.00129 0,31.49936 -0.13783,0.10123 -0.57487,-0.12428 -0.68913,0 -0.11543,0.12687 0.0907,0.60097 0,0.75088 0,0.24987 0,0.501 0,0.74959 0,0.24858 0,0.50101 0,0.74958 -0.13901,0.10123 -0.57488,-0.12429 -0.69032,0 -0.1166,0.12815 0.0919,0.60095 0,0.75088 -0.13782,0.10122 -0.57368,-0.12685 -0.69031,0 -0.11425,0.12557 0.0919,0.60095 0,0.74958 -0.22853,0 -0.4606,0 -0.68795,0 0,0.24858 0,0.50102 0,0.75087 -0.22972,0 -0.46061,0 -0.69031,0 -0.23089,0 -0.46061,0 -0.69032,0 -0.13665,0.1 -0.57369,-0.12557 -0.68796,0 -0.1166,0.12685 0.0919,0.59967 0,0.75087 -8.50403,0 -17.00805,0 -25.51208,0 -8.27433,0 -16.54864,0 -24.82296,0 -8.27433,0 -16.54747,0 -24.82178,0 -8.27314,0 -16.54864,0 -24.82178,0 -0.0931,-0.1512 0.11425,-0.62402 0,-0.75087 -0.11543,-0.12557 -0.55131,0.1 -0.69032,0 -0.2297,0 -0.45942,0 -0.68913,0 -0.22971,0 -0.4606,0 -0.68913,0 -0.0931,-0.1512 0.11425,-0.6253 0,-0.75087 -0.11543,-0.12557 -0.5513,0.1 -0.69031,0 -0.0931,-0.14863 0.11543,-0.62401 0,-0.74958 -0.11543,-0.12685 -0.55131,0.10122 -0.69031,0 0,-0.24987 0,-0.50101 0,-0.75088 -0.22853,0 -0.45943,0 -0.68797,0 0,-0.24857 0,-0.501 0,-0.74958 0,-0.24859 0,-0.49972 0,-0.74959 -0.0919,-0.14991 0.11426,-0.62401 0,-0.75088 -0.11543,-0.12428 -0.5513,0.10123 -0.68912,0 0,-0.99945 0,-2.00018 0,-2.99963 0,-0.74958 0,-1.50045 0,-2.25004 0,-0.50101 0,-0.99817 0,-1.50174 0,-0.74958 0,-1.4979 0,-2.24876 0,-0.49973 0,-0.99945 0,-1.49918 0,-0.75087 0,-1.50174 0,-2.25005 0,-0.50229 0,-1.00073 0,-1.50174 0,-0.74959 0,-1.49917 0,-2.25004 0,-5.24968 0,-10.49937 0,-15.74905 0,-5.24968 0,-10.49935 0,-15.75032 0,-5.24967 0,-10.49936 0,-15.74904 0,-10.50064 0,-21.00001 0,-31.50065 0,-10.49807 0,-20.99872 0,-31.49936 0.13899,-0.1 0.57486,0.12685 0.68912,0 0.11426,-0.1243 -0.0919,-0.59967 0,-0.7496 0,-0.24985 0,-0.49972 0,-0.74958 0,-0.24987 0,-0.50229 0,-0.75087 0.13784,-0.1 0.57488,0.12685 0.68797,0 0.11542,-0.12428 -0.0919,-0.59967 0,-0.74831 0.139,-0.1 0.57486,0.12558 0.69031,0 0.11543,-0.12429 -0.0931,-0.60094 0,-0.74958 0.2297,0 0.45942,0 0.69031,0 0,-0.25114 0,-0.49972 0,-0.75087 0.22853,0 0.45942,0 0.68913,0 0.22971,0 0.45943,0 0.68913,0 0.13901,-0.1 0.57488,0.12685 0.69032,0 0.11307,-0.12306 -0.0931,-0.59839 -0.001,-0.74703 z m 9.65259,42.00001 c 0,8.74776 0,17.49808 0,26.2484 0,2.00019 0,3.99909 0,6.00055 0,2.25005 0,4.50009 0,6.75014 0,4.5001 0,8.99891 0,13.50027 0,8.99762 0,17.9991 0,26.99928 3.21831,0 6.43545,0 9.65258,0 11.72235,0 23.44352,0 35.16469,0 11.95087,0 23.90292,0 35.85498,0 0,-2.00146 0,-4.00036 0,-6.00184 0,-3.99908 0,-7.99944 0,-11.99982 0,-2.00018 0,-3.99779 0,-5.99926 0,-2.25005 0,-4.50138 0,-6.75142 0,-3.99908 0,-7.99945 0,-11.99854 0,-2.00146 0,-4.00036 0,-6.00183 0,-2.24876 0,-4.49881 0,-6.74885 0,-16.74978 0,-33.50083 0,-50.24933 -3.21713,0 -6.43427,0 -9.65259,0 -5.74513,0 -11.49145,0 -17.23777,0 -2.98743,0 -5.97602,0 -8.96345,0 -2.98743,0 -5.97602,0 -8.96345,0 -2.98743,0 -5.97603,0 -8.96345,0 -2.98743,0 -5.97604,0 -8.96346,0 -2.9886,0 -5.97603,0 -8.96463,0 -2.98743,0 -5.97603,0 -8.96345,0 0,8.75161 0,17.50065 0,26.25225 z"
     id="path243"
     inkscape:connector-curvature="0"
     style="fill:#5a5a5a;stroke-width:1.22859097" /><path
     d="m 285.58845,159.80124 c 0.22735,0 0.45942,0 0.68796,0 0,0.24858 0,0.49973 0,0.74831 -0.13666,-0.1 -0.5737,0.12685 -0.68796,0 -0.11543,-0.12429 0.0907,-0.59967 0,-0.74831 z"
     id="path245"
     inkscape:connector-curvature="0"
     style="fill:#5a5a5a;stroke-width:1.22859097" /><path
     d="m 286.27641,160.54955 c 0,-0.24858 0,-0.49973 0,-0.74831 0.13782,0.1 0.57368,-0.12429 0.69031,0 0.11543,0.1243 -0.0919,0.59967 0,0.74831 -0.23089,0 -0.45943,0 -0.69031,0 z"
     id="path247"
     inkscape:connector-curvature="0"
     style="fill:#5a5a5a;stroke-width:1.22859097" /><path
     d="m 182.85095,161.3017 c 0.0931,-0.1512 -0.11543,-0.6253 0,-0.75088 0.11543,-0.12428 0.55131,0.1 0.6903,0 0,0.25115 0,0.49973 0,0.75088 -0.23088,0 -0.45942,0 -0.6903,0 z"
     id="path249"
     inkscape:connector-curvature="0"
     style="fill:#5a5a5a;stroke-width:1.22859097" /><path
     d="m 287.65702,160.54955 c 0.13666,0.1 0.5737,-0.12429 0.68797,0 0.1166,0.12685 -0.0919,0.59967 0,0.75087 -0.13665,-0.1 -0.57369,0.12428 -0.68797,0 -0.1166,-0.12557 0.0908,-0.59839 0,-0.75087 z"
     id="path251"
     inkscape:connector-curvature="0"
     style="fill:#5a5a5a;stroke-width:1.22859097" /><path
     d="m 182.16064,162.05129 c 0.0931,-0.14992 -0.11425,-0.6253 0,-0.74959 0.11543,-0.12685 0.55248,0.1 0.69031,0 -0.0931,0.14863 0.11543,0.6253 0,0.74959 -0.11543,0.12429 -0.55131,-0.1 -0.69031,0 z"
     id="path253"
     inkscape:connector-curvature="0"
     style="fill:#5a5a5a;stroke-width:1.22859097" /><path
     d="m 288.34499,161.3017 c 0.13782,0.1 0.57368,-0.12685 0.69031,0 0.11543,0.12429 -0.0919,0.59967 0,0.74959 -0.13783,-0.1 -0.57369,0.12558 -0.69031,0 -0.11426,-0.12429 0.0919,-0.60096 0,-0.74959 z"
     id="path255"
     inkscape:connector-curvature="0"
     style="fill:#5a5a5a;stroke-width:1.22859097" /><path
     d="m 181.47268,162.7996 c 0,-0.24858 0,-0.49973 0,-0.74831 0.22854,0 0.46061,0 0.68796,0 -0.0919,0.14991 0.11543,0.6253 0,0.74831 -0.11308,0.12685 -0.55013,-0.0986 -0.68796,0 z"
     id="path257"
     inkscape:connector-curvature="0"
     style="fill:#5a5a5a;stroke-width:1.22859097" /><path
     d="m 289.0353,162.05129 c 0.13782,0.1 0.57486,-0.12429 0.69031,0 0.11425,0.12558 -0.0919,0.59967 0,0.74831 -0.22972,0 -0.46178,0 -0.69031,0 0,-0.24858 0,-0.49717 0,-0.74831 z"
     id="path259"
     inkscape:connector-curvature="0"
     style="fill:#5a5a5a;stroke-width:1.22859097" /><path
     d="m 180.78236,164.30133 c 0.0919,-0.15119 -0.11542,-0.62401 0,-0.74958 0.11543,-0.12685 0.55131,0.0986 0.68914,0 0,0.24985 0,0.49972 0,0.74958 -0.22853,0 -0.45824,0 -0.68914,0 z"
     id="path261"
     inkscape:connector-curvature="0"
     style="fill:#5a5a5a;stroke-width:1.22859097" /><path
     d="m 289.72561,164.30133 c 0,-0.24986 0,-0.49973 0,-0.74958 0.22735,0 0.45942,0 0.68913,0 0,0.24985 0,0.49972 0,0.74958 -0.22971,0 -0.46178,0 -0.68913,0 z"
     id="path263"
     inkscape:connector-curvature="0"
     style="fill:#5a5a5a;stroke-width:1.22859097" /><path
     d="m 180.78236,165.05092 c 0,-0.24857 0,-0.501 0,-0.74959 0.22972,0 0.45943,0 0.68914,0 -0.0919,0.14992 0.11426,0.6253 0,0.74959 -0.11425,0.12558 -0.55013,-0.10122 -0.68914,0 z"
     id="path265"
     inkscape:connector-curvature="0"
     style="fill:#5a5a5a;stroke-width:1.22859097" /><path
     d="m 289.72561,164.30133 c 0.22735,0 0.45942,0 0.68913,0 0,0.24859 0,0.50102 0,0.74959 -0.22971,0 -0.46178,0 -0.68913,0 0,-0.24986 0,-0.49972 0,-0.74959 z"
     id="path267"
     inkscape:connector-curvature="0"
     style="fill:#5a5a5a;stroke-width:1.22859097" /><path
     d="m 106.31703,265.54828 c 0.0919,-0.14863 -0.11544,-0.62401 0,-0.74958 0.11544,-0.12429 0.55131,0.1 0.68913,0 -0.0919,0.14991 0.11544,0.6253 0,0.74958 -0.11544,0.12685 -0.55131,-0.0986 -0.68913,0 z"
     id="path269"
     inkscape:connector-curvature="0"
     style="fill:#5a5a5a;stroke-width:1.22859097" /><path
     d="m 107.00616,264.7987 c 7.35548,0 14.70978,0 22.06406,0 3.67775,0 7.3543,0 11.03204,0 1.83886,0 3.67774,0 5.51661,0 2.06857,0 4.13716,0 6.20574,0 0,0.24986 0,0.501 0,0.74958 0.13783,0.10123 0.57487,-0.12428 0.68795,0 0.11542,0.12685 -0.0919,0.59967 0,0.75215 0.23089,0 0.4606,0 0.69031,0 0,0.49973 0,0.99818 0,1.4979 0,0.25115 0,0.50101 0,0.75215 0,0.24858 0,0.49973 0,0.74959 0.22972,0 0.45943,0 0.68914,0 0,0.24859 0,0.50101 0,0.74959 0,0.24858 0,0.49973 0,0.75087 0.0919,0.14864 -0.11543,0.62274 0,0.74959 0.11543,0.12429 0.5513,-0.10123 0.68913,0 0,0.501 0,0.99817 0,1.49917 0,0.25115 0,0.49973 0,0.75088 0,0.24858 0,0.501 0,0.74958 0.22971,0 0.45943,0 0.68914,0 0,0.501 0,1.00073 0,1.50045 0,0.2486 0,0.50102 0,0.7496 0,0.24858 0,0.501 0,0.74958 0.22971,0 0.45942,0 0.68913,0 0,0.25115 0,0.50102 0,0.75087 0,0.24858 0,0.50101 0,0.75088 0.0931,0.14863 -0.11426,0.62273 0,0.7483 0.11543,0.12685 0.5513,-0.0986 0.69031,0 0,0.50101 0,1.00073 0,1.50175 0,0.24858 0,0.49972 0,0.7483 0,0.25115 0,0.50101 0,0.75086 0.22972,0 0.45942,0 0.68914,0 0,0.24987 0,0.50102 0,0.75087 0,0.24858 0,0.49973 0,0.74831 0.0919,0.1512 -0.11426,0.6253 0,0.74959 0.11543,0.12686 0.5513,-0.0986 0.68913,0 0,0.25115 0,0.50358 0,0.75215 0.0848,0.18708 -0.1072,0.57662 0,0.74959 0.073,0.11921 0.59372,-0.10507 0.68913,0 0.11543,0.12429 -0.0931,0.59967 0,0.74959 0.22972,0 0.45942,0 0.68914,0 0,0.49973 0,0.99945 0,1.50046 0,0.24858 0,0.501 0,0.74959 0,0.24986 0,0.49973 0,0.75086 0.22853,0 0.46059,0 0.68914,0 0,0.49973 0,0.99818 0,1.49918 0,0.24987 0,0.50102 0,0.75087 0,0.24986 0,0.50101 0,0.74958 -0.13784,0.1 -0.57488,-0.12556 -0.68914,0 -0.11543,0.12558 0.0919,0.59968 0,0.7496 0,0.24986 0,0.501 0,0.75087 -0.13783,0.10123 -0.57369,-0.12685 -0.68914,0 -0.11543,0.12558 0.0931,0.60095 0,0.74958 -0.2297,0 -0.45942,0 -0.68913,0 0,0.24858 0,0.50101 0,0.75088 -0.4606,0 -0.91885,0 -1.37827,0 -0.2297,0 -0.45942,0 -0.69031,0 -0.22971,0 -0.45942,0 -0.68913,0 -0.13783,0.1 -0.57487,-0.12558 -0.68914,0 -0.11542,0.12685 0.0919,0.59967 0,0.75087 -1.37945,0 -2.75771,0 -4.13833,0 -0.0919,-0.1512 0.11542,-0.62402 0,-0.75087 -0.0601,-0.0654 -0.59372,0 -0.68797,0 -0.2297,0 -0.45942,0 -0.6903,0 -0.91885,0 -1.83887,0 -2.75772,0 -3.90745,0 -7.8149,0 -11.72234,0 -2.06858,0 -4.13716,0 -6.20574,0 -1.83888,0 -3.67656,0 -5.51661,0 -2.06857,0 -4.13716,0 -6.20456,0 -1.83887,0 -3.67774,0 -5.51543,0 -3.67773,0 -7.35547,0 -11.03321,0 -0.22853,0 -0.45942,0 -0.687953,0 0,-0.24987 0,-0.5023 0,-0.75088 -0.09188,-0.14863 0.11544,-0.624 0,-0.74958 -0.11544,-0.12685 -0.551307,0.10123 -0.690311,0 0,-0.24987 0,-0.50101 0,-0.75087 0,-0.24858 0,-0.501 0,-0.7496 0,-0.49972 0,-0.99943 0,-1.50045 0.139004,-0.1 0.574867,0.12685 0.690311,0 0.11544,-0.12428 -0.09188,-0.59967 0,-0.74958 0,-0.24987 0,-0.49973 0,-0.7496 0,-0.75086 0,-1.50045 0,-2.25004 0.137827,-0.10122 0.574867,0.12558 0.687953,0 0.11544,-0.12686 -0.0907,-0.59967 0,-0.75087 0.0919,-0.14992 -0.114261,-0.6253 0,-0.74959 0.11544,-0.12556 0.55249,0.10122 0.69032,0 0,-0.24986 0,-0.50101 0,-0.74959 0,-0.75215 0,-1.50174 0,-2.25005 0.13782,-0.10246 0.57368,0.12558 0.68913,0 0.11544,-0.12685 -0.0919,-0.60094 0,-0.75087 0,-0.75086 0,-1.49916 0,-2.25004 0.22853,0 0.45942,0 0.68913,0 0.13783,-0.1 0.57487,0.12558 0.68914,0 0.11544,-0.12685 -0.0919,-0.59967 0,-0.75087 0,-0.7483 0,-1.49918 0,-2.25005 0.139,-0.1 0.57486,0.12687 0.68913,0 0.11544,-0.12557 -0.0919,-0.59967 0,-0.74958 0,-0.7496 0,-1.50046 0,-2.25005 0.13783,-0.1 0.57369,0.12557 0.68913,0 0.0836,-0.0909 -0.0294,-0.61633 0,-0.74958 0.0495,-0.21271 0,-0.53048 0,-0.75088 0,-0.501 0,-0.99817 0,-1.49917 0.13783,-0.10123 0.57369,0.12429 0.68914,0 0.11544,-0.12685 -0.0919,-0.60095 0,-0.74959 0,-0.25114 0,-0.50229 0,-0.75087 0,-0.24858 0,-0.501 0,-0.74959 0.139,-0.10123 0.57487,0.12429 0.68913,0 0.11544,-0.12558 -0.0907,-0.60095 0,-0.74959 0,-0.25114 0,-0.501 0,-0.75215 0.13901,-0.0986 0.57487,0.12685 0.69031,0 0.11544,-0.12429 -0.0919,-0.59967 0,-0.74959 0,-0.24858 0,-0.49973 0,-0.74831 0,-0.25114 0,-0.501 0,-0.75215 0.13783,-0.0986 0.57487,0.12685 0.68914,0 0.1178,-0.12305 -0.0895,-0.59967 0.004,-0.74958 z"
     id="path271"
     inkscape:connector-curvature="0"
     style="fill:#5a5a5a;stroke-width:1.22859097" /><path
     d="m 105.62672,267.04874 c 0.0919,-0.14863 -0.11427,-0.62273 0,-0.74831 0.11544,-0.12685 0.5513,0.0986 0.69031,0 0,0.24858 0,0.49973 0,0.74831 -0.23089,0 -0.4606,0 -0.69031,0 z"
     id="path273"
     inkscape:connector-curvature="0"
     style="fill:#5a5a5a;stroke-width:1.22859097" /><path
     d="m 105.62672,267.79833 c 0,-0.2473 0,-0.49972 0,-0.74959 0.22971,0 0.4606,0 0.69031,0 -0.0919,0.14992 0.11544,0.6253 0,0.74959 -0.11663,0.12685 -0.55249,-0.0986 -0.69031,0 z"
     id="path275"
     inkscape:connector-curvature="0"
     style="fill:#5a5a5a;stroke-width:1.22859097" /><path
     d="m 153.20287,268.55048 c 0,-0.25114 0,-0.501 0,-0.75215 0.13901,0.10247 0.57487,-0.12429 0.68914,0 0.11543,0.12685 -0.0919,0.60095 0,0.75215 -0.22971,0 -0.45942,0 -0.68914,0 z"
     id="path277"
     inkscape:connector-curvature="0"
     style="fill:#5a5a5a;stroke-width:1.22859097" /><path
     d="m 104.93758,269.30007 c 0.0919,-0.14991 -0.11544,-0.62401 0,-0.74959 0.11544,-0.12685 0.55249,0.0986 0.68914,0 -0.0907,0.14864 0.11544,0.62401 0,0.74959 -0.11427,0.12429 -0.55131,-0.10123 -0.68914,0 z"
     id="path279"
     inkscape:connector-curvature="0"
     style="fill:#5a5a5a;stroke-width:1.22859097" /><path
     d="m 153.20287,268.55048 c 0.22972,0 0.45943,0 0.68914,0 0,0.24858 0,0.49973 0,0.74959 -0.22971,0 -0.4606,0 -0.68914,0 0,-0.24986 0,-0.50101 0,-0.74959 z"
     id="path281"
     inkscape:connector-curvature="0"
     style="fill:#5a5a5a;stroke-width:1.22859097" /><path
     d="m 104.24845,270.80053 c 0.0919,-0.1512 -0.11544,-0.6253 0,-0.75087 0.11544,-0.12557 0.55131,0.10122 0.68913,0 0,0.24858 0,0.49973 0,0.75087 -0.23089,0 -0.45942,0 -0.68913,0 z"
     id="path283"
     inkscape:connector-curvature="0"
     style="fill:#5a5a5a;stroke-width:1.22859097" /><path
     d="m 153.89201,270.80053 c 0,-0.25114 0,-0.50229 0,-0.75087 0.22853,0 0.46059,0 0.68913,0 0,0.24858 0,0.49973 0,0.75087 -0.22854,0 -0.45942,0 -0.68913,0 z"
     id="path285"
     inkscape:connector-curvature="0"
     style="fill:#5a5a5a;stroke-width:1.22859097" /><path
     d="m 104.24845,271.55012 c 0,-0.24986 0,-0.50101 0,-0.74959 0.22971,0 0.45942,0 0.68913,0 -0.0919,0.14864 0.11544,0.62274 0,0.74959 -0.11544,0.12305 -0.55248,-0.10123 -0.68913,0 z"
     id="path287"
     inkscape:connector-curvature="0"
     style="fill:#5a5a5a;stroke-width:1.22859097" /><path
     d="m 153.89201,270.80053 c 0.22853,0 0.46059,0 0.68913,0 0,0.24858 0,0.49973 0,0.74959 -0.139,-0.10123 -0.57487,0.12429 -0.68913,0 -0.11426,-0.12685 0.0919,-0.60095 0,-0.74959 z"
     id="path289"
     inkscape:connector-curvature="0"
     style="fill:#5a5a5a;stroke-width:1.22859097" /><path
     d="m 154.58232,273.80017 c 0,-0.25115 0,-0.49973 0,-0.75088 0.22972,0 0.45942,0 0.68914,0 0,0.25115 0,0.49973 0,0.75088 -0.22972,0 -0.45942,0 -0.68914,0 z"
     id="path291"
     inkscape:connector-curvature="0"
     style="fill:#5a5a5a;stroke-width:1.22859097" /><path
     d="m 154.58232,273.80017 c 0.22972,0 0.45942,0 0.68914,0 0,0.24858 0,0.501 0,0.74958 -0.22972,0 -0.45942,0 -0.68914,0 0,-0.24986 0,-0.501 0,-0.74958 z"
     id="path293"
     inkscape:connector-curvature="0"
     style="fill:#5a5a5a;stroke-width:1.22859097" /><path
     d="m 103.55814,274.54975 c 0,0.74959 0,1.50045 0,2.25005 -0.22971,0 -0.45943,0 -0.68914,0 0,-0.7496 0,-1.50046 0,-2.25005 0.22971,0 0.45943,0 0.68914,0 z"
     id="path295"
     inkscape:connector-curvature="0"
     style="fill:#5a5a5a;stroke-width:1.22859097" /><path
     d="m 155.27146,276.79852 c 0,-0.24859 0,-0.50101 0,-0.74959 0.13782,0.1 0.57486,-0.12685 0.68912,0 0.11543,0.12557 -0.0919,0.59967 0,0.74959 -0.2297,0 -0.45942,0 -0.68912,0 z"
     id="path297"
     inkscape:connector-curvature="0"
     style="fill:#5a5a5a;stroke-width:1.22859097" /><path
     d="m 102.869,277.5481 c 0,-0.24857 0,-0.501 0,-0.74958 0.22971,0 0.45943,0 0.68914,0 -0.0919,0.14991 0.11544,0.62401 0,0.74958 -0.11427,0.12686 -0.55013,-0.1 -0.68914,0 z"
     id="path299"
     inkscape:connector-curvature="0"
     style="fill:#5a5a5a;stroke-width:1.22859097" /><path
     d="m 155.27146,276.79852 c 0.2297,0 0.45942,0 0.68912,0 0,0.24858 0,0.50101 0,0.74958 -0.2297,0 -0.45942,0 -0.68912,0 0,-0.24857 0,-0.49972 0,-0.74958 z"
     id="path301"
     inkscape:connector-curvature="0"
     style="fill:#5a5a5a;stroke-width:1.22859097" /><path
     d="m 102.869,277.5481 c 0,0.75088 0,1.50175 0,2.25005 -0.22971,0 -0.45942,0 -0.68913,0 0,-0.7483 0,-1.49917 0,-2.25005 0.22971,0 0.45824,0 0.68913,0 z"
     id="path303"
     inkscape:connector-curvature="0"
     style="fill:#5a5a5a;stroke-width:1.22859097" /><path
     d="m 155.96058,279.04985 c 0,-0.24987 0,-0.50229 0,-0.75087 0.23089,0 0.46061,0 0.69032,0 0,0.24858 0,0.501 0,0.75087 -0.23088,0 -0.45943,0 -0.69032,0 z"
     id="path305"
     inkscape:connector-curvature="0"
     style="fill:#5a5a5a;stroke-width:1.22859097" /><path
     d="m 155.96058,279.04985 c 0.23089,0 0.46061,0 0.69032,0 0,0.24729 0,0.49973 0,0.7483 -0.139,-0.0986 -0.57487,0.12686 -0.69032,0 -0.11425,-0.12429 0.0919,-0.59839 0,-0.7483 z"
     id="path307"
     inkscape:connector-curvature="0"
     style="fill:#5a5a5a;stroke-width:1.22859097" /><path
     d="m 101.48956,280.54903 c 0.0919,-0.14993 -0.11544,-0.62402 0,-0.75088 0.11544,-0.12557 0.5513,0.10247 0.68913,0 0,0.25115 0,0.50101 0,0.75088 -0.22971,0 -0.45942,0 -0.68913,0 z"
     id="path309"
     inkscape:connector-curvature="0"
     style="fill:#5a5a5a;stroke-width:1.22859097" /><path
     d="m 102.17869,280.54903 c 0,-0.24987 0,-0.49973 0,-0.75088 0.22971,0 0.4606,0 0.68913,0 -0.0919,0.15121 0.11544,0.62401 0,0.75088 -0.11426,0.12556 -0.55012,-0.1 -0.68913,0 z"
     id="path311"
     inkscape:connector-curvature="0"
     style="fill:#5a5a5a;stroke-width:1.22859097" /><path
     d="m 156.6509,282.04819 c 0,-0.24858 0,-0.49972 0,-0.7483 0.13783,0.0986 0.57487,-0.12558 0.68913,0 0.11543,0.12429 -0.0919,0.59967 0,0.7483 -0.2297,0 -0.46059,0 -0.68913,0 z"
     id="path313"
     inkscape:connector-curvature="0"
     style="fill:#5a5a5a;stroke-width:1.22859097" /><path
     d="m 156.6509,282.04819 c 0.22971,0 0.45943,0 0.68913,0 0,0.25115 0,0.50102 0,0.75087 -0.2297,0 -0.45942,0 -0.68913,0 0,-0.24985 0,-0.49972 0,-0.75087 z"
     id="path315"
     inkscape:connector-curvature="0"
     style="fill:#5a5a5a;stroke-width:1.22859097" /><path
     d="m 100.80042,283.54994 c 0.0919,-0.14864 -0.11544,-0.6253 0,-0.75088 0.11544,-0.12557 0.55131,0.1 0.68914,0 -0.0919,0.14993 0.11544,0.62403 0,0.75088 -0.11544,0.12557 -0.55131,-0.10247 -0.68914,0 z"
     id="path317"
     inkscape:connector-curvature="0"
     style="fill:#5a5a5a;stroke-width:1.22859097" /><path
     d="m 157.34003,284.29824 c 0,-0.24858 0,-0.49972 0,-0.7483 0.13784,0.0986 0.57488,-0.12685 0.68914,0 0.11543,0.12557 -0.0919,0.59967 0,0.7483 -0.22854,0 -0.46061,0 -0.68914,0 z"
     id="path319"
     inkscape:connector-curvature="0"
     style="fill:#5a5a5a;stroke-width:1.22859097" /><path
     d="m 157.34003,284.29824 c 0.22972,0 0.4606,0 0.68914,0 0,0.24987 0,0.5023 0,0.7496 -0.13783,-0.0986 -0.57487,0.12685 -0.68914,0 -0.11543,-0.1243 0.0919,-0.5984 0,-0.7496 z"
     id="path321"
     inkscape:connector-curvature="0"
     style="fill:#5a5a5a;stroke-width:1.22859097" /><path
     d="m 99.422155,288.05002 c 0,-0.25113 0,-0.501 0,-0.75086 0.228533,0 0.459422,0 0.687955,0 -0.0907,0.15119 0.11544,0.62401 0,0.75086 -0.114263,0.1243 -0.550128,-0.10122 -0.687955,0 z"
     id="path323"
     inkscape:connector-curvature="0"
     style="fill:#5a5a5a;stroke-width:1.22859097" /><path
     d="m 159.40861,289.5492 c 0,-0.24858 0,-0.501 0,-0.74958 0.22854,0 0.46061,0 0.68914,0 0,0.24858 0,0.501 0,0.74958 -0.22853,0 -0.4606,0 -0.68914,0 z"
     id="path325"
     inkscape:connector-curvature="0"
     style="fill:#5a5a5a;stroke-width:1.22859097" /><path
     d="m 159.40861,289.5492 c 0.22854,0 0.46061,0 0.68914,0 0,0.24987 0,0.49973 0,0.75087 -0.22853,0 -0.4606,0 -0.68914,0 0,-0.25242 0,-0.501 0,-0.75087 z"
     id="path327"
     inkscape:connector-curvature="0"
     style="fill:#5a5a5a;stroke-width:1.22859097" /><path
     d="m 98.731844,291.04966 c 0.09188,-0.14864 -0.11544,-0.62401 0,-0.74959 0.11544,-0.12685 0.551306,0.0986 0.690311,0 0,0.24987 0,0.49973 0,0.74959 -0.232067,0 -0.460601,0 -0.690311,0 z"
     id="path329"
     inkscape:connector-curvature="0"
     style="fill:#5a5a5a;stroke-width:1.22859097" /><path
     d="m 98.731844,291.79925 c 0,-0.24858 0,-0.501 0,-0.74959 0.230889,0 0.4606,0 0.690311,0 -0.09188,0.14992 0.11544,0.6253 0,0.74959 -0.116627,0.12558 -0.552485,-0.10122 -0.690311,0 z"
     id="path331"
     inkscape:connector-curvature="0"
     style="fill:#5a5a5a;stroke-width:1.22859097" /><path
     d="m 98.731844,291.79925 c 0,0.50101 0,1.00073 0,1.50046 -0.228534,0 -0.459424,0 -0.689134,0 0,-0.24858 0,-0.49973 0,-0.74959 0,-0.10382 -0.06125,-0.68424 0,-0.75087 0.113089,-0.12429 0.551306,0.10122 0.689134,0 z"
     id="path333"
     inkscape:connector-curvature="0"
     style="fill:#5a5a5a;stroke-width:1.22859097" /><path
     d="m 160.09775,292.54883 c 0,-0.24985 0,-0.501 0,-0.75086 0.139,0.10123 0.57487,-0.12429 0.68913,0 0.11543,0.12686 -0.0919,0.60095 0,0.75086 -0.22971,0 -0.45942,0 -0.68913,0 z"
     id="path335"
     inkscape:connector-curvature="0"
     style="fill:#5a5a5a;stroke-width:1.22859097" /><path
     d="m 180.78236,292.54883 c 0,-0.24985 0,-0.501 0,-0.75086 0.13901,0.10123 0.57488,-0.12429 0.68914,0 0.11426,0.12686 -0.0919,0.60095 0,0.75086 -0.22853,0 -0.45824,0 -0.68914,0 z"
     id="path337"
     inkscape:connector-curvature="0"
     style="fill:#5a5a5a;stroke-width:1.22859097" /><path
     d="m 289.72561,292.54883 c 0.0907,-0.14991 -0.11543,-0.624 0,-0.75086 0.11425,-0.12429 0.55131,0.10123 0.68913,0 0,0.24986 0,0.50101 0,0.75086 -0.22971,0 -0.46178,0 -0.68913,0 z"
     id="path339"
     inkscape:connector-curvature="0"
     style="fill:#5a5a5a;stroke-width:1.22859097" /><path
     d="m 160.09775,293.29843 c 0,-0.24858 0,-0.49973 0,-0.7496 0.22971,0 0.45942,0 0.68913,0 0,0.24987 0,0.50102 0,0.7496 -0.22971,0 -0.45942,0 -0.68913,0 z"
     id="path341"
     inkscape:connector-curvature="0"
     style="fill:#5a5a5a;stroke-width:1.22859097" /><path
     d="m 180.78236,292.54883 c 0.22972,0 0.45943,0 0.68914,0 0,0.24987 0,0.50102 0,0.7496 -0.13901,-0.0986 -0.57368,0.12557 -0.68914,0 -0.11542,-0.12557 0.0931,-0.59839 0,-0.7496 z"
     id="path343"
     inkscape:connector-curvature="0"
     style="fill:#5a5a5a;stroke-width:1.22859097" /><path
     d="m 289.72561,293.29843 c 0,-0.24858 0,-0.49973 0,-0.7496 0.22735,0 0.45942,0 0.68913,0 0,0.24987 0,0.50102 0,0.7496 -0.22971,0 -0.46178,0 -0.68913,0 z"
     id="path345"
     inkscape:connector-curvature="0"
     style="fill:#5a5a5a;stroke-width:1.22859097" /><path
     d="m 98.04271,293.29843 c 0.22971,0 0.4606,0 0.689134,0 0,0.24858 0,0.501 0,0.74958 -0.13665,-0.1 -0.57369,0.12814 -0.689134,0 -0.11544,-0.12305 0.09071,-0.59838 0,-0.74958 z"
     id="path347"
     inkscape:connector-curvature="0"
     style="fill:#5a5a5a;stroke-width:1.22859097" /><path
     d="m 159.40861,294.04801 c 0.0919,-0.14991 -0.11543,-0.62401 0,-0.74958 0.11425,-0.12557 0.55132,0.1 0.68914,0 0,0.24858 0,0.501 0,0.74958 -0.22853,0 -0.4606,0 -0.68914,0 z"
     id="path349"
     inkscape:connector-curvature="0"
     style="fill:#5a5a5a;stroke-width:1.22859097" /><path
     d="m 160.09775,294.04801 c 0,-0.24858 0,-0.501 0,-0.74958 0.22971,0 0.45942,0 0.68913,0 0,0.24858 0,0.501 0,0.74958 -0.22971,0 -0.45942,0 -0.68913,0 z"
     id="path351"
     inkscape:connector-curvature="0"
     style="fill:#5a5a5a;stroke-width:1.22859097" /><path
     d="m 5.6748171,294.15203 c 0.1375265,0.098 0.5724396,-0.12033 0.6876328,0 0.1151932,0.12404 -0.091684,0.58178 0,0.72691 -0.2292109,0 -0.4584219,0 -0.6876328,0 0,-0.24189 0,-0.48378 0,-0.72691 z"
     id="path353"
     inkscape:connector-curvature="0"
     style="fill:#5a5a5a;stroke-width:1.20752072" /><path
     d="m 159.40861,294.79888 c 0,-0.24985 0,-0.501 0,-0.75087 0.22854,0 0.46061,0 0.68914,0 -0.0931,0.1512 0.11542,0.62402 0,0.75087 -0.11543,0.12558 -0.55131,-0.10122 -0.68914,0 z"
     id="path355"
     inkscape:connector-curvature="0"
     style="fill:#5a5a5a;stroke-width:1.22859097" /><path
     d="m 181.47268,294.04801 c 0.22854,0 0.46061,0 0.68796,0 0,0.24987 0,0.50102 0,0.75087 -0.13666,-0.10122 -0.5737,0.12558 -0.68796,0 -0.11543,-0.12557 0.0919,-0.59839 0,-0.75087 z"
     id="path357"
     inkscape:connector-curvature="0"
     style="fill:#5a5a5a;stroke-width:1.22859097" /><path
     d="m 289.0353,294.79888 c 0.0919,-0.14991 -0.11661,-0.62273 0,-0.75087 0.11543,-0.12428 0.5513,0.10122 0.69031,0 -0.0931,0.1512 0.11425,0.62402 0,0.75087 -0.11543,0.12558 -0.55249,-0.10122 -0.69031,0 z"
     id="path359"
     inkscape:connector-curvature="0"
     style="fill:#5a5a5a;stroke-width:1.22859097" /><path
     d="m 98.731844,294.79888 c 0.139004,0.10123 0.574867,-0.12685 0.690311,0 0.11544,0.12558 -0.09188,0.60095 0,0.7496 -0.139005,-0.0986 -0.574867,0.12556 -0.690311,0 -0.11544,-0.1243 0.09188,-0.59839 0,-0.7496 z"
     id="path361"
     inkscape:connector-curvature="0"
     style="fill:#5a5a5a;stroke-width:1.22859097" /><path
     d="m 158.7183,295.54848 c 0.0931,-0.14865 -0.11543,-0.62402 0,-0.7496 0.11542,-0.12685 0.55131,0.10123 0.68913,0 -0.0931,0.14993 0.11426,0.62403 0,0.7496 -0.11425,0.12556 -0.55013,-0.0986 -0.68913,0 z"
     id="path363"
     inkscape:connector-curvature="0"
     style="fill:#5a5a5a;stroke-width:1.22859097" /><path
     d="m 182.16064,294.79888 c 0.139,0.10123 0.57486,-0.12685 0.69031,0 0.11543,0.12558 -0.0931,0.60095 0,0.7496 -0.13783,-0.0986 -0.57487,0.12556 -0.69031,0 -0.11308,-0.1243 0.0931,-0.59839 0,-0.7496 z"
     id="path365"
     inkscape:connector-curvature="0"
     style="fill:#5a5a5a;stroke-width:1.22859097" /><path
     d="m 288.34499,295.54848 c 0.0919,-0.14865 -0.11426,-0.62402 0,-0.7496 0.1166,-0.12685 0.55248,0.10123 0.69031,0 -0.0919,0.14993 0.11543,0.62403 0,0.7496 -0.11661,0.12556 -0.55249,-0.0986 -0.69031,0 z"
     id="path367"
     inkscape:connector-curvature="0"
     style="fill:#5a5a5a;stroke-width:1.22859097" /><path
     d="m 158.02917,296.29934 c 0,-0.24986 0,-0.50228 0,-0.75086 0.2297,0 0.45942,0 0.68913,0 -0.0931,0.14991 0.11542,0.62529 0,0.75086 -0.11543,0.12686 -0.55131,-0.10122 -0.68913,0 z"
     id="path369"
     inkscape:connector-curvature="0"
     style="fill:#5a5a5a;stroke-width:1.22859097" /><path
     d="m 182.85095,295.54848 c 0.139,0.1 0.57486,-0.12557 0.6903,0 0.11426,0.12556 -0.0931,0.59967 0,0.75086 -0.23088,0 -0.46059,0 -0.6903,0 0,-0.24986 0,-0.501 0,-0.75086 z"
     id="path371"
     inkscape:connector-curvature="0"
     style="fill:#5a5a5a;stroke-width:1.22859097" /><path
     d="m 287.65702,296.29934 c 0,-0.24986 0,-0.50228 0,-0.75086 0.22737,0 0.45944,0 0.68797,0 -0.0919,0.14991 0.1166,0.62529 0,0.75086 -0.11426,0.12686 -0.55131,-0.10122 -0.68797,0 z"
     id="path373"
     inkscape:connector-curvature="0"
     style="fill:#5a5a5a;stroke-width:1.22859097" /><path
     d="m 99.422155,297.05021 c 0,-0.25114 0,-0.50357 0,-0.75087 0.228533,0 0.459422,0 0.687955,0 0,0.2473 0,0.49973 0,0.75087 -0.22971,0 -0.459422,0 -0.687955,0 z"
     id="path375"
     inkscape:connector-curvature="0"
     style="fill:#5a5a5a;stroke-width:1.22859097" /><path
     d="m 100.11011,297.05021 c 0,-0.25114 0,-0.50357 0,-0.75087 3.67774,0 7.35665,0 11.03321,0 1.83887,0 3.67656,0 5.51543,0 2.0674,0 4.13598,0 6.20456,0 1.84005,0 3.67774,0 5.5166,0 2.06859,0 4.13717,0 6.20574,0 3.90746,0 7.81372,0 11.72235,0 0,0.2473 0,0.49973 0,0.75087 -3.90744,0 -7.81489,0 -11.72235,0 -2.06857,0 -4.13715,0 -6.20574,0 -1.83886,0 -3.67655,0 -5.5166,0 -2.06858,0 -4.13716,0 -6.20456,0 -1.83887,0 -3.67774,0 -5.51543,0 -3.67774,0 -7.35547,0 -11.03321,0 z"
     id="path377"
     inkscape:connector-curvature="0"
     style="fill:#5a5a5a;stroke-width:1.22859097" /><path
     d="m 146.308,297.05021 c 0,-0.25114 0,-0.50357 0,-0.75087 0.91885,0 1.83886,0 2.75772,0 0,0.2473 0,0.49973 0,0.75087 -0.91886,0 -1.83887,0 -2.75772,0 z"
     id="path379"
     inkscape:connector-curvature="0"
     style="fill:#5a5a5a;stroke-width:1.22859097" /><path
     d="m 149.06572,297.05021 c 0,-0.25114 0,-0.50357 0,-0.75087 0.23089,0 0.46059,0 0.69031,0 0.0954,0 0.62787,-0.0654 0.68795,0 0.11543,0.12686 -0.0919,0.59967 0,0.75087 -0.45942,0 -0.91884,0 -1.37826,0 z"
     id="path381"
     inkscape:connector-curvature="0"
     style="fill:#5a5a5a;stroke-width:1.22859097" /><path
     d="m 154.58232,297.05021 c 0.0919,-0.1512 -0.11543,-0.62401 0,-0.75087 0.11425,-0.12557 0.5513,0.1 0.68914,0 0,0.2473 0,0.49973 0,0.75087 -0.22972,0 -0.45942,0 -0.68914,0 z"
     id="path383"
     inkscape:connector-curvature="0"
     style="fill:#5a5a5a;stroke-width:1.22859097" /><path
     d="m 155.27146,297.05021 c 0,-0.25114 0,-0.50357 0,-0.75087 0.2297,0 0.45942,0 0.68912,0 0,0.2473 0,0.49973 0,0.75087 -0.2297,0 -0.45942,0 -0.68912,0 z"
     id="path385"
     inkscape:connector-curvature="0"
     style="fill:#5a5a5a;stroke-width:1.22859097" /><path
     d="m 155.96058,297.05021 c 0,-0.25114 0,-0.50357 0,-0.75087 0.23089,0 0.46061,0 0.69032,0 0,0.2473 0,0.49973 0,0.75087 -0.23088,0 -0.45943,0 -0.69032,0 z"
     id="path387"
     inkscape:connector-curvature="0"
     style="fill:#5a5a5a;stroke-width:1.22859097" /><path
     d="m 184.23039,297.05021 c 0,-0.25114 0,-0.50357 0,-0.75087 0.22972,0 0.45942,0 0.68914,0 0,0.2473 0,0.49973 0,0.75087 -0.22972,0 -0.45942,0 -0.68914,0 z"
     id="path389"
     inkscape:connector-curvature="0"
     style="fill:#5a5a5a;stroke-width:1.22859097" /><path
     d="m 184.91953,297.05021 c 0,-0.25114 0,-0.50357 0,-0.75087 0.13901,0.1 0.57486,-0.12557 0.69031,0 0.11425,0.12686 -0.0931,0.59967 0,0.75087 -0.22972,0 -0.46061,0 -0.69031,0 z"
     id="path391"
     inkscape:connector-curvature="0"
     style="fill:#5a5a5a;stroke-width:1.22859097" /><path
     d="m 285.58845,297.05021 c 0.0919,-0.1512 -0.11661,-0.62401 0,-0.75087 0.11425,-0.12557 0.5513,0.1 0.68796,0 0,0.2473 0,0.49973 0,0.75087 -0.22854,0 -0.45943,0 -0.68796,0 z"
     id="path393"
     inkscape:connector-curvature="0"
     style="fill:#5a5a5a;stroke-width:1.22859097" /><path
     d="m 286.27641,297.05021 c 0,-0.25114 0,-0.50357 0,-0.75087 0.2297,0 0.45942,0 0.69031,0 0,0.2473 0,0.49973 0,0.75087 -0.23089,0 -0.45943,0 -0.69031,0 z"
     id="path395"
     inkscape:connector-curvature="0"
     style="fill:#5a5a5a;stroke-width:1.22859097" /><path
     d="m 158.02917,285.79999 c 0.2297,0 0.45942,0 0.68913,0 0.0931,0.14863 -0.11543,0.62401 0,0.74958 0.0966,0.10507 0.6161,-0.12045 0.68913,0 0.10603,0.17298 -0.0849,0.56123 0,0.74959 -0.2297,0 -0.46059,0 -0.68913,0 -0.0931,-0.14992 0.11542,-0.62529 0,-0.74959 -0.0966,-0.10507 -0.6161,0.11921 -0.68913,0 -0.1072,-0.17169 0.0849,-0.56251 0,-0.74958 z"
     id="path397"
     inkscape:connector-curvature="0"
     style="fill:#5a5a5a;stroke-width:1.22859097" /><path
     d="m 151.82343,264.7987 c 0.22853,0 0.45942,0 0.68795,0 0.0931,0.14991 -0.11425,0.6253 0,0.74958 0.0978,0.10507 0.61728,-0.11921 0.69031,0 0.10603,0.17299 -0.0849,0.56123 0,0.75215 -0.2297,0 -0.45942,0 -0.69031,0 -0.0919,-0.15248 0.11543,-0.6253 0,-0.75215 -0.11425,-0.12428 -0.5513,0.10123 -0.68795,0 0,-0.24858 0,-0.49844 0,-0.74958 z"
     id="path399"
     inkscape:connector-curvature="0"
     style="fill:#5a5a5a;stroke-width:1.22859097" /><path
     d="m 99.422155,287.29916 c 0,-0.24859 0,-0.50101 0,-0.74959 0.137827,-0.1 0.574867,0.1243 0.687955,0 0.0978,-0.10507 -0.10955,-0.66887 0,-0.74958 0.16021,-0.11661 0.51715,0.0909 0.69031,0 0,0.24858 0,0.49972 0,0.74958 -0.13782,0.10122 -0.57486,-0.12557 -0.69031,0 -0.114263,0.1243 0.0919,0.59967 0,0.74959 -0.22971,0 -0.459422,0 -0.687955,0 z"
     id="path401"
     inkscape:connector-curvature="0"
     style="fill:#5a5a5a;stroke-width:1.22859097" /><path
     d="m 241.45913,92.968656 c -0.11425,-0.128128 0.0919,-0.61633 0,-0.771365 v -2.312855 c -0.13782,-0.103828 -0.57368,0.128141 -0.68795,0 -0.11542,-0.128129 0.0919,-0.616318 0,-0.771365 v -1.541478 h -0.69031 v -0.771365 c -0.13783,-0.101223 -0.57487,0.128128 -0.68914,0 -0.11543,-0.128142 0.0908,-0.616331 0,-0.771378 -0.13782,-0.102463 -0.57486,0.128141 -0.68912,0 -0.11543,-0.128129 0.0919,-0.616331 0,-0.771365 -0.0919,-0.15248 0.11543,-0.640681 0,-0.771378 -0.11543,-0.126851 -0.55132,0.103828 -0.68914,0 h -0.68914 v -0.771378 c -0.13782,-0.102463 -0.57486,0.128129 -0.69031,0 -0.11543,-0.128141 0.0919,-0.61633 0,-0.771377 h -0.68913 c -0.13783,-0.102464 -0.57369,0.128141 -0.68913,0 -0.11543,-0.128129 0.0919,-0.616331 0,-0.771366 h -2.06859 c -0.139,-0.102463 -0.57486,0.128129 -0.68913,0 -0.11542,-0.128141 0.0919,-0.616343 0,-0.77139 H 27.024218 c -0.0082,0.01414 -0.0082,0.03337 -0.01295,0.04999 -0.0094,0 -0.01884,0 -0.02827,0 l 0.04124,-0.04999 c -5.336371,0 -9.653766,5.174113 -9.653766,11.565493 l 0.02121,-0.02307 c 0,0.0025 0.0012,0.0087 0.0024,0.01414 -0.0012,0.0025 -0.0012,0.0037 -0.0012,0.0087 H 17.37164 V 224.04676 H 31.85169 V 97.595632 H 227.67057 V 160.0524 h 14.48006 V 92.968656 c -0.14018,-0.102463 -0.57722,0.129419 -0.6915,0 z"
     id="path403"
     inkscape:connector-curvature="0"
     style="fill:#5a5a5a;stroke-width:1.22859097" /><path
     d="m 46.266312,292.37442 v -30.51695 c 0.01176,-10e-4 0.02351,-0.002 0.03526,-0.005 v 0.0385 H 180.42642 V 245.8206 H 46.301576 v 0.0236 c -0.01175,0 -0.02351,0.005 -0.03526,0.006 v -17.0429 c 0,-2.40777 -1.846617,-4.3578 -4.126972,-4.3578 H 8.7568227 c -0.00353,0 -0.0047,-0.001 -0.00823,-0.001 -0.00235,0 -0.00353,0.001 -0.00705,0.001 H 8.4265239 l -0.6617732,0.69839 c -0.069351,0.0112 -0.1410529,0.0199 -0.197474,0.0484 -0.1845442,-0.0198 -0.4325622,-0.10792 -0.517194,-0.0211 -0.1140177,0.12157 0.091684,0.58054 0,0.72692 -0.1363511,0.0955 -0.5712642,-0.12281 -0.6864574,0 -0.075228,0.0782 -0.015281,0.30144 0.010579,0.48875 -0.035263,0.0769 -0.057597,0.15382 -0.068176,0.23693 H 5.6748171 v 0.72568 l -0.6876329,0.72692 v 64.29884 c -0.010579,0.0781 -0.010579,0.15505 0,0.23445 v 0.0856 c 0.00353,0.002 0.0094,0.002 0.015281,0.004 0.010579,0.0447 0.037614,0.0794 0.055246,0.12281 0.00235,0.12653 0.03879,0.24437 0.094035,0.35353 0.2456671,2.19689 2.2803551,3.91495 4.7758158,3.91495 v -0.0372 h 31.525321 c 0.01058,-0.0174 0.0059,-0.0471 0.0094,-0.0695 0.03409,-0.002 0.05642,-0.0174 0.08698,-0.0198 l -0.09756,0.0881 c 0.233913,0 0.461948,-0.0211 0.688808,-0.0509 v 0.0509 l 0.05289,-0.0583 M 16.681644,230.98574 h 17.200225 v 1.4526 H 16.681644 Z m 11.696811,57.35962 v 3.62963 c -0.138702,0.098 -0.573615,-0.12033 -0.688808,0 -0.09639,0.10048 0.110491,0.65001 0,0.72692 -0.158685,0.11164 -0.514843,-0.0893 -0.686458,0 h -3.440515 c -0.09168,-0.14514 0.115194,-0.60411 0,-0.72692 -0.09639,-0.10172 -0.614755,0.11785 -0.687632,0 -0.10579,-0.16622 0.08463,-0.54333 0,-0.72568 v -2.90395 c 0.09168,-0.14638 -0.115194,-0.60536 0,-0.72692 0.04819,-0.0496 0.149281,-0.0422 0.263298,-0.0223 l -0.263298,0.0223 h 0.38907 c 0.122246,0.0248 0.23979,0.0409 0.299738,0 0.09051,-0.14514 -0.115193,-0.60535 0,-0.72568 0.115193,-0.12157 0.550106,0.098 0.687633,0 h 2.752882 c 0.137526,0.098 0.573615,-0.12157 0.686457,0 0.115194,0.12033 -0.09168,0.58054 0,0.72568 0.138702,0.098 0.573615,-0.12157 0.688809,0 0.115193,0.12156 -0.09404,0.58054 -0.0012,0.72692 z M 42.825797,283.9888 H 8.4265239 V 237.51933 H 42.826973 v 46.46947 z"
     id="path405"
     inkscape:connector-curvature="0"
     style="fill:#5a5a5a;stroke-width:1.20752072" /><path
     d="m 42.19341,296.99768 c 2.285333,0 4.135981,-2.14114 4.135981,-4.78583"
     id="path407"
     inkscape:connector-curvature="0"
     style="fill:#5a5a5a;stroke-width:1.22859097" /><polyline
     points="130.529,220.773 137.719,243.34 137.12,244.527 135.922,245.123 134.691,246.011 133.525,246.309   84.388,246.309 83.05,244.246 83.191,242.745 83.191,242.152 90.381,220.773 130.228,220.773 "
     id="polyline409"
     style="fill:#5a5a5a"
     transform="matrix(1.1780067,0,0,1.2813475,-0.91338989,-18.298617)" /><path
     d="m 232.45563,81.427515 0.0636,0.07691 c -0.0283,-0.0025 -0.0483,-0.01662 -0.0789,-0.01662 -0.78454,0 -0.87408,1.16348 -0.27565,1.437687 0.10132,0.07815 0.22147,0.13582 0.3805,0.13582 0.43704,0 0.65732,-0.362616 0.6644,-0.732923 l 8.01869,9.608864 c -0.42644,0.03324 -0.62789,0.418996 -0.60432,0.794426 -0.0153,0.219118 0.0565,0.436945 0.19437,0.594548 0.1025,0.205013 0.28626,0.361338 0.56662,0.361338 0.45117,0 0.67146,-0.385677 0.6644,-0.766242 l 0.0601,0.07182 c -0.001,-6.392669 -4.31975,-11.565492 -9.65376,-11.565492 z"
     id="path411"
     inkscape:connector-curvature="0"
     style="fill:#5a5a5a;stroke-width:1.22859097" /><text
     id="text417"
     x="265.56219"
     y="180.067"
     transform="scale(1.087924,0.91918188)"
     style="font-size:26.61063385px;fill:#5a5a5a;fill-opacity:1;stroke-width:2.21755314"><tspan
       x="265.56219"
       y="180.067"
       font-size="52.5943"
       id="tspan413"
       style="font-size:116.63063812px;font-family:'Open Sans';fill:#5a5a5a;fill-opacity:1;stroke-width:2.21755314">Digital </tspan><tspan
       x="265.56219"
       y="320.0224"
       font-size="52.5943"
       id="tspan415"
       style="font-size:116.63063812px;font-family:'Open Sans';fill:#5a5a5a;fill-opacity:1;stroke-width:2.21755314">Web</tspan></text>
</svg>