<?xml version="1.0" encoding="UTF-8" standalone="no"?>
<!-- Generator: Adobe Illustrator 15.1.0, SVG Export Plug-In  -->

<svg
   xmlns:xhtml="http://www.w3.org/1999/xhtml"
   xmlns:dc="http://purl.org/dc/elements/1.1/"
   xmlns:cc="http://creativecommons.org/ns#"
   xmlns:rdf="http://www.w3.org/1999/02/22-rdf-syntax-ns#"
   xmlns:svg="http://www.w3.org/2000/svg"
   xmlns="http://www.w3.org/2000/svg"
   xmlns:sodipodi="http://sodipodi.sourceforge.net/DTD/sodipodi-0.dtd"
   xmlns:inkscape="http://www.inkscape.org/namespaces/inkscape"
   version="1.1"
   x="0px"
   y="0px"
   width="40"
   height="36"
   viewBox="-10.83 -8.095 40 36"
   enable-background="new -10.83 -8.095 433 307"
   xml:space="preserve"
   id="svg410"
   sodipodi:docname="logo9.svg"
   inkscape:version="0.92.1 r"><ellipse
     style="fill:#000000;fill-opacity:1;stroke:#000000;stroke-width:0.93746495;stroke-opacity:1"
     id="path416"
     cx="10.082483"
     cy="6.3743529"
     rx="16.251366"
     ry="12.873405" /><metadata
     id="metadata414"><rdf:RDF><cc:Work
         rdf:about=""><dc:format>image/svg+xml</dc:format><dc:type
           rdf:resource="http://purl.org/dc/dcmitype/StillImage" /><dc:title></dc:title></cc:Work></rdf:RDF></metadata><sodipodi:namedview
     pagecolor="#ffffff"
     bordercolor="#666666"
     borderopacity="1"
     objecttolerance="10"
     gridtolerance="10"
     guidetolerance="10"
     inkscape:pageopacity="0"
     inkscape:pageshadow="2"
     inkscape:window-width="1280"
     inkscape:window-height="969"
     id="namedview412"
     showgrid="false"
     inkscape:snap-object-midpoints="true"
     inkscape:zoom="1.7163262"
     inkscape:cx="216.5"
     inkscape:cy="153.5"
     inkscape:window-x="1920"
     inkscape:window-y="27"
     inkscape:window-maximized="1"
     inkscape:current-layer="svg410" /><defs
     id="defs232" /><path
     d="m 19.105933,-2.3770791 c -0.0093,-0.00961 0.0074,-0.046129 0,-0.057661"
     id="path234"
     inkscape:connector-curvature="0"
     style="clip-rule:evenodd;fill:#5a5a5a;fill-rule:evenodd;stroke-width:0.05667436" /><path
     d="m 14.482793,2.9857894 c 0.0075,-0.011538 -0.0093,-0.048052 0,-0.057663 0.0093,-0.00961 0.04456,0.00753 0.0557,0 0,0.01922 0,0.038441 0,0.057663 -0.01855,0 -0.03715,0 -0.0557,0 z"
     id="path236"
     inkscape:connector-curvature="0"
     style="clip-rule:evenodd;fill:#5a5a5a;fill-rule:evenodd;stroke-width:0.05667436" /><path
     d="m 14.538494,2.9857894 c 0,-0.019222 0,-0.038442 0,-0.057663 0.01855,0 0.03715,0 0.0557,0 -0.0075,0.011538 0.0093,0.048052 0,0.057663 -0.0093,0.00961 -0.04456,-0.00753 -0.0557,0 z"
     id="path238"
     inkscape:connector-curvature="0"
     style="clip-rule:evenodd;fill:#5a5a5a;fill-rule:evenodd;stroke-width:0.05667436" /><path
     d="m 14.594194,2.9281266 c 0.668406,0 1.336812,0 2.005217,0 0.668406,0 1.336812,0 2.005218,0 0.668405,0 1.336811,0 2.005217,0 0.334203,0 0.668406,0 1.002609,0 0.07425,0 0.148553,0 0.222801,0 0.03715,0 0.07425,0 0.111401,0 0.0557,0 0.111401,0 0.167102,0 0.07425,0 0.148553,0 0.222802,0 0.03715,0 0.07425,0 0.111401,0 0.07425,0 0.148553,0 0.222802,0 0.0074,0.011538 -0.0093,0.048053 0,0.057663 0.0093,0.00961 0.04456,-0.00753 0.0557,0 0.01855,0 0.03715,0 0.0557,0 0.01855,0 0.03715,0 0.0557,0 0.0074,0.011538 -0.0093,0.048051 0,0.057662 0.0093,0.00961 0.04456,-0.00753 0.0557,0 0.0074,0.011538 -0.0093,0.048053 0,0.057663 0.0093,0.00961 0.04456,-0.00753 0.0557,0 0,0.019221 0,0.038441 0,0.057662 0.01855,0 0.03715,0 0.0557,0 0,0.019221 0,0.038442 0,0.057663 0,0.019221 0,0.038441 0,0.057662 0,0.01922 0,0.038442 0,0.057663 0.01855,0 0.03715,0 0.0557,0 0,0.8265174 0,1.6530856 0,2.4796029 0,0.4036616 0,0.8073141 0,1.2109747 0,0.4036524 0,0.8073141 0,1.2109665 0,0.8073142 0,1.614627 0,2.4219413 0,0.807314 0,1.614627 0,2.421941 -0.01114,0.0075 -0.0464,-0.0096 -0.0557,0 -0.0093,0.0096 0.0075,0.04613 0,0.05766 0,0.01922 0,0.03844 0,0.05766 0,0.01922 0,0.03844 0,0.05766 -0.01114,0.0075 -0.0464,-0.0096 -0.0557,0 -0.0093,0.0096 0.0075,0.04613 0,0.05766 -0.01114,0.0075 -0.0464,-0.0096 -0.0557,0 -0.0093,0.0096 0.0075,0.04613 0,0.05766 -0.01855,0 -0.03715,0 -0.0557,0 0,0.01922 0,0.03844 0,0.05766 -0.01855,0 -0.03715,0 -0.0557,0 -0.01855,0 -0.03715,0 -0.0557,0 -0.01114,0.0075 -0.0464,-0.0096 -0.0557,0 -0.0093,0.0096 0.0075,0.04613 0,0.05766 -0.686954,0 -1.373964,0 -2.060918,0 -0.668406,0 -1.336812,0 -2.005217,0 -0.668406,0 -1.336812,0 -2.005218,0 -0.668405,0 -1.336811,0 -2.005217,0 -0.0075,-0.01154 0.0093,-0.04805 0,-0.05766 -0.0093,-0.0096 -0.04456,0.0075 -0.0557,0 -0.01855,0 -0.03715,0 -0.0557,0 -0.01855,0 -0.03715,0 -0.0557,0 -0.0075,-0.01154 0.0093,-0.04805 0,-0.05766 -0.0093,-0.0096 -0.04456,0.0075 -0.0557,0 -0.0075,-0.01154 0.0093,-0.04805 0,-0.05766 -0.0093,-0.0096 -0.04456,0.0075 -0.0557,0 0,-0.01922 0,-0.03844 0,-0.05766 -0.01855,0 -0.03715,0 -0.0557,0 0,-0.01922 0,-0.03844 0,-0.05766 0,-0.01922 0,-0.03844 0,-0.05766 -0.0075,-0.01154 0.0093,-0.04805 0,-0.05766 -0.0093,-0.0096 -0.04456,0.0075 -0.0557,0 0,-0.07688 0,-0.153791 0,-0.230658 0,-0.05766 0,-0.115333 0,-0.173004 0,-0.03844 0,-0.07688 0,-0.115324 0,-0.05766 0,-0.115333 0,-0.172995 0,-0.03844 0,-0.07688 0,-0.115333 0,-0.05766 0,-0.115333 0,-0.172995 0,-0.03844 0,-0.07688 0,-0.115334 0,-0.05766 0,-0.115324 0,-0.172995 0,-0.403652 0,-0.807313 0,-1.210966 0,-0.403661 0,-0.8073134 0,-1.2109751 0,-0.4036525 0,-0.807313 0,-1.2109654 0,-0.8073141 0,-1.6146282 0,-2.4219412 0,-0.807314 0,-1.6146282 0,-2.4219412 0.01114,-0.00753 0.0464,0.00961 0.0557,0 0.0093,-0.00961 -0.0075,-0.04613 0,-0.057663 0,-0.01922 0,-0.038441 0,-0.057662 0,-0.019221 0,-0.038442 0,-0.057663 0.01114,-0.00753 0.0464,0.00961 0.0557,0 0.0093,-0.00961 -0.0075,-0.04613 0,-0.057662 0.01114,-0.00753 0.0464,0.00961 0.0557,0 0.0093,-0.00961 -0.0075,-0.04613 0,-0.057663 0.01855,0 0.03715,0 0.0557,0 0,-0.019221 0,-0.038441 0,-0.057662 0.01855,0 0.03715,0 0.0557,0 0.01855,0 0.03715,0 0.0557,0 0.01114,-0.00753 0.0464,0.00961 0.0557,0 0.0093,-0.00961 -0.0075,-0.04613 0,-0.057662 z m 0.779807,3.2292554 c 0,0.6727759 0,1.3455023 0,2.0182795 0,0.153791 0,0.3075323 0,0.4613233 0,0.1729954 0,0.3459908 0,0.518985 0,0.3459908 0,0.6919896 0,1.0379802 0,0.691981 0,1.383961 0,2.075951 0.259954,0 0.519852,0 0.779807,0 0.946908,0 1.893816,0 2.840724,0 0.965456,0 1.930969,0 2.896425,0 0,-0.153799 0,-0.307533 0,-0.461324 0,-0.307532 0,-0.615114 0,-0.922646 0,-0.153791 0,-0.307533 0,-0.461324 0,-0.172995 0,-0.34599 0,-0.5189847 0,-0.3075324 0,-0.6151156 0,-0.9226467 0,-0.153791 0,-0.3075243 0,-0.4613233 0,-0.1729954 0,-0.3459908 0,-0.5189863 0,-1.2878325 0,-2.5757321 0,-3.8635728 -0.259954,0 -0.519853,0 -0.779807,0 -0.464152,0 -0.92836,0 -1.392512,0 -0.24135,0 -0.482756,0 -0.724106,0 -0.24135,0 -0.482756,0 -0.724106,0 -0.24135,0 -0.482756,0 -0.724106,0 -0.241351,0 -0.482757,0 -0.724107,0 -0.24135,0 -0.482756,0 -0.724106,0 -0.24135,0 -0.482756,0 -0.724106,0 0,0.6727852 0,1.3455035 0,2.0182888 z"
     id="path240"
     inkscape:connector-curvature="0"
     style="clip-rule:evenodd;fill:#5a5a5a;fill-rule:evenodd;stroke-width:0.05667436" /><path
     d="m 22.670764,2.9281266 c 0.01855,0 0.03715,0 0.0557,0 0,0.019221 0,0.038441 0,0.057663 -0.01114,-0.00753 -0.0464,0.00961 -0.0557,0 -0.0093,-0.00961 0.0074,-0.04613 0,-0.057663 z"
     id="path242"
     inkscape:connector-curvature="0"
     style="clip-rule:evenodd;fill:#5a5a5a;fill-rule:evenodd;stroke-width:0.05667436" /><path
     d="m 22.726464,2.9857894 c 0,-0.019222 0,-0.038442 0,-0.057663 0.01114,0.00753 0.0464,-0.00961 0.0557,0 0.0093,0.00961 -0.0074,0.04613 0,0.057663 -0.01855,0 -0.03715,0 -0.0557,0 z"
     id="path244"
     inkscape:connector-curvature="0"
     style="clip-rule:evenodd;fill:#5a5a5a;fill-rule:evenodd;stroke-width:0.05667436" /><path
     d="m 14.371392,3.0434592 c 0.0075,-0.011538 -0.0093,-0.048051 0,-0.057662 0.0093,-0.00961 0.04456,0.00753 0.0557,0 0,0.019221 0,0.038441 0,0.057662 -0.01855,0 -0.03715,0 -0.0557,0 z"
     id="path246"
     inkscape:connector-curvature="0"
     style="clip-rule:evenodd;fill:#5a5a5a;fill-rule:evenodd;stroke-width:0.05667436" /><path
     d="m 22.837865,2.9857894 c 0.01114,0.00753 0.0464,-0.00961 0.0557,0 0.0093,0.00961 -0.0074,0.046129 0,0.057662 -0.01114,-0.00753 -0.0464,0.00961 -0.0557,0 -0.0093,-0.00961 0.0074,-0.04613 0,-0.057662 z"
     id="path248"
     inkscape:connector-curvature="0"
     style="clip-rule:evenodd;fill:#5a5a5a;fill-rule:evenodd;stroke-width:0.05667436" /><path
     d="m 14.315692,3.101122 c 0.0075,-0.011538 -0.0093,-0.048053 0,-0.057663 0.0093,-0.00961 0.04456,0.00753 0.0557,0 -0.0075,0.011538 0.0093,0.048053 0,0.057663 -0.0093,0.00961 -0.04456,-0.00753 -0.0557,0 z"
     id="path250"
     inkscape:connector-curvature="0"
     style="clip-rule:evenodd;fill:#5a5a5a;fill-rule:evenodd;stroke-width:0.05667436" /><path
     d="m 22.893566,3.0434592 c 0.01114,0.00753 0.0464,-0.00961 0.0557,0 0.0093,0.00961 -0.0074,0.04613 0,0.057663 -0.01114,-0.00753 -0.0464,0.00961 -0.0557,0 -0.0093,-0.00961 0.0074,-0.04613 0,-0.057663 z"
     id="path252"
     inkscape:connector-curvature="0"
     style="clip-rule:evenodd;fill:#5a5a5a;fill-rule:evenodd;stroke-width:0.05667436" /><path
     d="m 14.259991,3.1587837 c 0,-0.019221 0,-0.038441 0,-0.057662 0.01855,0 0.03715,0 0.0557,0 -0.0075,0.011538 0.0093,0.048051 0,0.057662 -0.0093,0.00961 -0.04456,-0.00753 -0.0557,0 z"
     id="path254"
     inkscape:connector-curvature="0"
     style="clip-rule:evenodd;fill:#5a5a5a;fill-rule:evenodd;stroke-width:0.05667436" /><path
     d="m 22.949266,3.101122 c 0.01114,0.00753 0.0464,-0.00961 0.0557,0 0.0093,0.00961 -0.0074,0.04613 0,0.057662 -0.01855,0 -0.03715,0 -0.0557,0 0,-0.01922 0,-0.038441 0,-0.057662 z"
     id="path256"
     inkscape:connector-curvature="0"
     style="clip-rule:evenodd;fill:#5a5a5a;fill-rule:evenodd;stroke-width:0.05667436" /><path
     d="m 14.204291,3.2741174 c 0.0075,-0.011541 -0.0093,-0.048053 0,-0.057663 0.0093,-0.00961 0.04456,0.00753 0.0557,0 0,0.019221 0,0.038442 0,0.057663 -0.01855,0 -0.03715,0 -0.0557,0 z"
     id="path258"
     inkscape:connector-curvature="0"
     style="clip-rule:evenodd;fill:#5a5a5a;fill-rule:evenodd;stroke-width:0.05667436" /><path
     d="m 23.004967,3.2741174 c 0,-0.01922 0,-0.038442 0,-0.057663 0.01855,0 0.03715,0 0.0557,0 0,0.019221 0,0.038442 0,0.057663 -0.01855,0 -0.03715,0 -0.0557,0 z"
     id="path260"
     inkscape:connector-curvature="0"
     style="clip-rule:evenodd;fill:#5a5a5a;fill-rule:evenodd;stroke-width:0.05667436" /><path
     d="m 14.204291,3.3317791 c 0,-0.01922 0,-0.038441 0,-0.057661 0.01855,0 0.03715,0 0.0557,0 -0.0075,0.011541 0.0093,0.048051 0,0.057661 -0.0093,0.00961 -0.04456,-0.00753 -0.0557,0 z"
     id="path262"
     inkscape:connector-curvature="0"
     style="clip-rule:evenodd;fill:#5a5a5a;fill-rule:evenodd;stroke-width:0.05667436" /><path
     d="m 23.004967,3.2741174 c 0.01855,0 0.03715,0 0.0557,0 0,0.01922 0,0.038441 0,0.057661 -0.01855,0 -0.03715,0 -0.0557,0 0,-0.01922 0,-0.038441 0,-0.057661 z"
     id="path264"
     inkscape:connector-curvature="0"
     style="clip-rule:evenodd;fill:#5a5a5a;fill-rule:evenodd;stroke-width:0.05667436" /><path
     d="m 8.1886389,11.058926 c 0.00741,-0.01154 -0.0093,-0.04805 0,-0.05766 0.0093,-0.0096 0.04456,0.0075 0.0557,0 -0.00741,0.01154 0.0093,0.04805 0,0.05766 -0.0093,0.0096 -0.04456,-0.0075 -0.0557,0 z"
     id="path266"
     inkscape:connector-curvature="0"
     style="clip-rule:evenodd;fill:#5a5a5a;fill-rule:evenodd;stroke-width:0.05667436" /><path
     d="m 8.2443394,11.001263 c 0.594157,0 1.1882583,0 1.7824156,0 0.29705,0 0.594157,0 0.891207,0 0.148554,0 0.297051,0 0.445604,0 0.167102,0 0.334203,0 0.501305,0 0,0.01922 0,0.03844 0,0.05766 0.01114,0.0075 0.0464,-0.0096 0.0557,0 0.0093,0.0096 -0.0075,0.04613 0,0.05766 0.01855,0 0.03715,0 0.0557,0 0,0.03844 0,0.07688 0,0.115333 0,0.01922 0,0.03844 0,0.05766 0,0.01922 0,0.03844 0,0.05766 0.01855,0 0.03715,0 0.0557,0 0,0.01922 0,0.03844 0,0.05766 0,0.01922 0,0.03844 0,0.05766 0.0075,0.01154 -0.0093,0.04805 0,0.05766 0.0093,0.0096 0.04456,-0.0075 0.0557,0 0,0.03844 0,0.07688 0,0.115334 0,0.01922 0,0.03844 0,0.05766 0,0.01922 0,0.03844 0,0.05766 0.01855,0 0.03715,0 0.0557,0 0,0.03844 0,0.07688 0,0.115324 0,0.01922 0,0.03844 0,0.05766 0,0.01922 0,0.03844 0,0.05766 0.01855,0 0.03715,0 0.0557,0 0,0.01922 0,0.03844 0,0.05766 0,0.01922 0,0.03844 0,0.05766 0.0075,0.01154 -0.0093,0.04805 0,0.05766 0.0093,0.0096 0.04456,-0.0075 0.0557,0 0,0.03844 0,0.07688 0,0.115334 0,0.01922 0,0.03844 0,0.05766 0,0.01922 0,0.03844 0,0.05766 0.01855,0 0.03715,0 0.0557,0 0,0.01922 0,0.03844 0,0.05766 0,0.01922 0,0.03844 0,0.05766 0.0075,0.01154 -0.0093,0.04805 0,0.05766 0.0093,0.0096 0.04456,-0.0075 0.0557,0 0,0.01922 0,0.03844 0,0.05766 0.0069,0.01446 -0.0086,0.04437 0,0.05766 0.0059,0.0092 0.0479,-0.0084 0.0557,0 0.0093,0.0096 -0.0075,0.04613 0,0.05766 0.01855,0 0.03715,0 0.0557,0 0,0.03844 0,0.07688 0,0.115333 0,0.01922 0,0.03844 0,0.05766 0,0.01922 0,0.03844 0,0.05766 0.01855,0 0.03715,0 0.0557,0 0,0.03844 0,0.07688 0,0.115324 0,0.01922 0,0.03844 0,0.05766 0,0.01922 0,0.03844 0,0.05766 -0.01114,0.0075 -0.0464,-0.0096 -0.0557,0 -0.0093,0.0096 0.0075,0.04613 0,0.05766 0,0.01922 0,0.03844 0,0.05766 -0.01114,0.0075 -0.0464,-0.0096 -0.0557,0 -0.0093,0.0096 0.0075,0.04613 0,0.05766 -0.01855,0 -0.03715,0 -0.0557,0 0,0.01922 0,0.03844 0,0.05766 -0.03715,0 -0.07425,0 -0.111401,0 -0.01855,0 -0.03715,0 -0.0557,0 -0.01855,0 -0.03715,0 -0.0557,0 -0.01114,0.0075 -0.0464,-0.0096 -0.0557,0 -0.0093,0.0096 0.0075,0.04613 0,0.05766 -0.111401,0 -0.222802,0 -0.334203,0 -0.0075,-0.01154 0.0093,-0.04805 0,-0.05766 -0.0049,-0.005 -0.04801,0 -0.0557,0 -0.01855,0 -0.03715,0 -0.0557,0 -0.07425,0 -0.148553,0 -0.222802,0 -0.315655,0 -0.631254,0 -0.946908,0 -0.167102,0 -0.334203,0 -0.5013047,0 -0.1485532,0 -0.2970507,0 -0.4456039,0 -0.1671014,0 -0.3342028,0 -0.5013043,0 -0.1485531,0 -0.2970506,0 -0.4456038,0 -0.2970507,0 -0.594157,0 -0.8912077,0 -0.018548,0 -0.037152,0 -0.0557,0 0,-0.01922 0,-0.03844 0,-0.05766 -0.00741,-0.01154 0.0093,-0.04805 0,-0.05766 -0.0093,-0.0096 -0.04456,0.0075 -0.0557,0 0,-0.01922 0,-0.03844 0,-0.05766 0,-0.01922 0,-0.03844 0,-0.05766 0,-0.03844 0,-0.07688 0,-0.115324 0.01114,-0.0075 0.046398,0.0096 0.0557,0 0.0093,-0.0096 -0.00741,-0.04613 0,-0.05766 0,-0.01922 0,-0.03844 0,-0.05766 0,-0.05766 0,-0.115333 0,-0.172994 0.01114,-0.0075 0.046398,0.0096 0.0557,0 0.0093,-0.0096 -0.00741,-0.04613 0,-0.05766 0.00741,-0.01154 -0.0093,-0.04805 0,-0.05766 0.0093,-0.0096 0.04456,0.0075 0.055701,0 0,-0.01922 0,-0.03844 0,-0.05766 0,-0.05766 0,-0.115333 0,-0.173004 0.01114,-0.0075 0.046398,0.0096 0.0557,0 0.0093,-0.0096 -0.00741,-0.04613 0,-0.05766 0,-0.05766 0,-0.115324 0,-0.172994 0.018548,0 0.037152,0 0.055701,0 0.01114,-0.0075 0.046398,0.0096 0.0557,0 0.0093,-0.0096 -0.00741,-0.04613 0,-0.05766 0,-0.05766 0,-0.115324 0,-0.172995 0.01114,-0.0075 0.046398,0.0096 0.0557,0 0.0093,-0.0096 -0.00741,-0.04613 0,-0.05766 0,-0.05766 0,-0.115333 0,-0.172995 0.01114,-0.0075 0.046398,0.0096 0.055701,0 0.0068,-0.0067 -0.00245,-0.04738 0,-0.05766 0.00395,-0.01638 0,-0.0407 0,-0.05766 0,-0.03844 0,-0.07688 0,-0.115333 0.01114,-0.0075 0.046398,0.0096 0.0557,0 0.0093,-0.0096 -0.00741,-0.04613 0,-0.05766 0,-0.01922 0,-0.03844 0,-0.05766 0,-0.01922 0,-0.03844 0,-0.05766 0.01114,-0.0075 0.046399,0.0096 0.055701,0 0.0093,-0.0096 -0.00741,-0.04613 0,-0.05766 0,-0.01922 0,-0.03844 0,-0.05766 0.01114,-0.0075 0.046399,0.0096 0.0557,0 0.0093,-0.0096 -0.00741,-0.04613 0,-0.05766 0,-0.01922 0,-0.03844 0,-0.05766 0,-0.01922 0,-0.03844 0,-0.05766 0.01114,-0.0075 0.046398,0.0096 0.0557,0 0.0093,-0.0096 -0.00746,-0.04613 0,-0.05766 z"
     id="path268"
     inkscape:connector-curvature="0"
     style="clip-rule:evenodd;fill:#5a5a5a;fill-rule:evenodd;stroke-width:0.05667436" /><path
     d="m 8.1329385,11.174259 c 0.00741,-0.01154 -0.0093,-0.04805 0,-0.05766 0.0093,-0.0096 0.04456,0.0075 0.0557,0 0,0.01922 0,0.03844 0,0.05766 -0.018604,0 -0.037152,0 -0.0557,0 z"
     id="path270"
     inkscape:connector-curvature="0"
     style="clip-rule:evenodd;fill:#5a5a5a;fill-rule:evenodd;stroke-width:0.05667436" /><path
     d="m 8.1329385,11.231921 c 0,-0.01922 0,-0.03844 0,-0.05766 0.018548,0 0.037152,0 0.0557,0 -0.00741,0.01154 0.0093,0.04805 0,0.05766 -0.0093,0.0096 -0.04456,-0.0075 -0.0557,0 z"
     id="path272"
     inkscape:connector-curvature="0"
     style="clip-rule:evenodd;fill:#5a5a5a;fill-rule:evenodd;stroke-width:0.05667436" /><path
     d="m 11.976272,11.289583 c 0,-0.01922 0,-0.03844 0,-0.05766 0.01114,0.0075 0.0464,-0.0096 0.0557,0 0.0093,0.0096 -0.0075,0.04613 0,0.05766 -0.01855,0 -0.03715,0 -0.0557,0 z"
     id="path274"
     inkscape:connector-curvature="0"
     style="clip-rule:evenodd;fill:#5a5a5a;fill-rule:evenodd;stroke-width:0.05667436" /><path
     d="m 8.077238,11.347254 c 0.00741,-0.01154 -0.0093,-0.04805 0,-0.05766 0.0093,-0.0096 0.04456,0.0075 0.055701,0 -0.00741,0.01154 0.0093,0.04805 0,0.05766 -0.0093,0.0096 -0.04456,-0.0075 -0.055701,0 z"
     id="path276"
     inkscape:connector-curvature="0"
     style="clip-rule:evenodd;fill:#5a5a5a;fill-rule:evenodd;stroke-width:0.05667436" /><path
     d="m 11.976272,11.289583 c 0.01855,0 0.03715,0 0.0557,0 0,0.01922 0,0.03844 0,0.05766 -0.01855,0 -0.03715,0 -0.0557,0 0,-0.01922 0,-0.03844 0,-0.05766 z"
     id="path278"
     inkscape:connector-curvature="0"
     style="clip-rule:evenodd;fill:#5a5a5a;fill-rule:evenodd;stroke-width:0.05667436" /><path
     d="m 8.0215375,11.462586 c 0.00741,-0.01154 -0.0093,-0.04805 0,-0.05766 0.0093,-0.0096 0.04456,0.0075 0.0557,0 0,0.01922 0,0.03844 0,0.05766 -0.018604,0 -0.037152,0 -0.0557,0 z"
     id="path280"
     inkscape:connector-curvature="0"
     style="clip-rule:evenodd;fill:#5a5a5a;fill-rule:evenodd;stroke-width:0.05667436" /><path
     d="m 12.031972,11.462586 c 0,-0.01922 0,-0.03844 0,-0.05766 0.01855,0 0.03715,0 0.0557,0 0,0.01922 0,0.03844 0,0.05766 -0.01855,0 -0.03715,0 -0.0557,0 z"
     id="path282"
     inkscape:connector-curvature="0"
     style="clip-rule:evenodd;fill:#5a5a5a;fill-rule:evenodd;stroke-width:0.05667436" /><path
     d="m 8.0215375,11.520249 c 0,-0.01922 0,-0.03844 0,-0.05766 0.018548,0 0.037152,0 0.0557,0 -0.00741,0.01154 0.0093,0.04805 0,0.05766 -0.0093,0.0096 -0.04456,-0.0075 -0.0557,0 z"
     id="path284"
     inkscape:connector-curvature="0"
     style="clip-rule:evenodd;fill:#5a5a5a;fill-rule:evenodd;stroke-width:0.05667436" /><path
     d="m 12.031972,11.462586 c 0.01855,0 0.03715,0 0.0557,0 0,0.01922 0,0.03844 0,0.05766 -0.01114,-0.0075 -0.0464,0.0096 -0.0557,0 -0.0093,-0.0096 0.0075,-0.04613 0,-0.05766 z"
     id="path286"
     inkscape:connector-curvature="0"
     style="clip-rule:evenodd;fill:#5a5a5a;fill-rule:evenodd;stroke-width:0.05667436" /><path
     d="m 12.087673,11.693245 c 0,-0.01922 0,-0.03844 0,-0.05766 0.01855,0 0.03715,0 0.0557,0 0,0.01922 0,0.03844 0,0.05766 -0.01855,0 -0.03715,0 -0.0557,0 z"
     id="path288"
     inkscape:connector-curvature="0"
     style="clip-rule:evenodd;fill:#5a5a5a;fill-rule:evenodd;stroke-width:0.05667436" /><path
     d="m 12.087673,11.693245 c 0.01855,0 0.03715,0 0.0557,0 0,0.01922 0,0.03844 0,0.05766 -0.01855,0 -0.03715,0 -0.0557,0 0,-0.01922 0,-0.03844 0,-0.05766 z"
     id="path290"
     inkscape:connector-curvature="0"
     style="clip-rule:evenodd;fill:#5a5a5a;fill-rule:evenodd;stroke-width:0.05667436" /><path
     d="m 7.965837,11.750906 c 0,0.05766 0,0.115333 0,0.172996 -0.018548,0 -0.037152,0 -0.0557,0 0,-0.05766 0,-0.115324 0,-0.172996 0.018548,0 0.037097,0 0.0557,0 z"
     id="path292"
     inkscape:connector-curvature="0"
     style="clip-rule:evenodd;fill:#5a5a5a;fill-rule:evenodd;stroke-width:0.05667436" /><path
     d="m 12.143373,11.923902 c 0,-0.01922 0,-0.03844 0,-0.05766 0.01114,0.0075 0.0464,-0.0096 0.0557,0 0.0093,0.0096 -0.0075,0.04613 0,0.05766 -0.01855,0 -0.03715,0 -0.0557,0 z"
     id="path294"
     inkscape:connector-curvature="0"
     style="clip-rule:evenodd;fill:#5a5a5a;fill-rule:evenodd;stroke-width:0.05667436" /><path
     d="m 7.9101365,11.981573 c 0,-0.01922 0,-0.03844 0,-0.05766 0.018548,0 0.037152,0 0.0557,0 -0.00741,0.01154 0.0093,0.04805 0,0.05766 -0.0093,0.0096 -0.04456,-0.0075 -0.0557,0 z"
     id="path296"
     inkscape:connector-curvature="0"
     style="clip-rule:evenodd;fill:#5a5a5a;fill-rule:evenodd;stroke-width:0.05667436" /><path
     d="m 12.143373,11.923902 c 0.01855,0 0.03715,0 0.0557,0 0,0.01922 0,0.03844 0,0.05766 -0.01855,0 -0.03715,0 -0.0557,0 0,-0.01922 0,-0.03844 0,-0.05766 z"
     id="path298"
     inkscape:connector-curvature="0"
     style="clip-rule:evenodd;fill:#5a5a5a;fill-rule:evenodd;stroke-width:0.05667436" /><path
     d="m 7.9101365,11.981573 c 0,0.05766 0,0.115324 0,0.172995 -0.018548,0 -0.037152,0 -0.0557,0 0,-0.05766 0,-0.115333 0,-0.172995 0.018548,0 0.037096,0 0.0557,0 z"
     id="path300"
     inkscape:connector-curvature="0"
     style="clip-rule:evenodd;fill:#5a5a5a;fill-rule:evenodd;stroke-width:0.05667436" /><path
     d="m 12.199073,12.096897 c 0,-0.01922 0,-0.03844 0,-0.05766 0.01855,0 0.03715,0 0.0557,0 0,0.01922 0,0.03844 0,0.05766 -0.01855,0 -0.03715,0 -0.0557,0 z"
     id="path302"
     inkscape:connector-curvature="0"
     style="clip-rule:evenodd;fill:#5a5a5a;fill-rule:evenodd;stroke-width:0.05667436" /><path
     d="m 12.199073,12.096897 c 0.01855,0 0.03715,0 0.0557,0 0,0.01922 0,0.03844 0,0.05766 -0.01114,-0.0075 -0.0464,0.0096 -0.0557,0 -0.0093,-0.0096 0.0075,-0.04613 0,-0.05766 z"
     id="path304"
     inkscape:connector-curvature="0"
     style="clip-rule:evenodd;fill:#5a5a5a;fill-rule:evenodd;stroke-width:0.05667436" /><path
     d="m 7.7987356,12.21223 c 0.00741,-0.01154 -0.0093,-0.04805 0,-0.05766 0.0093,-0.0096 0.04456,0.0075 0.055701,0 0,0.01922 0,0.03844 0,0.05766 -0.018604,0 -0.037152,0 -0.055701,0 z"
     id="path306"
     inkscape:connector-curvature="0"
     style="clip-rule:evenodd;fill:#5a5a5a;fill-rule:evenodd;stroke-width:0.05667436" /><path
     d="m 7.8544361,12.21223 c 0,-0.01922 0,-0.03844 0,-0.05766 0.018548,0 0.037152,0 0.0557,0 -0.00741,0.01154 0.0093,0.04805 0,0.05766 -0.0093,0.0096 -0.04456,-0.0075 -0.0557,0 z"
     id="path308"
     inkscape:connector-curvature="0"
     style="clip-rule:evenodd;fill:#5a5a5a;fill-rule:evenodd;stroke-width:0.05667436" /><path
     d="m 12.254774,12.327562 c 0,-0.01922 0,-0.03844 0,-0.05766 0.01114,0.0075 0.0464,-0.0096 0.0557,0 0.0093,0.0096 -0.0075,0.04613 0,0.05766 -0.01855,0 -0.03715,0 -0.0557,0 z"
     id="path310"
     inkscape:connector-curvature="0"
     style="clip-rule:evenodd;fill:#5a5a5a;fill-rule:evenodd;stroke-width:0.05667436" /><path
     d="m 12.254774,12.327562 c 0.01855,0 0.03715,0 0.0557,0 0,0.01922 0,0.03844 0,0.05766 -0.01855,0 -0.03715,0 -0.0557,0 0,-0.01922 0,-0.03844 0,-0.05766 z"
     id="path312"
     inkscape:connector-curvature="0"
     style="clip-rule:evenodd;fill:#5a5a5a;fill-rule:evenodd;stroke-width:0.05667436" /><path
     d="m 7.7430351,12.442887 c 0.00741,-0.01154 -0.0093,-0.04805 0,-0.05766 0.0093,-0.0096 0.04456,0.0075 0.0557,0 -0.00741,0.01154 0.0093,0.04805 0,0.05766 -0.0093,0.0096 -0.04456,-0.0075 -0.0557,0 z"
     id="path314"
     inkscape:connector-curvature="0"
     style="clip-rule:evenodd;fill:#5a5a5a;fill-rule:evenodd;stroke-width:0.05667436" /><path
     d="m 12.310474,12.500558 c 0,-0.01922 0,-0.03844 0,-0.05766 0.01114,0.0075 0.0464,-0.0096 0.0557,0 0.0093,0.0096 -0.0075,0.04613 0,0.05766 -0.01855,0 -0.03715,0 -0.0557,0 z"
     id="path316"
     inkscape:connector-curvature="0"
     style="clip-rule:evenodd;fill:#5a5a5a;fill-rule:evenodd;stroke-width:0.05667436" /><path
     d="m 12.310474,12.500558 c 0.01855,0 0.03715,0 0.0557,0 0,0.01922 0,0.03844 0,0.05766 -0.01114,-0.0075 -0.0464,0.0096 -0.0557,0 -0.0093,-0.0096 0.0075,-0.04613 0,-0.05766 z"
     id="path318"
     inkscape:connector-curvature="0"
     style="clip-rule:evenodd;fill:#5a5a5a;fill-rule:evenodd;stroke-width:0.05667436" /><path
     d="m 7.6316341,12.788886 c 0,-0.01922 0,-0.03844 0,-0.05766 0.018548,0 0.037152,0 0.0557,0 -0.00741,0.01154 0.0093,0.04805 0,0.05766 -0.0093,0.0096 -0.04456,-0.0075 -0.0557,0 z"
     id="path320"
     inkscape:connector-curvature="0"
     style="clip-rule:evenodd;fill:#5a5a5a;fill-rule:evenodd;stroke-width:0.05667436" /><path
     d="m 12.477576,12.90421 c 0,-0.01922 0,-0.03844 0,-0.05766 0.01855,0 0.03715,0 0.0557,0 0,0.01922 0,0.03844 0,0.05766 -0.01855,0 -0.03715,0 -0.0557,0 z"
     id="path322"
     inkscape:connector-curvature="0"
     style="clip-rule:evenodd;fill:#5a5a5a;fill-rule:evenodd;stroke-width:0.05667436" /><path
     d="m 12.477576,12.90421 c 0.01855,0 0.03715,0 0.0557,0 0,0.01922 0,0.03844 0,0.05766 -0.01855,0 -0.03715,0 -0.0557,0 0,-0.01922 0,-0.03844 0,-0.05766 z"
     id="path324"
     inkscape:connector-curvature="0"
     style="clip-rule:evenodd;fill:#5a5a5a;fill-rule:evenodd;stroke-width:0.05667436" /><path
     d="m 7.5759337,13.019544 c 0.00741,-0.01154 -0.0093,-0.04805 0,-0.05766 0.0093,-0.0096 0.04456,0.0075 0.0557,0 0,0.01922 0,0.03844 0,0.05766 -0.018604,0 -0.037152,0 -0.0557,0 z"
     id="path326"
     inkscape:connector-curvature="0"
     style="clip-rule:evenodd;fill:#5a5a5a;fill-rule:evenodd;stroke-width:0.05667436" /><path
     d="m 7.5759337,13.077205 c 0,-0.01922 0,-0.03844 0,-0.05766 0.018548,0 0.037152,0 0.0557,0 -0.00741,0.01154 0.0093,0.04805 0,0.05766 -0.0093,0.0096 -0.04456,-0.0075 -0.0557,0 z"
     id="path328"
     inkscape:connector-curvature="0"
     style="clip-rule:evenodd;fill:#5a5a5a;fill-rule:evenodd;stroke-width:0.05667436" /><path
     d="m 7.5759337,13.077205 c 0,0.03844 0,0.07688 0,0.115335 -0.018548,0 -0.037152,0 -0.055701,0 0,-0.01922 0,-0.03844 0,-0.05766 0,-0.0084 -0.0049,-0.05256 0,-0.05766 0.00925,-0.0096 0.04456,0.0075 0.055701,0 z"
     id="path330"
     inkscape:connector-curvature="0"
     style="clip-rule:evenodd;fill:#5a5a5a;fill-rule:evenodd;stroke-width:0.05667436" /><path
     d="m 12.533276,13.134876 c 0,-0.01922 0,-0.03844 0,-0.05766 0.01114,0.0075 0.0464,-0.0096 0.0557,0 0.0093,0.0096 -0.0075,0.04613 0,0.05766 -0.01855,0 -0.03715,0 -0.0557,0 z"
     id="path332"
     inkscape:connector-curvature="0"
     style="clip-rule:evenodd;fill:#5a5a5a;fill-rule:evenodd;stroke-width:0.05667436" /><path
     d="m 14.204291,13.134876 c 0,-0.01922 0,-0.03844 0,-0.05766 0.01114,0.0075 0.0464,-0.0096 0.0557,0 0.0093,0.0096 -0.0075,0.04613 0,0.05766 -0.01855,0 -0.03715,0 -0.0557,0 z"
     id="path334"
     inkscape:connector-curvature="0"
     style="clip-rule:evenodd;fill:#5a5a5a;fill-rule:evenodd;stroke-width:0.05667436" /><path
     d="m 23.004967,13.134876 c 0.0075,-0.01154 -0.0093,-0.04805 0,-0.05766 0.0093,-0.0096 0.04456,0.0075 0.0557,0 0,0.01922 0,0.03844 0,0.05766 -0.01855,0 -0.03715,0 -0.0557,0 z"
     id="path336"
     inkscape:connector-curvature="0"
     style="clip-rule:evenodd;fill:#5a5a5a;fill-rule:evenodd;stroke-width:0.05667436" /><path
     d="m 12.533276,13.192539 c 0,-0.01922 0,-0.03844 0,-0.05766 0.01855,0 0.03715,0 0.0557,0 0,0.01922 0,0.03844 0,0.05766 -0.01855,0 -0.03715,0 -0.0557,0 z"
     id="path338"
     inkscape:connector-curvature="0"
     style="clip-rule:evenodd;fill:#5a5a5a;fill-rule:evenodd;stroke-width:0.05667436" /><path
     d="m 14.204291,13.134876 c 0.01855,0 0.03715,0 0.0557,0 0,0.01922 0,0.03844 0,0.05766 -0.01114,-0.0075 -0.0464,0.0096 -0.0557,0 -0.0093,-0.0096 0.0075,-0.04613 0,-0.05766 z"
     id="path340"
     inkscape:connector-curvature="0"
     style="clip-rule:evenodd;fill:#5a5a5a;fill-rule:evenodd;stroke-width:0.05667436" /><path
     d="m 23.004967,13.192539 c 0,-0.01922 0,-0.03844 0,-0.05766 0.01855,0 0.03715,0 0.0557,0 0,0.01922 0,0.03844 0,0.05766 -0.01855,0 -0.03715,0 -0.0557,0 z"
     id="path342"
     inkscape:connector-curvature="0"
     style="clip-rule:evenodd;fill:#5a5a5a;fill-rule:evenodd;stroke-width:0.05667436" /><path
     d="m 7.5202332,13.192539 c 0.018548,0 0.037152,0 0.055701,0 0,0.01922 0,0.03844 0,0.05766 -0.01114,-0.0075 -0.046399,0.0096 -0.055701,0 -0.0093,-0.0096 0.00741,-0.04613 0,-0.05766 z"
     id="path344"
     inkscape:connector-curvature="0"
     style="clip-rule:evenodd;fill:#5a5a5a;fill-rule:evenodd;stroke-width:0.05667436" /><path
     d="m 12.477576,13.250209 c 0.0075,-0.01154 -0.0093,-0.04805 0,-0.05766 0.0093,-0.0096 0.04456,0.0075 0.0557,0 0,0.01922 0,0.03844 0,0.05766 -0.01855,0 -0.03715,0 -0.0557,0 z"
     id="path346"
     inkscape:connector-curvature="0"
     style="clip-rule:evenodd;fill:#5a5a5a;fill-rule:evenodd;stroke-width:0.05667436" /><path
     d="m 12.533276,13.250209 c 0,-0.01922 0,-0.03844 0,-0.05766 0.01855,0 0.03715,0 0.0557,0 0,0.01922 0,0.03844 0,0.05766 -0.01855,0 -0.03715,0 -0.0557,0 z"
     id="path348"
     inkscape:connector-curvature="0"
     style="clip-rule:evenodd;fill:#5a5a5a;fill-rule:evenodd;stroke-width:0.05667436" /><path
     d="m 0.05636889,13.250209 c 0.01114009,0.0075 0.0463985,-0.0096 0.05570048,0 0.009302,0.0096 -0.007408,0.04613 0,0.05766 -0.01854826,0 -0.03715222,0 -0.05570048,0 0,-0.01922 0,-0.03844 0,-0.05766 z"
     id="path350"
     inkscape:connector-curvature="0"
     style="clip-rule:evenodd;fill:#5a5a5a;fill-rule:evenodd;stroke-width:0.05667436" /><path
     d="m 12.477576,13.307872 c 0,-0.01922 0,-0.03844 0,-0.05766 0.01855,0 0.03715,0 0.0557,0 -0.0075,0.01154 0.0093,0.04805 0,0.05766 -0.0093,0.0096 -0.04456,-0.0075 -0.0557,0 z"
     id="path352"
     inkscape:connector-curvature="0"
     style="clip-rule:evenodd;fill:#5a5a5a;fill-rule:evenodd;stroke-width:0.05667436" /><path
     d="m 14.259991,13.250209 c 0.01855,0 0.03715,0 0.0557,0 0,0.01922 0,0.03844 0,0.05766 -0.01114,-0.0075 -0.0464,0.0096 -0.0557,0 -0.0093,-0.0096 0.0075,-0.04613 0,-0.05766 z"
     id="path354"
     inkscape:connector-curvature="0"
     style="clip-rule:evenodd;fill:#5a5a5a;fill-rule:evenodd;stroke-width:0.05667436" /><path
     d="m 22.949266,13.307872 c 0.0075,-0.01154 -0.0093,-0.04805 0,-0.05766 0.0093,-0.0096 0.04456,0.0075 0.0557,0 -0.0075,0.01154 0.0093,0.04805 0,0.05766 -0.0093,0.0096 -0.04456,-0.0075 -0.0557,0 z"
     id="path356"
     inkscape:connector-curvature="0"
     style="clip-rule:evenodd;fill:#5a5a5a;fill-rule:evenodd;stroke-width:0.05667436" /><path
     d="m 7.5759337,13.307872 c 0.01114,0.0075 0.046398,-0.0096 0.0557,0 0.0093,0.0096 -0.00741,0.04613 0,0.05766 -0.01114,-0.0075 -0.046399,0.0096 -0.0557,0 -0.0093,-0.0096 0.00741,-0.04613 0,-0.05766 z"
     id="path358"
     inkscape:connector-curvature="0"
     style="clip-rule:evenodd;fill:#5a5a5a;fill-rule:evenodd;stroke-width:0.05667436" /><path
     d="m 12.421875,13.365533 c 0.0075,-0.01154 -0.0093,-0.04805 0,-0.05766 0.0093,-0.0096 0.04456,0.0075 0.0557,0 -0.0075,0.01154 0.0093,0.04805 0,0.05766 -0.0093,0.0096 -0.04456,-0.0075 -0.0557,0 z"
     id="path360"
     inkscape:connector-curvature="0"
     style="clip-rule:evenodd;fill:#5a5a5a;fill-rule:evenodd;stroke-width:0.05667436" /><path
     d="m 14.315692,13.307872 c 0.01114,0.0075 0.0464,-0.0096 0.0557,0 0.0093,0.0096 -0.0075,0.04613 0,0.05766 -0.01114,-0.0075 -0.0464,0.0096 -0.0557,0 -0.0093,-0.0096 0.0075,-0.04613 0,-0.05766 z"
     id="path362"
     inkscape:connector-curvature="0"
     style="clip-rule:evenodd;fill:#5a5a5a;fill-rule:evenodd;stroke-width:0.05667436" /><path
     d="m 22.893566,13.365533 c 0.0075,-0.01154 -0.0093,-0.04805 0,-0.05766 0.0093,-0.0096 0.04456,0.0075 0.0557,0 -0.0075,0.01154 0.0093,0.04805 0,0.05766 -0.0093,0.0096 -0.04456,-0.0075 -0.0557,0 z"
     id="path364"
     inkscape:connector-curvature="0"
     style="clip-rule:evenodd;fill:#5a5a5a;fill-rule:evenodd;stroke-width:0.05667436" /><path
     d="m 12.366175,13.423204 c 0,-0.01922 0,-0.03844 0,-0.05766 0.01855,0 0.03715,0 0.0557,0 -0.0075,0.01154 0.0093,0.04805 0,0.05766 -0.0093,0.0096 -0.04456,-0.0075 -0.0557,0 z"
     id="path366"
     inkscape:connector-curvature="0"
     style="clip-rule:evenodd;fill:#5a5a5a;fill-rule:evenodd;stroke-width:0.05667436" /><path
     d="m 14.371392,13.365533 c 0.01114,0.0075 0.0464,-0.0096 0.0557,0 0.0093,0.0096 -0.0075,0.04613 0,0.05766 -0.01855,0 -0.03715,0 -0.0557,0 0,-0.01922 0,-0.03844 0,-0.05766 z"
     id="path368"
     inkscape:connector-curvature="0"
     style="clip-rule:evenodd;fill:#5a5a5a;fill-rule:evenodd;stroke-width:0.05667436" /><path
     d="m 22.837865,13.423204 c 0,-0.01922 0,-0.03844 0,-0.05766 0.01855,0 0.03715,0 0.0557,0 -0.0075,0.01154 0.0093,0.04805 0,0.05766 -0.0093,0.0096 -0.04456,-0.0075 -0.0557,0 z"
     id="path370"
     inkscape:connector-curvature="0"
     style="clip-rule:evenodd;fill:#5a5a5a;fill-rule:evenodd;stroke-width:0.05667436" /><path
     d="m 7.6316341,13.480867 c 0,-0.01922 0,-0.03844 0,-0.05766 0.018548,0 0.037152,0 0.0557,0 0,0.01922 0,0.03844 0,0.05766 -0.018604,0 -0.037152,0 -0.0557,0 z"
     id="path372"
     inkscape:connector-curvature="0"
     style="clip-rule:evenodd;fill:#5a5a5a;fill-rule:evenodd;stroke-width:0.05667436" /><path
     d="m 7.6873346,13.480867 c 0,-0.01922 0,-0.03844 0,-0.05766 0.2970507,0 0.594157,0 0.8912077,0 0.1485532,0 0.2970507,0 0.4456038,0 0.1671015,0 0.3342029,0 0.5013043,0 0.1485532,0 0.2970507,0 0.4456039,0 0.1671017,0 0.3342027,0 0.5013047,0 0.315654,0 0.631253,0 0.946908,0 0,0.01922 0,0.03844 0,0.05766 -0.315655,0 -0.631254,0 -0.946908,0 -0.167102,0 -0.334203,0 -0.5013047,0 -0.1485532,0 -0.2970507,0 -0.4456039,0 -0.1671014,0 -0.3342028,0 -0.5013043,0 -0.1485531,0 -0.2970506,0 -0.4456038,0 -0.2971064,0 -0.594157,0 -0.8912077,0 z"
     id="path374"
     inkscape:connector-curvature="0"
     style="clip-rule:evenodd;fill:#5a5a5a;fill-rule:evenodd;stroke-width:0.05667436" /><path
     d="m 11.419267,13.480867 c 0,-0.01922 0,-0.03844 0,-0.05766 0.07425,0 0.148553,0 0.222802,0 0,0.01922 0,0.03844 0,0.05766 -0.07425,0 -0.148553,0 -0.222802,0 z"
     id="path376"
     inkscape:connector-curvature="0"
     style="clip-rule:evenodd;fill:#5a5a5a;fill-rule:evenodd;stroke-width:0.05667436" /><path
     d="m 11.642069,13.480867 c 0,-0.01922 0,-0.03844 0,-0.05766 0.01855,0 0.03715,0 0.0557,0 0.0077,0 0.0508,-0.005 0.0557,0 0.0093,0.0096 -0.0075,0.04613 0,0.05766 -0.03715,0 -0.07425,0 -0.111401,0 z"
     id="path378"
     inkscape:connector-curvature="0"
     style="clip-rule:evenodd;fill:#5a5a5a;fill-rule:evenodd;stroke-width:0.05667436" /><path
     d="m 12.087673,13.480867 c 0.0075,-0.01154 -0.0093,-0.04805 0,-0.05766 0.0093,-0.0096 0.04456,0.0075 0.0557,0 0,0.01922 0,0.03844 0,0.05766 -0.01855,0 -0.03715,0 -0.0557,0 z"
     id="path380"
     inkscape:connector-curvature="0"
     style="clip-rule:evenodd;fill:#5a5a5a;fill-rule:evenodd;stroke-width:0.05667436" /><path
     d="m 12.143373,13.480867 c 0,-0.01922 0,-0.03844 0,-0.05766 0.01855,0 0.03715,0 0.0557,0 0,0.01922 0,0.03844 0,0.05766 -0.01855,0 -0.03715,0 -0.0557,0 z"
     id="path382"
     inkscape:connector-curvature="0"
     style="clip-rule:evenodd;fill:#5a5a5a;fill-rule:evenodd;stroke-width:0.05667436" /><path
     d="m 12.199073,13.480867 c 0,-0.01922 0,-0.03844 0,-0.05766 0.01855,0 0.03715,0 0.0557,0 0,0.01922 0,0.03844 0,0.05766 -0.01855,0 -0.03715,0 -0.0557,0 z"
     id="path384"
     inkscape:connector-curvature="0"
     style="clip-rule:evenodd;fill:#5a5a5a;fill-rule:evenodd;stroke-width:0.05667436" /><path
     d="m 14.482793,13.480867 c 0,-0.01922 0,-0.03844 0,-0.05766 0.01855,0 0.03715,0 0.0557,0 0,0.01922 0,0.03844 0,0.05766 -0.01855,0 -0.03715,0 -0.0557,0 z"
     id="path386"
     inkscape:connector-curvature="0"
     style="clip-rule:evenodd;fill:#5a5a5a;fill-rule:evenodd;stroke-width:0.05667436" /><path
     d="m 14.538494,13.480867 c 0,-0.01922 0,-0.03844 0,-0.05766 0.01114,0.0075 0.0464,-0.0096 0.0557,0 0.0093,0.0096 -0.0075,0.04613 0,0.05766 -0.01855,0 -0.03715,0 -0.0557,0 z"
     id="path388"
     inkscape:connector-curvature="0"
     style="clip-rule:evenodd;fill:#5a5a5a;fill-rule:evenodd;stroke-width:0.05667436" /><path
     d="m 22.670764,13.480867 c 0.0075,-0.01154 -0.0093,-0.04805 0,-0.05766 0.0093,-0.0096 0.04456,0.0075 0.0557,0 0,0.01922 0,0.03844 0,0.05766 -0.01855,0 -0.03715,0 -0.0557,0 z"
     id="path390"
     inkscape:connector-curvature="0"
     style="clip-rule:evenodd;fill:#5a5a5a;fill-rule:evenodd;stroke-width:0.05667436" /><path
     d="m 22.726464,13.480867 c 0,-0.01922 0,-0.03844 0,-0.05766 0.01855,0 0.03715,0 0.0557,0 0,0.01922 0,0.03844 0,0.05766 -0.01855,0 -0.03715,0 -0.0557,0 z"
     id="path392"
     inkscape:connector-curvature="0"
     style="clip-rule:evenodd;fill:#5a5a5a;fill-rule:evenodd;stroke-width:0.05667436" /><path
     d="m 12.366175,12.615891 c 0.01855,0 0.03715,0 0.0557,0 0.0075,0.01154 -0.0093,0.04805 0,0.05766 0.0078,0.0084 0.0498,-0.0092 0.0557,0 0.0086,0.01329 -0.0069,0.04321 0,0.05766 -0.01855,0 -0.03715,0 -0.0557,0 -0.0075,-0.01154 0.0093,-0.04805 0,-0.05766 -0.0078,-0.0084 -0.0498,0.0092 -0.0557,0 -0.0086,-0.01329 0.0069,-0.04321 0,-0.05766 z"
     id="path394"
     inkscape:connector-curvature="0"
     style="clip-rule:evenodd;fill:#5a5a5a;fill-rule:evenodd;stroke-width:0.05667436" /><path
     d="m 11.864871,11.001263 c 0.01855,0 0.03715,0 0.0557,0 0.0075,0.01154 -0.0093,0.04805 0,0.05766 0.0078,0.0084 0.0498,-0.0092 0.0557,0 0.0086,0.01329 -0.0069,0.04321 0,0.05766 -0.01855,0 -0.03715,0 -0.0557,0 -0.0075,-0.01154 0.0093,-0.04805 0,-0.05766 -0.0093,-0.0096 -0.04456,0.0075 -0.0557,0 0,-0.01922 0,-0.03844 0,-0.05766 z"
     id="path396"
     inkscape:connector-curvature="0"
     style="clip-rule:evenodd;fill:#5a5a5a;fill-rule:evenodd;stroke-width:0.05667436" /><path
     d="m 7.6316341,12.731216 c 0,-0.01922 0,-0.03844 0,-0.05766 0.01114,-0.0075 0.046398,0.0096 0.0557,0 0.0078,-0.0084 -0.00891,-0.05156 0,-0.05766 0.012867,-0.0089 0.04172,0.0067 0.055701,0 0,0.01922 0,0.03844 0,0.05766 -0.01114,0.0075 -0.046399,-0.0096 -0.055701,0 -0.0093,0.0096 0.00741,0.04613 0,0.05766 -0.018604,0 -0.037152,0 -0.0557,0 z"
     id="path398"
     inkscape:connector-curvature="0"
     style="clip-rule:evenodd;fill:#5a5a5a;fill-rule:evenodd;stroke-width:0.05667436" /><path
     d="m 19.105933,-2.2104848 c -0.0093,-0.00987 0.0074,-0.047382 0,-0.05925 v -0.1778334 c -0.01114,-0.00753 -0.0464,0.00987 -0.0557,0 -0.0093,-0.00987 0.0074,-0.047383 0,-0.05925 v -0.118559 h -0.0557 v -0.05925 c -0.01114,-0.00753 -0.0464,0.00987 -0.0557,0 -0.0093,-0.00987 0.0074,-0.047384 0,-0.05925 -0.01114,-0.00753 -0.0464,0.00987 -0.0557,0 -0.0093,-0.00987 0.0074,-0.047383 0,-0.05925 -0.0074,-0.011865 0.0093,-0.049388 0,-0.05925 -0.0093,-0.00987 -0.04456,0.00753 -0.0557,0 h -0.0557 v -0.059333 c -0.01114,-0.00753 -0.0464,0.00987 -0.0557,0 -0.0093,-0.00987 0.0074,-0.047383 0,-0.05925 h -0.0557 c -0.01114,-0.00753 -0.0464,0.00987 -0.0557,0 -0.0093,-0.00987 0.0074,-0.047383 0,-0.05925 h -0.167102 c -0.01114,-0.00753 -0.0464,0.00987 -0.0557,0 -0.0093,-0.00987 0.0074,-0.047384 0,-0.05925 H 1.7830838 c -6.684e-4,8.093e-4 -6.684e-4,0.00251 -10e-4,0.00417 -7.799e-4,0 -0.0015,-1.157e-4 -0.00234,-1.157e-4 l 0.00334,-0.00334 c -0.4310104,0 -0.7798068,0.3977183 -0.7798068,0.8892598 l 0.00167,-0.00167 c 0,3.469e-4 1.114e-4,6.936e-4 1.671e-4,8.093e-4 -5.57e-5,3.467e-4 -1.114e-4,4.624e-4 -1.114e-4,8.092e-4 h -0.00167 V 7.8690459 H 2.1730428 V -1.8538087 H 17.991979 v 4.8021235 h 1.16971 v -5.1578655 c -0.0112,-0.00753 -0.04645,0.00994 -0.05576,0 z"
     id="path400"
     inkscape:connector-curvature="0"
     style="clip-rule:evenodd;fill:#5a5a5a;fill-rule:evenodd;stroke-width:0.05667436" /><path
     d="m 3.3426972,13.108811 v -2.423554 c 9.469e-4,-5.8e-5 0.00189,-2.31e-4 0.0029,-3.47e-4 v 0.0033 H 14.204291 V 9.412052 H 3.3455379 v 0.00167 c -10e-4,0 -0.00189,4.624e-4 -0.0029,4.624e-4 V 8.0606127 C 3.3426379,7.8693991 3.1931378,7.714622 3.008435,7.714622 H 0.30579563 c -2.228e-4,0 -3.342e-4,-1.157e-4 -5.57e-4,-1.157e-4 -2.228e-4,0 -3.342e-4,1.157e-4 -5.5701e-4,1.157e-4 H 0.2791708 L 0.2256426,7.770028 C 0.2199616,7.7708372 0.214224,7.771698 0.2096009,7.774198 0.1946175,7.772528 0.1745096,7.765588 0.1677698,7.772528 c -0.009302,0.00961 0.007408,0.046129 0,0.057661 -0.0111401,0.00753 -0.0463985,-0.00961 -0.0557005,0 -0.006071,0.00669 -0.001225,0.023985 8.912e-4,0.038776 -0.002841,0.00585 -0.004679,0.012203 -0.00557,0.018887 H 0.05636889 V 7.945513 L 6.684058e-4,8.003183 v 5.106722 c -8.9120768e-4,0.0067 -8.9120768e-4,0.01237 0,0.01872 v 0.0067 c 2.785024e-4,1.16e-4 7.798042e-4,2.32e-4 0.001169714,3.47e-4 8.912e-4,0.0033 0.00311922,0.0067 0.00451173,0.0097 1.1141e-4,0.0099 0.00311923,0.01939 0.00751957,0.02808 0.01994077,0.174549 0.18470279,0.310874 0.38678413,0.310874 v -0.0033 H 2.9528495 c 8.355e-4,-8.09e-4 5.57e-4,-0.0033 7.798e-4,-0.0059 0.00267,-5.8e-5 0.00462,-8.09e-4 0.00702,-0.0017 l -0.00785,0.0067 c 0.018938,0 0.037431,-0.0017 0.055701,-0.0042 v 0.0042 l 0.00434,-0.0042 M 3.3426972,13.1412 M 0.94757656,8.233107 H 2.3400886 V 8.348431 H 0.94757656 Z M 1.8944847,12.78866 v 0.28832 c -0.01114,0.0075 -0.046399,-0.0096 -0.0557,0 -0.0078,0.0084 0.00891,0.05156 0,0.05766 -0.012867,0.0089 -0.04172,-0.0067 -0.0557,0 H 1.5045814 c -0.00741,-0.01154 0.0093,-0.04805 0,-0.05766 -0.0078,-0.0084 -0.049796,0.0092 -0.0557,0 -0.00858,-0.01329 0.00685,-0.04321 0,-0.05766 v -0.23066 c 0.00741,-0.01154 -0.0093,-0.04805 0,-0.05766 0.00384,-0.0042 0.012198,-0.0033 0.021389,-0.0017 l -0.021389,0.0017 h 0.031471 c 0.00986,0.0017 0.019384,0.0033 0.02423,0 0.00741,-0.01154 -0.0093,-0.04805 0,-0.05766 0.0093,-0.0096 0.04456,0.0075 0.0557,0 h 0.222802 c 0.01114,0.0075 0.046399,-0.0096 0.0557,0 0.0093,0.0096 -0.00741,0.04613 0,0.05766 0.01114,0.0075 0.046399,-0.0096 0.0557,0 0.0093,0.0096 -0.00746,0.04613 3e-7,0.05766 z M 3.0641948,12.442671 H 0.2791708 V 8.7520919 h 2.785024 z"
     id="path402"
     inkscape:connector-curvature="0"
     style="clip-rule:evenodd;fill:#5a5a5a;fill-rule:evenodd;stroke-width:0.05667436" /><path
     d="m 3.0084943,13.476947 c 0.1847028,0 0.3342029,-0.164638 0.3342029,-0.368136"
     id="path404"
     inkscape:connector-curvature="0"
     style="clip-rule:evenodd;fill:#5a5a5a;fill-rule:evenodd;stroke-width:0.05667436" /><polyline
     points="214.5,244.25 226.785,282.806 225.762,284.835   223.714,285.85 221.613,287.371 219.619,287.879 135.672,287.879 133.385,284.354 133.624,281.791 133.624,280.776 145.909,244.25   213.988,244.251 "
     id="polyline406"
     transform="matrix(0.05570048,0,0,0.05766524,0,-3.0997377)"
     style="clip-rule:evenodd;fill:#5a5a5a;fill-rule:evenodd" /><path
     d="m 18.378485,-3.0978903 0.0052,0.00585 c -0.0023,-3.469e-4 -0.0039,-0.00167 -0.0064,-0.00167 -0.06339,0 -0.07068,0.089436 -0.02228,0.1106026 0.0082,0.00585 0.01788,0.01045 0.03064,0.01045 0.03537,0 0.05308,-0.027912 0.05369,-0.056326 l 0.647741,0.7387462 c -0.03437,0.00251 -0.05063,0.032173 -0.04879,0.061089 -0.0011,0.016881 0.0046,0.033678 0.01576,0.045712 0.0083,0.01571 0.02306,0.027745 0.04573,0.027745 0.03643,0 0.05425,-0.029667 0.05369,-0.058832 l 0.0048,0.00585 c 2.5e-5,-0.4913992 -0.348771,-0.8891767 -0.779781,-0.8892021 z"
     id="path408"
     inkscape:connector-curvature="0"
     style="clip-rule:evenodd;fill:#5a5a5a;fill-rule:evenodd;stroke-width:0.05667436" /><xhtml:style
     charset="utf-8"
     type="text/css"
     class="firebugResetStyles">/* See license.txt for terms of usage */
/** reset styling **/
.firebugResetStyles {
    z-index: 2147483646 !important;
    top: 0 !important;
    left: 0 !important;
    display: block !important;
    border: 0 none !important;
    margin: 0 !important;
    padding: 0 !important;
    outline: 0 !important;
    min-width: 0 !important;
    max-width: none !important;
    min-height: 0 !important;
    max-height: none !important;
    position: fixed !important;
    transform: rotate(0deg) !important;
    transform-origin: 50% 50% !important;
    border-radius: 0 !important;
    box-shadow: none !important;
    background: transparent none !important;
    pointer-events: none !important;
    white-space: normal !important;
}
style.firebugResetStyles {
    display: none !important;
}

.firebugBlockBackgroundColor {
    background-color: transparent !important;
}

.firebugResetStyles:before, .firebugResetStyles:after {
    content: &quot;&quot; !important;
}
/**actual styling to be modified by firebug theme**/
.firebugCanvas {
    display: none !important;
}

/* * * * * * * * * * * * * * * * * * * * * * * * * * * * * * * * * * * * * * * * * * * * * * * * */
.firebugLayoutBox {
    width: auto !important;
    position: static !important;
}

.firebugLayoutBoxOffset {
    opacity: 0.8 !important;
    position: fixed !important;
}

.firebugLayoutLine {
    opacity: 0.4 !important;
    background-color: #000000 !important;
}

.firebugLayoutLineLeft, .firebugLayoutLineRight {
    width: 1px !important;
    height: 100% !important;
}

.firebugLayoutLineTop, .firebugLayoutLineBottom {
    width: 100% !important;
    height: 1px !important;
}

.firebugLayoutLineTop {
    margin-top: -1px !important;
    border-top: 1px solid #999999 !important;
}

.firebugLayoutLineRight {
    border-right: 1px solid #999999 !important;
}

.firebugLayoutLineBottom {
    border-bottom: 1px solid #999999 !important;
}

.firebugLayoutLineLeft {
    margin-left: -1px !important;
    border-left: 1px solid #999999 !important;
}

/* * * * * * * * * * * * * * * * * * * * * * * * * * * * * * * * * * * * * * * * * * * * * * * * */
.firebugLayoutBoxParent {
    border-top: 0 none !important;
    border-right: 1px dashed #E00 !important;
    border-bottom: 1px dashed #E00 !important;
    border-left: 0 none !important;
    position: fixed !important;
    width: auto !important;
}

.firebugRuler{
    position: absolute !important;
}

.firebugRulerH {
    top: -15px !important;
    left: 0 !important;
    width: 100% !important;
    height: 14px !important;
    background: url(&quot;data:image/png,%89PNG%0D%0A%1A%0A%00%00%00%0DIHDR%00%00%13%88%00%00%00%0E%08%02%00%00%00L%25a%0A%00%00%00%04gAMA%00%00%D6%D8%D4OX2%00%00%00%19tEXtSoftware%00Adobe%20ImageReadyq%C9e%3C%00%00%04%F8IDATx%DA%EC%DD%D1n%E2%3A%00E%D1%80%F8%FF%EF%E2%AF2%95%D0D4%0E%C1%14%B0%8Fa-%E9%3E%CC%9C%87n%B9%81%A6W0%1C%A6i%9A%E7y%0As8%1CT%A9R%A5J%95*U%AAT%A9R%A5J%95*U%AAT%A9R%A5J%95*U%AAT%A9R%A5J%95*U%AAT%A9R%A5J%95*U%AAT%A9R%A5J%95*U%AAT%A9R%A5J%95*U%AATE9%FE%FCw%3E%9F%AF%2B%2F%BA%97%FDT%1D~K(%5C%9D%D5%EA%1B%5C%86%B5%A9%BDU%B5y%80%ED%AB*%03%FAV9%AB%E1%CEj%E7%82%EF%FB%18%BC%AEJ8%AB%FA'%D2%BEU9%D7U%ECc0%E1%A2r%5DynwVi%CFW%7F%BB%17%7Dy%EACU%CD%0E%F0%FA%3BX%FEbV%FEM%9B%2B%AD%BE%AA%E5%95v%AB%AA%E3E5%DCu%15rV9%07%B5%7F%B5w%FCm%BA%BE%AA%FBY%3D%14%F0%EE%C7%60%0EU%AAT%A9R%A5J%95*U%AAT%A9R%A5J%95*U%AAT%A9R%A5J%95*U%AAT%A9R%A5J%95*U%AAT%A9R%A5JU%88%D3%F5%1F%AE%DF%3B%1B%F2%3E%DAUCNa%F92%D02%AC%7Dm%F9%3A%D4%F2%8B6%AE*%BF%5C%C2Ym~9g5%D0Y%95%17%7C%C8c%B0%7C%18%26%9CU%CD%13i%F7%AA%90%B3Z%7D%95%B4%C7%60%E6E%B5%BC%05%B4%FBY%95U%9E%DB%FD%1C%FC%E0%9F%83%7F%BE%17%7DkjMU%E3%03%AC%7CWj%DF%83%9An%BCG%AE%F1%95%96yQ%0Dq%5Dy%00%3Et%B5'%FC6%5DS%95pV%95%01%81%FF'%07%00%00%00%00%00%00%00%00%00%F8x%C7%F0%BE%9COp%5D%C9%7C%AD%E7%E6%EBV%FB%1E%E0(%07%E5%AC%C6%3A%ABi%9C%8F%C6%0E9%AB%C0'%D2%8E%9F%F99%D0E%B5%99%14%F5%0D%CD%7F%24%C6%DEH%B8%E9rV%DFs%DB%D0%F7%00k%FE%1D%84%84%83J%B8%E3%BA%FB%EF%20%84%1C%D7%AD%B0%8E%D7U%C8Y%05%1E%D4t%EF%AD%95Q%BF8w%BF%E9%0A%BF%EB%03%00%00%00%00%00%00%00%00%00%B8vJ%8E%BB%F5%B1u%8Cx%80%E1o%5E%CA9%AB%CB%CB%8E%03%DF%1D%B7T%25%9C%D5(%EFJM8%AB%CC'%D2%B2*%A4s%E7c6%FB%3E%FA%A2%1E%80~%0E%3E%DA%10x%5D%95Uig%15u%15%ED%7C%14%B6%87%A1%3B%FCo8%A8%D8o%D3%ADO%01%EDx%83%1A~%1B%9FpP%A3%DC%C6'%9C%95gK%00%00%00%00%00%00%00%00%00%20%D9%C9%11%D0%C0%40%AF%3F%EE%EE%92%94%D6%16X%B5%BCMH%15%2F%BF%D4%A7%C87%F1%8E%F2%81%AE%AAvzr%DA2%ABV%17%7C%E63%83%E7I%DC%C6%0Bs%1B%EF6%1E%00%00%00%00%00%00%00%00%00%80cr%9CW%FF%7F%C6%01%0E%F1%CE%A5%84%B3%CA%BC%E0%CB%AA%84%CE%F9%BF)%EC%13%08WU%AE%AB%B1%AE%2BO%EC%8E%CBYe%FE%8CN%ABr%5Dy%60~%CFA%0D%F4%AE%D4%BE%C75%CA%EDVB%EA(%B7%F1%09g%E5%D9%12%00%00%00%00%00%00%00%00%00H%F6%EB%13S%E7y%5E%5E%FB%98%F0%22%D1%B2'%A7%F0%92%B1%BC%24z3%AC%7Dm%60%D5%92%B4%7CEUO%5E%F0%AA*%3BU%B9%AE%3E%A0j%94%07%A0%C7%A0%AB%FD%B5%3F%A0%F7%03T%3Dy%D7%F7%D6%D4%C0%AAU%D2%E6%DFt%3F%A8%CC%AA%F2%86%B9%D7%F5%1F%18%E6%01%F8%CC%D5%9E%F0%F3z%88%AA%90%EF%20%00%00%00%00%00%00%00%00%00%C0%A6%D3%EA%CFi%AFb%2C%7BB%0A%2B%C3%1A%D7%06V%D5%07%A8r%5D%3D%D9%A6%CAu%F5%25%CF%A2%99%97zNX%60%95%AB%5DUZ%D5%FBR%03%AB%1C%D4k%9F%3F%BB%5C%FF%81a%AE%AB'%7F%F3%EA%FE%F3z%94%AA%D8%DF%5B%01%00%00%00%00%00%00%00%00%00%8E%FB%F3%F2%B1%1B%8DWU%AAT%A9R%A5J%95*U%AAT%A9R%A5J%95*U%AAT%A9R%A5J%95*U%AAT%A9R%A5J%95*U%AAT%A9R%A5J%95*U%AAT%A9R%A5J%95*U%AAT%A9R%A5J%95*UiU%C7%BBe%E7%F3%B9%CB%AAJ%95*U%AAT%A9R%A5J%95*U%AAT%A9R%A5J%95*U%AAT%A9R%A5J%95*U%AAT%A9R%A5J%95*U%AAT%A9R%A5J%95*U%AAT%A9R%A5J%95*U%AAT%A9R%A5*%AAj%FD%C6%D4%5Eo%90%B5Z%ADV%AB%D5j%B5Z%ADV%AB%D5j%B5Z%ADV%AB%D5j%B5Z%ADV%AB%D5j%B5Z%ADV%AB%D5j%B5Z%ADV%AB%D5j%B5Z%ADV%AB%D5j%B5%86%AF%1B%9F%98%DA%EBm%BBV%AB%D5j%B5Z%ADV%AB%D5j%B5Z%ADV%AB%D5j%B5Z%ADV%AB%D5j%B5Z%ADV%AB%D5j%B5Z%ADV%AB%D5j%B5Z%ADV%AB%D5j%B5Z%AD%D6%E4%F58%01%00%00%00%00%00%00%00%00%00%00%00%00%00%40%85%7F%02%0C%008%C2%D0H%16j%8FX%00%00%00%00IEND%AEB%60%82&quot;) repeat-x !important;
    border-top: 1px solid #BBBBBB !important;
    border-right: 1px dashed #BBBBBB !important;
    border-bottom: 1px solid #000000 !important;
}

.firebugRulerV {
    top: 0 !important;
    left: -15px !important;
    width: 14px !important;
    height: 100% !important;
    background: url(&quot;data:image/png,%89PNG%0D%0A%1A%0A%00%00%00%0DIHDR%00%00%00%0E%00%00%13%88%08%02%00%00%00%0E%F5%CB%10%00%00%00%04gAMA%00%00%D6%D8%D4OX2%00%00%00%19tEXtSoftware%00Adobe%20ImageReadyq%C9e%3C%00%00%06~IDATx%DA%EC%DD%D1v%A20%14%40Qt%F1%FF%FF%E4%97%D9%07%3BT%19%92%DC%40(%90%EEy%9A5%CB%B6%E8%F6%9Ac%A4%CC0%84%FF%DC%9E%CF%E7%E3%F1%88%DE4%F8%5D%C7%9F%2F%BA%DD%5E%7FI%7D%F18%DDn%BA%C5%FB%DF%97%BFk%F2%10%FF%FD%B4%F2M%A7%FB%FD%FD%B3%22%07p%8F%3F%AE%E3%F4S%8A%8F%40%EEq%9D%BE8D%F0%0EY%A1Uq%B7%EA%1F%81%88V%E8X%3F%B4%CEy%B7h%D1%A2E%EBohU%FC%D9%AF2fO%8BBeD%BE%F7X%0C%97%A4%D6b7%2Ck%A5%12%E3%9B%60v%B7r%C7%1AI%8C%BD%2B%23r%00c0%B2v%9B%AD%CA%26%0C%1Ek%05A%FD%93%D0%2B%A1u%8B%16-%95q%5Ce%DCSO%8E%E4M%23%8B%F7%C2%FE%40%BB%BD%8C%FC%8A%B5V%EBu%40%F9%3B%A72%FA%AE%8C%D4%01%CC%B5%DA%13%9CB%AB%E2I%18%24%B0n%A9%0CZ*Ce%9C%A22%8E%D8NJ%1E%EB%FF%8F%AE%CAP%19*%C3%BAEKe%AC%D1%AAX%8C*%DEH%8F%C5W%A1e%AD%D4%B7%5C%5B%19%C5%DB%0D%EF%9F%19%1D%7B%5E%86%BD%0C%95%A12%AC%5B*%83%96%CAP%19%F62T%86%CAP%19*%83%96%CA%B8Xe%BC%FE)T%19%A1%17xg%7F%DA%CBP%19*%C3%BA%A52T%86%CAP%19%F62T%86%CA%B0n%A9%0CZ%1DV%C6%3D%F3%FCH%DE%B4%B8~%7F%5CZc%F1%D6%1F%AF%84%F9%0F6%E6%EBVt9%0E~%BEr%AF%23%B0%97%A12T%86%CAP%19%B4T%86%CA%B8Re%D8%CBP%19*%C3%BA%A52huX%19%AE%CA%E5%BC%0C%7B%19*CeX%B7h%A9%0C%95%E1%BC%0C%7B%19*CeX%B7T%06%AD%CB%5E%95%2B%BF.%8F%C5%97%D5%E4%7B%EE%82%D6%FB%CF-%9C%FD%B9%CF%3By%7B%19%F62T%86%CA%B0n%D1R%19*%A3%D3%CA%B0%97%A12T%86uKe%D0%EA%B02*%3F1%99%5DB%2B%A4%B5%F8%3A%7C%BA%2B%8Co%7D%5C%EDe%A8%0C%95a%DDR%19%B4T%C66%82fA%B2%ED%DA%9FC%FC%17GZ%06%C9%E1%B3%E5%2C%1A%9FoiB%EB%96%CA%A0%D5qe4%7B%7D%FD%85%F7%5B%ED_%E0s%07%F0k%951%ECr%0D%B5C%D7-g%D1%A8%0C%EB%96%CA%A0%A52T%C6)*%C3%5E%86%CAP%19%D6-%95A%EB*%95q%F8%BB%E3%F9%AB%F6%E21%ACZ%B7%22%B7%9B%3F%02%85%CB%A2%5B%B7%BA%5E%B7%9C%97%E1%BC%0C%EB%16-%95%A12z%AC%0C%BFc%A22T%86uKe%D0%EA%B02V%DD%AD%8A%2B%8CWhe%5E%AF%CF%F5%3B%26%CE%CBh%5C%19%CE%CB%B0%F3%A4%095%A1%CAP%19*Ce%A8%0C%3BO*Ce%A8%0C%95%A12%3A%AD%8C%0A%82%7B%F0v%1F%2FD%A9%5B%9F%EE%EA%26%AF%03%CA%DF9%7B%19*Ce%A8%0C%95%A12T%86%CA%B8Ze%D8%CBP%19*Ce%A8%0C%95%D1ae%EC%F7%89I%E1%B4%D7M%D7P%8BjU%5C%BB%3E%F2%20%D8%CBP%19*Ce%A8%0C%95%A12T%C6%D5*%C3%5E%86%CAP%19*Ce%B4O%07%7B%F0W%7Bw%1C%7C%1A%8C%B3%3B%D1%EE%AA%5C%D6-%EBV%83%80%5E%D0%CA%10%5CU%2BD%E07YU%86%CAP%19*%E3%9A%95%91%D9%A0%C8%AD%5B%EDv%9E%82%FFKOee%E4%8FUe%A8%0C%95%A12T%C6%1F%A9%8C%C8%3D%5B%A5%15%FD%14%22r%E7B%9F%17l%F8%BF%ED%EAf%2B%7F%CF%ECe%D8%CBP%19*Ce%A8%0C%95%E1%93~%7B%19%F62T%86%CAP%19*Ce%A8%0C%E7%13%DA%CBP%19*Ce%A8%0CZf%8B%16-Z%B4h%D1R%19f%8B%16-Z%B4h%D1R%19%B4%CC%16-Z%B4h%D1R%19%B4%CC%16-Z%B4h%D1%A2%A52%CC%16-Z%B4h%D1%A2%A52h%99-Z%B4h%D1%A2%A52h%99-Z%B4h%D1%A2EKe%98-Z%B4h%D1%A2EKe%D02%5B%B4h%D1%A2EKe%D02%5B%B4h%D1%A2E%8B%96%CA0%5B%B4h%D1%A2E%8B%96%CA%A0e%B6h%D1%A2E%8B%96%CA%A0e%B6h%D1%A2E%8B%16-%95a%B6h%D1%A2E%8B%16-%95A%CBl%D1%A2E%8B%16-%95A%CBl%D1%A2E%8B%16-Z*%C3l%D1%A2E%8B%16-Z*%83%96%D9%A2E%8B%16-Z*%83%96%D9%A2E%8B%16-Z%B4T%86%D9%A2E%8B%16-Z%B4T%06-%B3E%8B%16-Z%B4T%06-%B3E%8B%16-Z%B4h%A9%0C%B3E%8B%16-Z%B4h%A9%0CZf%8B%16-Z%B4h%A9%0CZf%8B%16-Z%B4h%D1R%19f%8B%16-Z%B4h%D1R%19%B4%CC%16-Z%B4h%D1R%19%B4%CC%16-Z%B4h%D1%A2%A52%CC%16-Z%B4h%D1%A2%A52h%99-Z%B4h%D1%A2%A52h%99-Z%B4h%D1%A2EKe%98-Z%B4h%D1%A2EKe%D02%5B%B4h%D1%A2EKe%D02%5B%B4h%D1%A2E%8B%96%CA0%5B%B4h%D1%A2E%8B%96%CA%A0e%B6h%D1%A2E%8B%96%CA%A0e%B6h%D1%A2E%8B%16-%95a%B6h%D1%A2E%8B%16-%95A%CBl%D1%A2E%8B%16-%95A%CBl%D1%A2E%8B%16-Z*%C3l%D1%A2E%8B%16-Z*%83%96%D9%A2E%8B%16-Z*%83%96%D9%A2E%8B%16-Z%B4T%86%D9%A2E%8B%16-Z%B4T%06-%B3E%8B%16-Z%B4T%06-%B3E%8B%16-Z%B4h%A9%0C%B3E%8B%16-Z%B4h%A9%0CZf%8B%16-Z%B4h%A9%0CZf%8B%16-Z%B4h%D1R%19f%8B%16-Z%B4h%D1R%19%B4%CC%16-Z%B4h%D1R%19%B4%CC%16-Z%B4h%D1%A2%A52%CC%16-Z%B4h%D1%A2%A52h%99-Z%B4h%D1%A2%A52h%99-Z%B4h%D1%A2EKe%98-Z%B4h%D1%A2EKe%D02%5B%B4h%D1%A2EKe%D02%5B%B4h%D1%A2E%8B%96%CA0%5B%B4h%D1%A2E%8B%96%CA%A0e%B6h%D1%A2E%8B%96%CA%A0e%B6h%D1%A2E%8B%16-%95a%B6h%D1%A2E%8B%16-%95A%CBl%D1%A2E%8B%16-%95A%CBl%D1%A2E%8B%16-Z*%C3l%D1%A2E%8B%16-Z*%83%96%D9%A2E%8B%16-Z*%83%96%D9%A2E%8B%16-Z%B4T%86%D9%A2E%8B%16-Z%B4T%06-%B3E%8B%16-Z%B4%AE%A4%F5%25%C0%00%DE%BF%5C'%0F%DA%B8q%00%00%00%00IEND%AEB%60%82&quot;) repeat-y !important;
    border-left: 1px solid #BBBBBB !important;
    border-right: 1px solid #000000 !important;
    border-bottom: 1px dashed #BBBBBB !important;
}

.overflowRulerX &gt; .firebugRulerV {
    left: 0 !important;
}

.overflowRulerY &gt; .firebugRulerH {
    top: 0 !important;
}

/* * * * * * * * * * * * * * * * * * * * * * * * * * * * * * * * * * * * * * * * * * * * * * * * */
.fbProxyElement {
    position: fixed !important;
    pointer-events: auto !important;
}
</xhtml:style><path
     style="fill:none;stroke:#000000;stroke-width:0.91415823px;stroke-linecap:butt;stroke-linejoin:miter;stroke-opacity:1"
     d="M 4.318636,18.819918 H 15.388793 L 8.979755,27.584174 Z"
     id="path446"
     inkscape:connector-curvature="0" /></svg>