<?xml version="1.0" encoding="utf-8"?>
<!-- Generator: Adobe Illustrator 15.0.0, SVG Export Plug-In . SVG Version: 6.00 Build 0)  -->
<!DOCTYPE svg PUBLIC "-//W3C//DTD SVG 1.1//EN" "http://www.w3.org/Graphics/SVG/1.1/DTD/svg11.dtd">
<svg version="1.1" id="Calque_1" xmlns="http://www.w3.org/2000/svg" xmlns:xlink="http://www.w3.org/1999/xlink" x="0px" y="0px"
	 width="405.849px" height="168.831px" viewBox="4.873 77.155 405.849 168.831"
	 enable-background="new 4.873 77.155 405.849 168.831" xml:space="preserve">
<path fill="#5A5A5A" d="M205.748,85.144c-0.097-0.097,0.078-0.468,0-0.584"/>
<path fill="#5A5A5A" d="M157.167,139.578c0.078-0.116-0.098-0.488,0-0.584c0.097-0.097,0.468,0.078,0.585,0c0,0.194,0,0.39,0,0.584
	C157.557,139.578,157.362,139.578,157.167,139.578z"/>
<path fill="#5A5A5A" d="M157.752,139.578c0-0.194,0-0.39,0-0.584c0.195,0,0.391,0,0.586,0c-0.079,0.116,0.097,0.487,0,0.584
	C158.24,139.677,157.87,139.501,157.752,139.578z"/>
<path fill="#5A5A5A" d="M158.338,138.994c7.023,0,14.047,0,21.071,0c7.024,0,14.047,0,21.071,0c7.023,0,14.048,0,21.072,0
	c3.512,0,7.023,0,10.535,0c0.78,0,1.561,0,2.341,0c0.391,0,0.78,0,1.172,0c0.584,0,1.17,0,1.755,0c0.78,0,1.562,0,2.341,0
	c0.392,0,0.781,0,1.171,0c0.781,0,1.562,0,2.343,0c0.077,0.116-0.099,0.487,0,0.584c0.097,0.099,0.468-0.078,0.584,0
	c0.195,0,0.39,0,0.586,0c0.195,0,0.391,0,0.586,0c0.077,0.118-0.099,0.488,0,0.586c0.097,0.097,0.468-0.078,0.584,0
	c0.078,0.116-0.097,0.488,0,0.585c0.099,0.098,0.469-0.078,0.586,0c0,0.194,0,0.391,0,0.584c0.194,0,0.391,0,0.586,0
	c0,0.195,0,0.391,0,0.586c0,0.195,0,0.39,0,0.585c0,0.194,0,0.391,0,0.585c0.193,0,0.39,0,0.585,0c0,8.39,0,16.779,0,25.17
	c0,4.096,0,8.193,0,12.29c0,4.098,0,8.195,0,12.292c0,8.193,0,16.389,0,24.583c0,8.195,0,16.39,0,24.583
	c-0.117,0.079-0.488-0.097-0.585,0c-0.098,0.099,0.077,0.469,0,0.586c0,0.195,0,0.391,0,0.585s0,0.391,0,0.585
	c-0.118,0.079-0.488-0.097-0.586,0c-0.099,0.1,0.078,0.469,0,0.586c-0.117,0.079-0.487-0.099-0.586,0
	c-0.097,0.098,0.078,0.469,0,0.585c-0.194,0-0.391,0-0.584,0c0,0.194,0,0.391,0,0.586c-0.195,0-0.391,0-0.586,0
	c-0.196,0-0.391,0-0.586,0c-0.116,0.078-0.487-0.098-0.584,0c-0.099,0.099,0.078,0.468,0,0.586c-7.219,0-14.438,0-21.657,0
	c-7.024,0-14.048,0-21.072,0c-7.024,0-14.047,0-21.071,0c-7.023,0-14.048,0-21.071,0c-0.079-0.118,0.097-0.487,0-0.586
	c-0.098-0.098-0.468,0.078-0.586,0c-0.195,0-0.39,0-0.585,0s-0.391,0-0.585,0c-0.079-0.118,0.097-0.488,0-0.586
	c-0.098-0.098-0.468,0.078-0.586,0c-0.079-0.116,0.098-0.487,0-0.585c-0.098-0.099-0.468,0.079-0.586,0c0-0.195,0-0.391,0-0.586
	c-0.194,0-0.39,0-0.584,0c0-0.194,0-0.391,0-0.585s0-0.39,0-0.585c-0.078-0.117,0.097-0.487,0-0.586
	c-0.098-0.097-0.468,0.079-0.585,0c0-0.78,0-1.561,0-2.341c0-0.585,0-1.171,0-1.756c0-0.391,0-0.779,0-1.172
	c0-0.585,0-1.169,0-1.755c0-0.39,0-0.78,0-1.17c0-0.586,0-1.172,0-1.756c0-0.392,0-0.781,0-1.172c0-0.585,0-1.17,0-1.756
	c0-4.097,0-8.194,0-12.291s0-8.194,0-12.292c0-4.097,0-8.194,0-12.291c0-8.195,0-16.389,0-24.584c0-8.193,0-16.388,0-24.583
	c0.118-0.078,0.488,0.099,0.585,0c0.097-0.097-0.078-0.468,0-0.585c0-0.195,0-0.39,0-0.585c0-0.195,0-0.392,0-0.586
	c0.117-0.078,0.488,0.099,0.584,0c0.098-0.097-0.078-0.468,0-0.584c0.118-0.078,0.488,0.098,0.586,0
	c0.098-0.097-0.079-0.469,0-0.585c0.195,0,0.39,0,0.586,0c0-0.196,0-0.39,0-0.586c0.194,0,0.39,0,0.585,0s0.39,0,0.585,0
	c0.118-0.078,0.488,0.099,0.586,0C158.435,139.481,158.26,139.11,158.338,138.994z M166.532,171.772c0,6.827,0,13.656,0,20.485
	c0,1.561,0,3.121,0,4.683c0,1.756,0,3.512,0,5.268c0,3.512,0,7.023,0,10.536c0,7.022,0,14.047,0,21.071c2.732,0,5.463,0,8.194,0
	c9.951,0,19.901,0,29.851,0c10.145,0,20.291,0,30.437,0c0-1.562,0-3.122,0-4.684c0-3.121,0-6.243,0-9.365c0-1.561,0-3.12,0-4.682
	c0-1.756,0-3.513,0-5.269c0-3.121,0-6.243,0-9.364c0-1.562,0-3.122,0-4.684c0-1.755,0-3.511,0-5.267c0-13.072,0-26.145,0-39.216
	c-2.731,0-5.462,0-8.194,0c-4.877,0-9.755,0-14.633,0c-2.536,0-5.073,0-7.609,0s-5.073,0-7.609,0c-2.536,0-5.073,0-7.609,0
	c-2.536,0-5.073,0-7.609,0c-2.537,0-5.073,0-7.61,0c-2.536,0-5.073,0-7.609,0C166.532,158.114,166.532,164.942,166.532,171.772z"/>
<path fill="#5A5A5A" d="M243.209,138.994c0.193,0,0.39,0,0.584,0c0,0.194,0,0.39,0,0.584c-0.116-0.078-0.487,0.099-0.584,0
	C243.111,139.481,243.286,139.11,243.209,138.994z"/>
<path fill="#5A5A5A" d="M243.793,139.578c0-0.194,0-0.39,0-0.584c0.117,0.078,0.487-0.097,0.586,0c0.098,0.097-0.078,0.468,0,0.584
	C244.183,139.578,243.989,139.578,243.793,139.578z"/>
<path fill="#5A5A5A" d="M155.996,140.165c0.079-0.118-0.098-0.488,0-0.586c0.098-0.097,0.468,0.078,0.586,0c0,0.196,0,0.39,0,0.586
	C156.386,140.165,156.192,140.165,155.996,140.165z"/>
<path fill="#5A5A5A" d="M244.965,139.578c0.116,0.078,0.487-0.097,0.584,0c0.099,0.099-0.078,0.468,0,0.586
	c-0.116-0.078-0.487,0.097-0.584,0C244.866,140.066,245.042,139.697,244.965,139.578z"/>
<path fill="#5A5A5A" d="M155.41,140.75c0.079-0.117-0.097-0.488,0-0.585c0.098-0.099,0.469,0.078,0.586,0
	c-0.079,0.116,0.098,0.488,0,0.585C155.898,140.847,155.528,140.672,155.41,140.75z"/>
<path fill="#5A5A5A" d="M245.549,140.165c0.117,0.078,0.487-0.099,0.586,0c0.098,0.097-0.078,0.468,0,0.585
	c-0.117-0.078-0.487,0.098-0.586,0C245.452,140.653,245.627,140.281,245.549,140.165z"/>
<path fill="#5A5A5A" d="M154.826,141.334c0-0.194,0-0.39,0-0.584c0.194,0,0.391,0,0.584,0c-0.078,0.117,0.098,0.488,0,0.584
	C155.314,141.433,154.943,141.257,154.826,141.334z"/>
<path fill="#5A5A5A" d="M246.135,140.75c0.117,0.078,0.488-0.097,0.586,0c0.097,0.098-0.078,0.468,0,0.584c-0.195,0-0.392,0-0.586,0
	C246.135,141.14,246.135,140.946,246.135,140.75z"/>
<path fill="#5A5A5A" d="M154.24,142.506c0.078-0.118-0.098-0.487,0-0.585c0.098-0.099,0.468,0.077,0.585,0c0,0.195,0,0.39,0,0.585
	C154.631,142.506,154.436,142.506,154.24,142.506z"/>
<path fill="#5A5A5A" d="M246.721,142.506c0-0.195,0-0.39,0-0.585c0.193,0,0.39,0,0.585,0c0,0.195,0,0.39,0,0.585
	C247.111,142.506,246.914,142.506,246.721,142.506z"/>
<path fill="#5A5A5A" d="M154.24,143.091c0-0.194,0-0.391,0-0.585c0.195,0,0.39,0,0.585,0c-0.078,0.117,0.097,0.488,0,0.585
	C154.728,143.189,154.358,143.012,154.24,143.091z"/>
<path fill="#5A5A5A" d="M246.721,142.506c0.193,0,0.39,0,0.585,0c0,0.194,0,0.391,0,0.585c-0.195,0-0.392,0-0.585,0
	C246.721,142.896,246.721,142.701,246.721,142.506z"/>
<path fill="#5A5A5A" d="M91.027,221.522c0.078-0.116-0.098-0.487,0-0.585c0.098-0.097,0.468,0.078,0.585,0
	c-0.078,0.117,0.098,0.488,0,0.585C91.514,221.621,91.144,221.445,91.027,221.522z"/>
<path fill="#5A5A5A" d="M91.612,220.937c6.244,0,12.487,0,18.73,0c3.122,0,6.243,0,9.365,0c1.561,0,3.122,0,4.683,0
	c1.756,0,3.512,0,5.268,0c0,0.195,0,0.391,0,0.585c0.117,0.079,0.488-0.097,0.584,0c0.098,0.099-0.078,0.468,0,0.587
	c0.196,0,0.391,0,0.586,0c0,0.39,0,0.779,0,1.169c0,0.196,0,0.391,0,0.587c0,0.194,0,0.39,0,0.585c0.195,0,0.39,0,0.585,0
	c0,0.194,0,0.391,0,0.585s0,0.39,0,0.586c0.078,0.116-0.098,0.486,0,0.585c0.098,0.097,0.468-0.079,0.585,0c0,0.391,0,0.779,0,1.17
	c0,0.196,0,0.39,0,0.586c0,0.194,0,0.391,0,0.585c0.195,0,0.39,0,0.585,0c0,0.391,0,0.781,0,1.171c0,0.194,0,0.391,0,0.585
	s0,0.391,0,0.585c0.195,0,0.39,0,0.585,0c0,0.196,0,0.391,0,0.586c0,0.194,0,0.391,0,0.586c0.079,0.116-0.097,0.486,0,0.584
	c0.098,0.099,0.468-0.077,0.586,0c0,0.391,0,0.781,0,1.172c0,0.194,0,0.39,0,0.584c0,0.196,0,0.391,0,0.586c0.195,0,0.39,0,0.585,0
	c0,0.195,0,0.391,0,0.586c0,0.194,0,0.39,0,0.584c0.078,0.118-0.097,0.488,0,0.585c0.098,0.099,0.468-0.077,0.585,0
	c0,0.196,0,0.393,0,0.587c0.072,0.146-0.091,0.45,0,0.585c0.062,0.093,0.504-0.082,0.585,0c0.098,0.097-0.079,0.468,0,0.585
	c0.195,0,0.39,0,0.585,0c0,0.39,0,0.78,0,1.171c0,0.194,0,0.391,0,0.585c0,0.195,0,0.39,0,0.586c0.194,0,0.391,0,0.585,0
	c0,0.39,0,0.779,0,1.17c0,0.195,0,0.391,0,0.586s0,0.391,0,0.585c-0.117,0.078-0.488-0.098-0.585,0
	c-0.098,0.098,0.078,0.468,0,0.585c0,0.195,0,0.391,0,0.586c-0.117,0.079-0.487-0.099-0.585,0c-0.098,0.098,0.079,0.469,0,0.585
	c-0.195,0-0.39,0-0.585,0c0,0.194,0,0.391,0,0.586c-0.391,0-0.78,0-1.17,0c-0.195,0-0.39,0-0.586,0c-0.195,0-0.39,0-0.585,0
	c-0.117,0.078-0.488-0.098-0.585,0c-0.098,0.099,0.078,0.468,0,0.586c-1.171,0-2.341,0-3.513,0c-0.078-0.118,0.098-0.487,0-0.586
	c-0.051-0.051-0.504,0-0.584,0c-0.195,0-0.39,0-0.586,0c-0.78,0-1.561,0-2.341,0c-3.317,0-6.634,0-9.951,0c-1.756,0-3.512,0-5.268,0
	c-1.561,0-3.121,0-4.683,0c-1.756,0-3.512,0-5.267,0c-1.561,0-3.122,0-4.682,0c-3.122,0-6.244,0-9.366,0c-0.194,0-0.39,0-0.584,0
	c0-0.195,0-0.392,0-0.586c-0.078-0.116,0.098-0.487,0-0.585c-0.098-0.099-0.468,0.079-0.586,0c0-0.195,0-0.391,0-0.586
	c0-0.194,0-0.391,0-0.585c0-0.39,0-0.78,0-1.171c0.118-0.078,0.488,0.099,0.586,0c0.098-0.097-0.078-0.468,0-0.585
	c0-0.195,0-0.39,0-0.585c0-0.586,0-1.171,0-1.756c0.117-0.079,0.488,0.098,0.584,0c0.098-0.099-0.077-0.468,0-0.586
	c0.078-0.117-0.097-0.488,0-0.585c0.098-0.098,0.469,0.079,0.586,0c0-0.195,0-0.391,0-0.585c0-0.587,0-1.172,0-1.756
	c0.117-0.08,0.487,0.098,0.585,0c0.098-0.099-0.078-0.469,0-0.586c0-0.586,0-1.17,0-1.756c0.194,0,0.39,0,0.585,0
	c0.117-0.078,0.488,0.098,0.585,0c0.098-0.099-0.078-0.468,0-0.586c0-0.584,0-1.17,0-1.756c0.118-0.078,0.488,0.099,0.585,0
	c0.098-0.098-0.078-0.468,0-0.585c0-0.585,0-1.171,0-1.756c0.117-0.078,0.487,0.098,0.585,0c0.071-0.071-0.025-0.481,0-0.585
	c0.042-0.166,0-0.414,0-0.586c0-0.391,0-0.779,0-1.17c0.117-0.079,0.487,0.097,0.585,0c0.098-0.099-0.078-0.469,0-0.585
	c0-0.196,0-0.392,0-0.586s0-0.391,0-0.585c0.118-0.079,0.488,0.097,0.585,0c0.098-0.098-0.077-0.469,0-0.585
	c0-0.196,0-0.391,0-0.587c0.118-0.077,0.488,0.099,0.586,0c0.098-0.097-0.078-0.468,0-0.585c0-0.194,0-0.39,0-0.584
	c0-0.196,0-0.391,0-0.587c0.117-0.077,0.488,0.099,0.585,0C91.709,221.426,91.533,221.054,91.612,220.937z"/>
<path fill="#5A5A5A" d="M90.441,222.693c0.078-0.116-0.097-0.486,0-0.584c0.098-0.099,0.468,0.077,0.586,0c0,0.194,0,0.39,0,0.584
	C90.831,222.693,90.636,222.693,90.441,222.693z"/>
<path fill="#5A5A5A" d="M90.441,223.278c0-0.193,0-0.39,0-0.585c0.195,0,0.391,0,0.586,0c-0.078,0.117,0.098,0.488,0,0.585
	C90.928,223.377,90.558,223.201,90.441,223.278z"/>
<path fill="#5A5A5A" d="M130.828,223.865c0-0.196,0-0.391,0-0.587c0.118,0.08,0.488-0.097,0.585,0c0.098,0.099-0.078,0.469,0,0.587
	C131.218,223.865,131.023,223.865,130.828,223.865z"/>
<path fill="#5A5A5A" d="M89.856,224.45c0.078-0.117-0.098-0.487,0-0.585c0.098-0.099,0.469,0.077,0.585,0
	c-0.077,0.116,0.098,0.487,0,0.585C90.344,224.547,89.973,224.371,89.856,224.45z"/>
<path fill="#5A5A5A" d="M130.828,223.865c0.195,0,0.39,0,0.585,0c0,0.194,0,0.39,0,0.585c-0.195,0-0.391,0-0.585,0
	C130.828,224.255,130.828,224.059,130.828,223.865z"/>
<path fill="#5A5A5A" d="M89.271,225.621c0.078-0.118-0.098-0.488,0-0.586c0.098-0.098,0.468,0.079,0.585,0c0,0.194,0,0.39,0,0.586
	C89.66,225.621,89.466,225.621,89.271,225.621z"/>
<path fill="#5A5A5A" d="M131.413,225.621c0-0.196,0-0.392,0-0.586c0.194,0,0.391,0,0.585,0c0,0.194,0,0.39,0,0.586
	C131.804,225.621,131.608,225.621,131.413,225.621z"/>
<path fill="#5A5A5A" d="M89.271,226.206c0-0.195,0-0.391,0-0.585c0.195,0,0.39,0,0.585,0c-0.078,0.116,0.098,0.486,0,0.585
	C89.758,226.302,89.387,226.127,89.271,226.206z"/>
<path fill="#5A5A5A" d="M131.413,225.621c0.194,0,0.391,0,0.585,0c0,0.194,0,0.39,0,0.585c-0.118-0.079-0.488,0.097-0.585,0
	C131.316,226.107,131.491,225.737,131.413,225.621z"/>
<path fill="#5A5A5A" d="M131.999,227.962c0-0.196,0-0.39,0-0.586c0.195,0,0.39,0,0.585,0c0,0.196,0,0.39,0,0.586
	C132.389,227.962,132.194,227.962,131.999,227.962z"/>
<path fill="#5A5A5A" d="M131.999,227.962c0.195,0,0.39,0,0.585,0c0,0.194,0,0.391,0,0.585c-0.195,0-0.39,0-0.585,0
	C131.999,228.352,131.999,228.156,131.999,227.962z"/>
<path fill="#5A5A5A" d="M88.685,228.547c0,0.585,0,1.171,0,1.756c-0.195,0-0.39,0-0.585,0c0-0.585,0-1.171,0-1.756
	C88.295,228.547,88.49,228.547,88.685,228.547z"/>
<path fill="#5A5A5A" d="M132.584,230.302c0-0.194,0-0.391,0-0.585c0.117,0.078,0.488-0.099,0.585,0c0.098,0.098-0.078,0.468,0,0.585
	C132.974,230.302,132.779,230.302,132.584,230.302z"/>
<path fill="#5A5A5A" d="M88.1,230.887c0-0.194,0-0.391,0-0.585c0.195,0,0.39,0,0.585,0c-0.078,0.117,0.098,0.487,0,0.585
	C88.588,230.986,88.218,230.809,88.1,230.887z"/>
<path fill="#5A5A5A" d="M132.584,230.302c0.195,0,0.39,0,0.585,0c0,0.194,0,0.391,0,0.585c-0.195,0-0.39,0-0.585,0
	C132.584,230.693,132.584,230.497,132.584,230.302z"/>
<path fill="#5A5A5A" d="M88.1,230.887c0,0.586,0,1.172,0,1.756c-0.195,0-0.39,0-0.585,0c0-0.584,0-1.17,0-1.756
	C87.71,230.887,87.904,230.887,88.1,230.887z"/>
<path fill="#5A5A5A" d="M133.169,232.059c0-0.195,0-0.392,0-0.586c0.196,0,0.391,0,0.586,0c0,0.194,0,0.391,0,0.586
	C133.559,232.059,133.365,232.059,133.169,232.059z"/>
<path fill="#5A5A5A" d="M133.169,232.059c0.196,0,0.391,0,0.586,0c0,0.193,0,0.39,0,0.584c-0.118-0.077-0.488,0.099-0.586,0
	C133.072,232.546,133.247,232.176,133.169,232.059z"/>
<path fill="#5A5A5A" d="M86.929,233.229c0.078-0.117-0.098-0.487,0-0.586c0.098-0.098,0.468,0.08,0.585,0c0,0.196,0,0.391,0,0.586
	C87.319,233.229,87.124,233.229,86.929,233.229z"/>
<path fill="#5A5A5A" d="M87.514,233.229c0-0.195,0-0.39,0-0.586c0.195,0,0.391,0,0.585,0c-0.078,0.118,0.098,0.487,0,0.586
	C88.002,233.327,87.632,233.151,87.514,233.229z"/>
<path fill="#5A5A5A" d="M133.755,234.399c0-0.194,0-0.39,0-0.584c0.117,0.077,0.488-0.098,0.585,0c0.098,0.097-0.078,0.468,0,0.584
	C134.145,234.399,133.949,234.399,133.755,234.399z"/>
<path fill="#5A5A5A" d="M133.755,234.399c0.195,0,0.39,0,0.585,0c0,0.196,0,0.391,0,0.586c-0.195,0-0.39,0-0.585,0
	C133.755,234.79,133.755,234.595,133.755,234.399z"/>
<path fill="#5A5A5A" d="M86.344,235.571c0.078-0.116-0.098-0.488,0-0.586c0.098-0.098,0.468,0.078,0.585,0
	c-0.078,0.117,0.098,0.487,0,0.586C86.831,235.669,86.461,235.491,86.344,235.571z"/>
<path fill="#5A5A5A" d="M134.34,236.155c0-0.194,0-0.39,0-0.584c0.117,0.077,0.488-0.099,0.585,0c0.098,0.098-0.078,0.468,0,0.584
	C134.731,236.155,134.534,236.155,134.34,236.155z"/>
<path fill="#5A5A5A" d="M134.34,236.155c0.195,0,0.391,0,0.585,0c0,0.195,0,0.392,0,0.585c-0.117-0.077-0.488,0.099-0.585,0
	C134.242,236.643,134.418,236.273,134.34,236.155z"/>
<path fill="#5A5A5A" d="M85.174,239.083c0-0.196,0-0.391,0-0.586c0.194,0,0.39,0,0.584,0c-0.077,0.118,0.098,0.487,0,0.586
	C85.661,239.18,85.291,239.004,85.174,239.083z"/>
<path fill="#5A5A5A" d="M136.096,240.253c0-0.194,0-0.391,0-0.585c0.194,0,0.391,0,0.585,0c0,0.194,0,0.391,0,0.585
	C136.487,240.253,136.29,240.253,136.096,240.253z"/>
<path fill="#5A5A5A" d="M136.096,240.253c0.194,0,0.391,0,0.585,0c0,0.195,0,0.39,0,0.586c-0.194,0-0.391,0-0.585,0
	C136.096,240.642,136.096,240.448,136.096,240.253z"/>
<path fill="#5A5A5A" d="M84.588,241.424c0.078-0.116-0.098-0.487,0-0.585c0.098-0.099,0.468,0.077,0.586,0c0,0.195,0,0.39,0,0.585
	C84.977,241.424,84.783,241.424,84.588,241.424z"/>
<path fill="#5A5A5A" d="M84.588,242.009c0-0.194,0-0.391,0-0.585c0.196,0,0.391,0,0.586,0c-0.078,0.117,0.098,0.488,0,0.585
	C85.075,242.107,84.705,241.93,84.588,242.009z"/>
<path fill="#5A5A5A" d="M84.588,242.009c0,0.391,0,0.781,0,1.171c-0.194,0-0.39,0-0.585,0c0-0.194,0-0.39,0-0.585
	c0-0.081-0.052-0.534,0-0.586C84.099,241.912,84.471,242.088,84.588,242.009z"/>
<path fill="#5A5A5A" d="M136.681,242.594c0-0.195,0-0.391,0-0.586c0.118,0.079,0.488-0.097,0.585,0c0.098,0.099-0.078,0.469,0,0.586
	C137.071,242.594,136.876,242.594,136.681,242.594z"/>
<path fill="#5A5A5A" d="M154.24,242.594c0-0.195,0-0.391,0-0.586c0.118,0.079,0.488-0.097,0.585,0c0.097,0.099-0.078,0.469,0,0.586
	C154.631,242.594,154.436,242.594,154.24,242.594z"/>
<path fill="#5A5A5A" d="M246.721,242.594c0.077-0.117-0.098-0.487,0-0.586c0.097-0.097,0.468,0.079,0.585,0c0,0.195,0,0.391,0,0.586
	C247.111,242.594,246.914,242.594,246.721,242.594z"/>
<path fill="#5A5A5A" d="M136.681,243.179c0-0.194,0-0.39,0-0.585c0.195,0,0.39,0,0.585,0c0,0.195,0,0.391,0,0.585
	C137.071,243.179,136.876,243.179,136.681,243.179z"/>
<path fill="#5A5A5A" d="M154.24,242.594c0.195,0,0.39,0,0.585,0c0,0.195,0,0.391,0,0.585c-0.118-0.077-0.487,0.098-0.585,0
	S154.319,242.712,154.24,242.594z"/>
<path fill="#5A5A5A" d="M246.721,243.179c0-0.194,0-0.39,0-0.585c0.193,0,0.39,0,0.585,0c0,0.195,0,0.391,0,0.585
	C247.111,243.179,246.914,243.179,246.721,243.179z"/>
<path fill="#5A5A5A" d="M84.003,243.179c0.195,0,0.391,0,0.585,0c0,0.194,0,0.391,0,0.585c-0.116-0.078-0.487,0.1-0.585,0
	C83.905,243.668,84.08,243.297,84.003,243.179z"/>
<path fill="#5A5A5A" d="M136.096,243.764c0.078-0.117-0.098-0.487,0-0.585c0.097-0.098,0.468,0.078,0.585,0c0,0.194,0,0.391,0,0.585
	C136.487,243.764,136.29,243.764,136.096,243.764z"/>
<path fill="#5A5A5A" d="M136.681,243.764c0-0.194,0-0.391,0-0.585c0.195,0,0.39,0,0.585,0c0,0.194,0,0.391,0,0.585
	C137.071,243.764,136.876,243.764,136.681,243.764z"/>
<path fill="#5A5A5A" d="M5.571,243.764c0.117,0.079,0.487-0.097,0.585,0c0.098,0.1-0.078,0.469,0,0.586c-0.195,0-0.39,0-0.585,0
	C5.571,244.155,5.571,243.96,5.571,243.764z"/>
<path fill="#5A5A5A" d="M136.096,244.35c0-0.195,0-0.391,0-0.586c0.194,0,0.391,0,0.585,0c-0.079,0.118,0.098,0.487,0,0.586
	C136.583,244.448,136.213,244.271,136.096,244.35z"/>
<path fill="#5A5A5A" d="M154.826,243.764c0.194,0,0.391,0,0.584,0c0,0.195,0,0.391,0,0.586c-0.116-0.079-0.487,0.098-0.584,0
	C154.728,244.252,154.904,243.883,154.826,243.764z"/>
<path fill="#5A5A5A" d="M246.135,244.35c0.078-0.117-0.099-0.486,0-0.586c0.098-0.097,0.468,0.079,0.586,0
	c-0.079,0.118,0.097,0.487,0,0.586C246.623,244.448,246.252,244.271,246.135,244.35z"/>
<path fill="#5A5A5A" d="M84.588,244.35c0.118,0.079,0.488-0.099,0.586,0c0.098,0.098-0.078,0.469,0,0.585
	c-0.118-0.077-0.488,0.098-0.586,0C84.49,244.838,84.666,244.468,84.588,244.35z"/>
<path fill="#5A5A5A" d="M135.51,244.935c0.079-0.116-0.098-0.487,0-0.585c0.098-0.099,0.468,0.079,0.585,0
	c-0.079,0.117,0.097,0.487,0,0.585C135.998,245.033,135.628,244.858,135.51,244.935z"/>
<path fill="#5A5A5A" d="M155.41,244.35c0.118,0.079,0.488-0.099,0.586,0c0.098,0.098-0.079,0.469,0,0.585
	c-0.117-0.077-0.488,0.098-0.586,0C155.314,244.838,155.489,244.468,155.41,244.35z"/>
<path fill="#5A5A5A" d="M245.549,244.935c0.078-0.116-0.097-0.487,0-0.585c0.099-0.099,0.469,0.079,0.586,0
	c-0.078,0.117,0.098,0.487,0,0.585C246.036,245.033,245.666,244.858,245.549,244.935z"/>
<path fill="#5A5A5A" d="M134.925,245.521c0-0.195,0-0.392,0-0.586c0.195,0,0.39,0,0.585,0c-0.079,0.117,0.098,0.488,0,0.586
	C135.412,245.62,135.042,245.442,134.925,245.521z"/>
<path fill="#5A5A5A" d="M155.996,244.935c0.118,0.078,0.488-0.098,0.586,0c0.097,0.098-0.079,0.468,0,0.586
	c-0.196,0-0.391,0-0.586,0C155.996,245.326,155.996,245.13,155.996,244.935z"/>
<path fill="#5A5A5A" d="M244.965,245.521c0-0.195,0-0.392,0-0.586c0.193,0,0.39,0,0.584,0c-0.078,0.117,0.099,0.488,0,0.586
	C245.452,245.62,245.081,245.442,244.965,245.521z"/>
<path fill="#5A5A5A" d="M85.174,246.107c0-0.196,0-0.393,0-0.586c0.194,0,0.39,0,0.584,0c0,0.193,0,0.39,0,0.586
	C85.563,246.107,85.368,246.107,85.174,246.107z"/>
<path fill="#5A5A5A" d="M85.758,246.107c0-0.196,0-0.393,0-0.586c3.122,0,6.245,0,9.366,0c1.561,0,3.121,0,4.682,0
	c1.755,0,3.511,0,5.267,0c1.562,0,3.122,0,4.683,0c1.756,0,3.512,0,5.268,0c3.317,0,6.633,0,9.951,0c0,0.193,0,0.39,0,0.586
	c-3.317,0-6.634,0-9.951,0c-1.756,0-3.512,0-5.268,0c-1.561,0-3.121,0-4.683,0c-1.756,0-3.512,0-5.267,0c-1.561,0-3.122,0-4.682,0
	C92.002,246.107,88.88,246.107,85.758,246.107z"/>
<path fill="#5A5A5A" d="M124.975,246.107c0-0.196,0-0.393,0-0.586c0.78,0,1.561,0,2.341,0c0,0.193,0,0.39,0,0.586
	C126.536,246.107,125.755,246.107,124.975,246.107z"/>
<path fill="#5A5A5A" d="M127.316,246.107c0-0.196,0-0.393,0-0.586c0.196,0,0.391,0,0.586,0c0.081,0,0.533-0.051,0.584,0
	c0.098,0.099-0.078,0.468,0,0.586C128.096,246.107,127.706,246.107,127.316,246.107z"/>
<path fill="#5A5A5A" d="M131.999,246.107c0.078-0.118-0.098-0.487,0-0.586c0.097-0.098,0.468,0.078,0.585,0c0,0.193,0,0.39,0,0.586
	C132.389,246.107,132.194,246.107,131.999,246.107z"/>
<path fill="#5A5A5A" d="M132.584,246.107c0-0.196,0-0.393,0-0.586c0.195,0,0.39,0,0.585,0c0,0.193,0,0.39,0,0.586
	C132.974,246.107,132.779,246.107,132.584,246.107z"/>
<path fill="#5A5A5A" d="M133.169,246.107c0-0.196,0-0.393,0-0.586c0.196,0,0.391,0,0.586,0c0,0.193,0,0.39,0,0.586
	C133.559,246.107,133.365,246.107,133.169,246.107z"/>
<path fill="#5A5A5A" d="M157.167,246.107c0-0.196,0-0.393,0-0.586c0.195,0,0.39,0,0.585,0c0,0.193,0,0.39,0,0.586
	C157.557,246.107,157.362,246.107,157.167,246.107z"/>
<path fill="#5A5A5A" d="M157.752,246.107c0-0.196,0-0.393,0-0.586c0.118,0.078,0.488-0.098,0.586,0c0.097,0.099-0.079,0.468,0,0.586
	C158.143,246.107,157.947,246.107,157.752,246.107z"/>
<path fill="#5A5A5A" d="M243.209,246.107c0.078-0.118-0.099-0.487,0-0.586c0.097-0.098,0.468,0.078,0.584,0c0,0.193,0,0.39,0,0.586
	C243.599,246.107,243.403,246.107,243.209,246.107z"/>
<path fill="#5A5A5A" d="M243.793,246.107c0-0.196,0-0.393,0-0.586c0.195,0,0.39,0,0.586,0c0,0.193,0,0.39,0,0.586
	C244.183,246.107,243.989,246.107,243.793,246.107z"/>
<path fill="#5A5A5A" d="M134.925,237.327c0.195,0,0.39,0,0.585,0c0.079,0.116-0.098,0.487,0,0.585c0.082,0.082,0.523-0.094,0.585,0
	c0.09,0.135-0.072,0.438,0,0.585c-0.195,0-0.391,0-0.585,0c-0.079-0.117,0.098-0.488,0-0.585c-0.082-0.082-0.523,0.093-0.585,0
	C134.834,237.778,134.997,237.473,134.925,237.327z"/>
<path fill="#5A5A5A" d="M129.657,220.937c0.194,0,0.39,0,0.584,0c0.079,0.117-0.097,0.488,0,0.585c0.083,0.082,0.524-0.093,0.586,0
	c0.09,0.135-0.072,0.438,0,0.587c-0.195,0-0.39,0-0.586,0c-0.078-0.119,0.098-0.488,0-0.587c-0.097-0.097-0.468,0.079-0.584,0
	C129.657,221.328,129.657,221.133,129.657,220.937z"/>
<path fill="#5A5A5A" d="M85.174,238.497c0-0.194,0-0.391,0-0.585c0.117-0.078,0.488,0.097,0.584,0c0.083-0.082-0.093-0.522,0-0.585
	c0.136-0.091,0.439,0.071,0.586,0c0,0.194,0,0.39,0,0.585c-0.117,0.079-0.488-0.098-0.586,0c-0.097,0.097,0.078,0.468,0,0.585
	C85.563,238.497,85.368,238.497,85.174,238.497z"/>
<path fill="#5A5A5A" d="M205.748,86.836c-0.097-0.1,0.078-0.481,0-0.602v-1.805c-0.117-0.081-0.487,0.1-0.584,0
	c-0.098-0.1,0.078-0.481,0-0.602v-1.203h-0.586v-0.602c-0.117-0.079-0.488,0.1-0.585,0c-0.098-0.1,0.077-0.481,0-0.602
	c-0.117-0.08-0.488,0.1-0.585,0c-0.098-0.1,0.078-0.481,0-0.602c-0.078-0.119,0.098-0.5,0-0.602c-0.098-0.099-0.468,0.081-0.585,0
	h-0.585v-0.602c-0.117-0.08-0.488,0.1-0.586,0c-0.098-0.1,0.078-0.481,0-0.602h-0.585c-0.117-0.08-0.487,0.1-0.585,0
	c-0.098-0.1,0.078-0.481,0-0.602h-1.756c-0.118-0.08-0.488,0.1-0.585,0c-0.098-0.1,0.078-0.481,0-0.602H23.716
	c-0.007,0.011-0.007,0.026-0.011,0.039c-0.008,0-0.016,0-0.024,0l0.035-0.039c-4.53,0-8.195,4.038-8.195,9.026l0.018-0.018
	c0,0.002,0.001,0.007,0.002,0.011c-0.001,0.002-0.001,0.003-0.001,0.007h-0.018v102.299h12.292V90.447h166.229v48.743h12.292V86.836
	C206.216,86.756,205.845,86.937,205.748,86.836z"/>
<path fill="#5A5A5A" d="M40.104,242.331V217.73c0.01-0.001,0.02-0.002,0.03-0.004v0.031H154.24v-12.955H40.134v0.019
	c-0.01,0-0.02,0.004-0.03,0.005v-13.739c0-1.941-1.571-3.513-3.511-3.513h-28.4c-0.003,0-0.004-0.001-0.007-0.001
	c-0.002,0-0.003,0.001-0.006,0.001H7.912l-0.563,0.563c-0.059,0.009-0.12,0.016-0.168,0.039c-0.157-0.016-0.368-0.087-0.44-0.017
	c-0.097,0.098,0.078,0.468,0,0.586c-0.116,0.077-0.486-0.099-0.584,0c-0.064,0.063-0.013,0.243,0.009,0.394
	c-0.03,0.062-0.049,0.124-0.058,0.191H5.571v0.585l-0.585,0.586v51.834c-0.009,0.063-0.009,0.125,0,0.189v0.069
	c0.003,0.002,0.008,0.002,0.013,0.003c0.009,0.036,0.032,0.064,0.047,0.099c0.002,0.102,0.033,0.197,0.08,0.285
	c0.209,1.771,1.94,3.156,4.063,3.156v-0.03h26.82c0.009-0.014,0.005-0.038,0.008-0.056c0.029-0.002,0.048-0.014,0.074-0.016
	l-0.083,0.071c0.199,0,0.393-0.017,0.586-0.041v0.041l0.045-0.047 M14.935,192.843h14.633v1.171H14.935V192.843z M24.886,239.083
	v2.926c-0.118,0.079-0.488-0.097-0.586,0c-0.082,0.081,0.094,0.524,0,0.586c-0.135,0.09-0.438-0.072-0.584,0h-2.927
	c-0.078-0.117,0.098-0.487,0-0.586c-0.082-0.082-0.523,0.095-0.585,0c-0.09-0.134,0.072-0.438,0-0.585v-2.341
	c0.078-0.118-0.098-0.488,0-0.586c0.041-0.04,0.127-0.034,0.224-0.018l-0.224,0.018h0.331c0.104,0.02,0.204,0.033,0.255,0
	c0.077-0.117-0.098-0.488,0-0.585c0.098-0.098,0.468,0.079,0.585,0h2.342c0.117,0.079,0.488-0.098,0.584,0
	c0.098,0.097-0.078,0.468,0,0.585c0.118,0.079,0.488-0.098,0.586,0S24.807,238.965,24.886,239.083z M37.177,235.571H7.912V198.11
	h29.266V235.571z"/>
<path fill="#5A5A5A" d="M36.593,246.066c1.94,0,3.511-1.671,3.511-3.735"/>
<polyline fill="#5A5A5A" points="130.529,220.773 137.719,243.34 137.12,244.527 135.922,245.123 134.691,246.011 133.525,246.309 
	84.388,246.309 83.05,244.246 83.191,242.745 83.191,242.152 90.381,220.773 130.228,220.773 "/>
<path fill="#5A5A5A" d="M198.105,77.829l0.054,0.06c-0.024-0.002-0.041-0.013-0.067-0.013c-0.666,0-0.742,0.908-0.234,1.122
	c0.086,0.061,0.188,0.106,0.323,0.106c0.371,0,0.558-0.283,0.564-0.572l6.807,7.499c-0.362,0.026-0.533,0.327-0.513,0.62
	c-0.013,0.171,0.048,0.341,0.165,0.464c0.087,0.16,0.243,0.282,0.481,0.282c0.383,0,0.57-0.301,0.564-0.598l0.051,0.056
	C206.299,81.866,202.633,77.829,198.105,77.829z"/>
<text transform="matrix(1 0 0 1 254.2297 142.2908)"><tspan x="0" y="0" font-family="'CenturyGothic'" font-size="52.5943">Digital </tspan><tspan x="0" y="63.113" font-family="'CenturyGothic'" font-size="52.5943">Web</tspan></text>
</svg>
