<?xml version="1.0" encoding="UTF-8" standalone="no"?>
<!-- Generator: Adobe Illustrator 15.1.0, SVG Export Plug-In  -->

<svg
   xmlns:xhtml="http://www.w3.org/1999/xhtml"
   xmlns:dc="http://purl.org/dc/elements/1.1/"
   xmlns:cc="http://creativecommons.org/ns#"
   xmlns:rdf="http://www.w3.org/1999/02/22-rdf-syntax-ns#"
   xmlns:svg="http://www.w3.org/2000/svg"
   xmlns="http://www.w3.org/2000/svg"
   xmlns:sodipodi="http://sodipodi.sourceforge.net/DTD/sodipodi-0.dtd"
   xmlns:inkscape="http://www.inkscape.org/namespaces/inkscape"
   version="1.1"
   x="0px"
   y="0px"
   width="433px"
   height="307px"
   viewBox="-10.83 -8.095 433 307"
   enable-background="new -10.83 -8.095 433 307"
   xml:space="preserve"
   id="svg410"
   sodipodi:docname="logo8.svg"
   inkscape:version="0.92.1 r"><ellipse
     style="fill:#000000;fill-opacity:1;stroke:#000000;stroke-width:1.02549529;stroke-opacity:1"
     id="path416"
     cx="10.082483"
     cy="11.336894"
     rx="16.251366"
     ry="15.40461" /><metadata
     id="metadata414"><rdf:RDF><cc:Work
         rdf:about=""><dc:format>image/svg+xml</dc:format><dc:type
           rdf:resource="http://purl.org/dc/dcmitype/StillImage" /><dc:title></dc:title></cc:Work></rdf:RDF></metadata><sodipodi:namedview
     pagecolor="#ffffff"
     bordercolor="#666666"
     borderopacity="1"
     objecttolerance="10"
     gridtolerance="10"
     guidetolerance="10"
     inkscape:pageopacity="0"
     inkscape:pageshadow="2"
     inkscape:window-width="1280"
     inkscape:window-height="969"
     id="namedview412"
     showgrid="false"
     inkscape:snap-object-midpoints="true"
     inkscape:zoom="1.7163262"
     inkscape:cx="216.5"
     inkscape:cy="153.5"
     inkscape:window-x="1920"
     inkscape:window-y="27"
     inkscape:window-maximized="1"
     inkscape:current-layer="svg410" /><defs
     id="defs232" /><path
     d="m 19.105933,0.86475251 c -0.0093,-0.0115236 0.0074,-0.0552028 0,-0.0690036"
     id="path234"
     inkscape:connector-curvature="0"
     style="clip-rule:evenodd;fill:#5a5a5a;fill-rule:evenodd;stroke-width:0.06199622" /><path
     d="m 14.482793,7.2820828 c 0.0075,-0.013801 -0.0093,-0.05748 0,-0.069004 0.0093,-0.011524 0.04456,0.00918 0.0557,0 0,0.022978 0,0.046025 0,0.069004 -0.01855,0 -0.03715,0 -0.0557,0 z"
     id="path236"
     inkscape:connector-curvature="0"
     style="clip-rule:evenodd;fill:#5a5a5a;fill-rule:evenodd;stroke-width:0.06199622" /><path
     d="m 14.538494,7.2820828 c 0,-0.022978 0,-0.046025 0,-0.069004 0.01855,0 0.03715,0 0.0557,0 -0.0075,0.013801 0.0093,0.05748 0,0.069004 -0.0093,0.011524 -0.04456,-0.00918 -0.0557,0 z"
     id="path238"
     inkscape:connector-curvature="0"
     style="clip-rule:evenodd;fill:#5a5a5a;fill-rule:evenodd;stroke-width:0.06199622" /><path
     d="m 14.594194,7.2130792 c 0.668406,0 1.336812,0 2.005217,0 0.668406,0 1.336812,0 2.005218,0 0.668405,0 1.336811,0 2.005217,0 0.334203,0 0.668406,0 1.002609,0 0.07425,0 0.148553,0 0.222801,0 0.03715,0 0.07425,0 0.111401,0 0.0557,0 0.111401,0 0.167102,0 0.07425,0 0.148553,0 0.222802,0 0.03715,0 0.07425,0 0.111401,0 0.07425,0 0.148553,0 0.222802,0 0.0074,0.013801 -0.0093,0.05748 0,0.069004 0.0093,0.011524 0.04456,-0.00918 0.0557,0 0.01855,0 0.03715,0 0.0557,0 0.01855,0 0.03715,0 0.0557,0 0.0074,0.013801 -0.0093,0.05748 0,0.069003 0.0093,0.011524 0.04456,-0.00918 0.0557,0 0.0074,0.013801 -0.0093,0.05748 0,0.069004 0.0093,0.011524 0.04456,-0.00918 0.0557,0 0,0.022978 0,0.046025 0,0.069003 0.01855,0 0.03715,0 0.0557,0 0,0.022978 0,0.046025 0,0.069004 0,0.022978 0,0.046025 0,0.069003 0,0.022978 0,0.046025 0,0.069004 0.01855,0 0.03715,0 0.0557,0 0,0.9890279 0,1.9781248 0,2.9671528 0,0.483025 0,0.96605 0,1.449074 0,0.483025 0,0.96605 0,1.449075 0,0.96605 0,1.932099 0,2.898149 0,0.96605 0,1.9321 0,2.898149 -0.01114,0.0092 -0.0464,-0.01152 -0.0557,0 -0.0093,0.01152 0.0075,0.0552 0,0.069 0,0.02298 0,0.04603 0,0.069 0,0.02298 0,0.04603 0,0.069 -0.01114,0.0092 -0.0464,-0.01152 -0.0557,0 -0.0093,0.01152 0.0075,0.0552 0,0.069 -0.01114,0.0092 -0.0464,-0.01152 -0.0557,0 -0.0093,0.01152 0.0075,0.0552 0,0.069 -0.01855,0 -0.03715,0 -0.0557,0 0,0.02298 0,0.04603 0,0.069 -0.01855,0 -0.03715,0 -0.0557,0 -0.01855,0 -0.03715,0 -0.0557,0 -0.01114,0.0092 -0.0464,-0.01152 -0.0557,0 -0.0093,0.01152 0.0075,0.0552 0,0.069 -0.686954,0 -1.373964,0 -2.060918,0 -0.668406,0 -1.336812,0 -2.005217,0 -0.668406,0 -1.336812,0 -2.005218,0 -0.668405,0 -1.336811,0 -2.005217,0 -0.0075,-0.0138 0.0093,-0.05748 0,-0.069 -0.0093,-0.01152 -0.04456,0.0092 -0.0557,0 -0.01855,0 -0.03715,0 -0.0557,0 -0.01855,0 -0.03715,0 -0.0557,0 -0.0075,-0.0138 0.0093,-0.05748 0,-0.069 -0.0093,-0.01152 -0.04456,0.0092 -0.0557,0 -0.0075,-0.0138 0.0093,-0.05748 0,-0.069 -0.0093,-0.01152 -0.04456,0.0092 -0.0557,0 0,-0.02298 0,-0.04602 0,-0.069 -0.01855,0 -0.03715,0 -0.0557,0 0,-0.02298 0,-0.04603 0,-0.069 0,-0.02298 0,-0.04603 0,-0.069 -0.0075,-0.0138 0.0093,-0.05748 0,-0.069 -0.0093,-0.01152 -0.04456,0.0092 -0.0557,0 0,-0.09198 0,-0.184032 0,-0.276014 0,-0.069 0,-0.138007 0,-0.207011 0,-0.04603 0,-0.09198 0,-0.138007 0,-0.069 0,-0.138007 0,-0.20701 0,-0.04603 0,-0.09198 0,-0.138007 0,-0.069 0,-0.138008 0,-0.207011 0,-0.04603 0,-0.09198 0,-0.138007 0,-0.069 0,-0.138007 0,-0.207011 0,-0.483025 0,-0.96605 0,-1.449074 0,-0.483025 0,-0.96605 0,-1.449075 0,-0.483025 0,-0.96605 0,-1.449075 0,-0.966049 0,-1.932099 0,-2.898149 0,-0.9660494 0,-1.9320991 0,-2.8981488 0.01114,-0.00918 0.0464,0.011524 0.0557,0 0.0093,-0.011524 -0.0075,-0.055203 0,-0.069004 0,-0.022978 0,-0.046025 0,-0.069003 0,-0.022978 0,-0.046025 0,-0.069004 0.01114,-0.00918 0.0464,0.011524 0.0557,0 0.0093,-0.011524 -0.0075,-0.055203 0,-0.069003 0.01114,-0.00918 0.0464,0.011524 0.0557,0 0.0093,-0.011524 -0.0075,-0.055203 0,-0.069004 0.01855,0 0.03715,0 0.0557,0 0,-0.022978 0,-0.046025 0,-0.069003 0.01855,0 0.03715,0 0.0557,0 0.01855,0 0.03715,0 0.0557,0 0.01114,-0.00918 0.0464,0.011524 0.0557,0 0.0093,-0.011524 -0.0075,-0.055203 0,-0.069004 z m 0.779807,3.8641988 c 0,0.805065 0,1.61006 0,2.415124 0,0.184033 0,0.367996 0,0.552029 0,0.20701 0,0.414021 0,0.621032 0,0.414021 0,0.828042 0,1.242064 0,0.828042 0,1.656085 0,2.484128 0.259954,0 0.519852,0 0.779807,0 0.946908,0 1.893816,0 2.840724,0 0.965456,0 1.930969,0 2.896425,0 0,-0.184033 0,-0.367996 0,-0.552029 0,-0.367996 0,-0.736061 0,-1.104057 0,-0.184032 0,-0.367996 0,-0.552028 0,-0.207011 0,-0.414021 0,-0.621032 0,-0.367996 0,-0.736061 0,-1.104057 0,-0.184032 0,-0.367996 0,-0.552028 0,-0.207011 0,-0.414022 0,-0.621032 0,-1.541057 0,-3.082182 0,-4.6232382 -0.259954,0 -0.519853,0 -0.779807,0 -0.464152,0 -0.92836,0 -1.392512,0 -0.24135,0 -0.482756,0 -0.724106,0 -0.24135,0 -0.482756,0 -0.724106,0 -0.24135,0 -0.482756,0 -0.724106,0 -0.241351,0 -0.482757,0 -0.724107,0 -0.24135,0 -0.482756,0 -0.724106,0 -0.24135,0 -0.482756,0 -0.724106,0 0,0.8050645 0,1.6100602 0,2.4151242 z"
     id="path240"
     inkscape:connector-curvature="0"
     style="clip-rule:evenodd;fill:#5a5a5a;fill-rule:evenodd;stroke-width:0.06199622" /><path
     d="m 22.670764,7.2130792 c 0.01855,0 0.03715,0 0.0557,0 0,0.022978 0,0.046025 0,0.069004 -0.01114,-0.00918 -0.0464,0.011524 -0.0557,0 -0.0093,-0.011524 0.0074,-0.055203 0,-0.069004 z"
     id="path242"
     inkscape:connector-curvature="0"
     style="clip-rule:evenodd;fill:#5a5a5a;fill-rule:evenodd;stroke-width:0.06199622" /><path
     d="m 22.726464,7.2820828 c 0,-0.022978 0,-0.046025 0,-0.069004 0.01114,0.00918 0.0464,-0.011524 0.0557,0 0.0093,0.011524 -0.0074,0.055203 0,0.069004 -0.01855,0 -0.03715,0 -0.0557,0 z"
     id="path244"
     inkscape:connector-curvature="0"
     style="clip-rule:evenodd;fill:#5a5a5a;fill-rule:evenodd;stroke-width:0.06199622" /><path
     d="m 14.371392,7.3510863 c 0.0075,-0.013801 -0.0093,-0.05748 0,-0.069003 0.0093,-0.011524 0.04456,0.00918 0.0557,0 0,0.022978 0,0.046025 0,0.069003 -0.01855,0 -0.03715,0 -0.0557,0 z"
     id="path246"
     inkscape:connector-curvature="0"
     style="clip-rule:evenodd;fill:#5a5a5a;fill-rule:evenodd;stroke-width:0.06199622" /><path
     d="m 22.837865,7.2820828 c 0.01114,0.00918 0.0464,-0.011524 0.0557,0 0.0093,0.011524 -0.0074,0.055203 0,0.069003 -0.01114,-0.00918 -0.0464,0.011524 -0.0557,0 -0.0093,-0.011524 0.0074,-0.055203 0,-0.069003 z"
     id="path248"
     inkscape:connector-curvature="0"
     style="clip-rule:evenodd;fill:#5a5a5a;fill-rule:evenodd;stroke-width:0.06199622" /><path
     d="m 14.315692,7.4200899 c 0.0075,-0.013801 -0.0093,-0.05748 0,-0.069004 0.0093,-0.011524 0.04456,0.00918 0.0557,0 -0.0075,0.013801 0.0093,0.05748 0,0.069004 -0.0093,0.011524 -0.04456,-0.00918 -0.0557,0 z"
     id="path250"
     inkscape:connector-curvature="0"
     style="clip-rule:evenodd;fill:#5a5a5a;fill-rule:evenodd;stroke-width:0.06199622" /><path
     d="m 22.893566,7.3510863 c 0.01114,0.00918 0.0464,-0.011524 0.0557,0 0.0093,0.011524 -0.0074,0.055203 0,0.069004 -0.01114,-0.00918 -0.0464,0.011524 -0.0557,0 -0.0093,-0.011524 0.0074,-0.055203 0,-0.069004 z"
     id="path252"
     inkscape:connector-curvature="0"
     style="clip-rule:evenodd;fill:#5a5a5a;fill-rule:evenodd;stroke-width:0.06199622" /><path
     d="m 14.259991,7.4890934 c 0,-0.022978 0,-0.046025 0,-0.069003 0.01855,0 0.03715,0 0.0557,0 -0.0075,0.013801 0.0093,0.05748 0,0.069003 -0.0093,0.011524 -0.04456,-0.00918 -0.0557,0 z"
     id="path254"
     inkscape:connector-curvature="0"
     style="clip-rule:evenodd;fill:#5a5a5a;fill-rule:evenodd;stroke-width:0.06199622" /><path
     d="m 22.949266,7.4200899 c 0.01114,0.00918 0.0464,-0.011524 0.0557,0 0.0093,0.011524 -0.0074,0.055203 0,0.069003 -0.01855,0 -0.03715,0 -0.0557,0 0,-0.022978 0,-0.045956 0,-0.069003 z"
     id="path256"
     inkscape:connector-curvature="0"
     style="clip-rule:evenodd;fill:#5a5a5a;fill-rule:evenodd;stroke-width:0.06199622" /><path
     d="m 14.204291,7.6271005 c 0.0075,-0.013801 -0.0093,-0.05748 0,-0.069003 0.0093,-0.011524 0.04456,0.00918 0.0557,0 0,0.022978 0,0.046025 0,0.069003 -0.01855,0 -0.03715,0 -0.0557,0 z"
     id="path258"
     inkscape:connector-curvature="0"
     style="clip-rule:evenodd;fill:#5a5a5a;fill-rule:evenodd;stroke-width:0.06199622" /><path
     d="m 23.004967,7.6271005 c 0,-0.022978 0,-0.046025 0,-0.069003 0.01855,0 0.03715,0 0.0557,0 0,0.022978 0,0.046025 0,0.069003 -0.01855,0 -0.03715,0 -0.0557,0 z"
     id="path260"
     inkscape:connector-curvature="0"
     style="clip-rule:evenodd;fill:#5a5a5a;fill-rule:evenodd;stroke-width:0.06199622" /><path
     d="m 14.204291,7.6961041 c 0,-0.022978 0,-0.046025 0,-0.069004 0.01855,0 0.03715,0 0.0557,0 -0.0075,0.013801 0.0093,0.05748 0,0.069004 -0.0093,0.011524 -0.04456,-0.00918 -0.0557,0 z"
     id="path262"
     inkscape:connector-curvature="0"
     style="clip-rule:evenodd;fill:#5a5a5a;fill-rule:evenodd;stroke-width:0.06199622" /><path
     d="m 23.004967,7.6271005 c 0.01855,0 0.03715,0 0.0557,0 0,0.022978 0,0.046025 0,0.069004 -0.01855,0 -0.03715,0 -0.0557,0 0,-0.022978 0,-0.045956 0,-0.069004 z"
     id="path264"
     inkscape:connector-curvature="0"
     style="clip-rule:evenodd;fill:#5a5a5a;fill-rule:evenodd;stroke-width:0.06199622" /><path
     d="m 8.1886389,16.94258 c 0.00741,-0.0138 -0.0093,-0.05748 0,-0.069 0.0093,-0.01152 0.04456,0.0092 0.0557,0 -0.00741,0.0138 0.0093,0.05748 0,0.069 -0.0093,0.01152 -0.04456,-0.0092 -0.0557,0 z"
     id="path266"
     inkscape:connector-curvature="0"
     style="clip-rule:evenodd;fill:#5a5a5a;fill-rule:evenodd;stroke-width:0.06199622" /><path
     d="m 8.2443394,16.873576 c 0.594157,0 1.1882583,0 1.7824156,0 0.29705,0 0.594157,0 0.891207,0 0.148554,0 0.297051,0 0.445604,0 0.167102,0 0.334203,0 0.501305,0 0,0.02298 0,0.04603 0,0.069 0.01114,0.0092 0.0464,-0.01152 0.0557,0 0.0093,0.01152 -0.0075,0.0552 0,0.069 0.01855,0 0.03715,0 0.0557,0 0,0.04603 0,0.09198 0,0.138007 0,0.02298 0,0.04603 0,0.069 0,0.02298 0,0.04603 0,0.069 0.01855,0 0.03715,0 0.0557,0 0,0.02298 0,0.04603 0,0.069 0,0.02298 0,0.04603 0,0.069 0.0075,0.0138 -0.0093,0.05748 0,0.069 0.0093,0.01152 0.04456,-0.0092 0.0557,0 0,0.04603 0,0.09198 0,0.138008 0,0.02298 0,0.04603 0,0.069 0,0.02298 0,0.04603 0,0.069 0.01855,0 0.03715,0 0.0557,0 0,0.04603 0,0.09198 0,0.138007 0,0.02298 0,0.04603 0,0.069 0,0.02298 0,0.04603 0,0.069 0.01855,0 0.03715,0 0.0557,0 0,0.02298 0,0.04603 0,0.069 0,0.02298 0,0.04603 0,0.069 0.0075,0.0138 -0.0093,0.05748 0,0.069 0.0093,0.01152 0.04456,-0.0092 0.0557,0 0,0.04603 0,0.09198 0,0.138008 0,0.02298 0,0.04603 0,0.069 0,0.02298 0,0.04603 0,0.069 0.01855,0 0.03715,0 0.0557,0 0,0.02298 0,0.04603 0,0.069 0,0.02298 0,0.04603 0,0.069 0.0075,0.0138 -0.0093,0.05748 0,0.069 0.0093,0.01152 0.04456,-0.0092 0.0557,0 0,0.02298 0,0.04603 0,0.069 0.0069,0.01732 -0.0086,0.05313 0,0.069 0.0059,0.01104 0.0479,-0.0097 0.0557,0 0.0093,0.01152 -0.0075,0.0552 0,0.069 0.01855,0 0.03715,0 0.0557,0 0,0.04603 0,0.09198 0,0.138007 0,0.02298 0,0.04603 0,0.069 0,0.02298 0,0.04603 0,0.069 0.01855,0 0.03715,0 0.0557,0 0,0.04603 0,0.09198 0,0.138007 0,0.02298 0,0.04603 0,0.069 0,0.02298 0,0.04603 0,0.069 -0.01114,0.0092 -0.0464,-0.01152 -0.0557,0 -0.0093,0.01152 0.0075,0.0552 0,0.069 0,0.02298 0,0.04603 0,0.069 -0.01114,0.0092 -0.0464,-0.01152 -0.0557,0 -0.0093,0.01152 0.0075,0.0552 0,0.069 -0.01855,0 -0.03715,0 -0.0557,0 0,0.02298 0,0.04603 0,0.069 -0.03715,0 -0.07425,0 -0.111401,0 -0.01855,0 -0.03715,0 -0.0557,0 -0.01855,0 -0.03715,0 -0.0557,0 -0.01114,0.0092 -0.0464,-0.01152 -0.0557,0 -0.0093,0.01152 0.0075,0.0552 0,0.069 -0.111401,0 -0.222802,0 -0.334203,0 -0.0075,-0.0138 0.0093,-0.05748 0,-0.069 -0.0049,-0.0061 -0.04801,0 -0.0557,0 -0.01855,0 -0.03715,0 -0.0557,0 -0.07425,0 -0.148553,0 -0.222802,0 -0.315655,0 -0.631254,0 -0.946908,0 -0.167102,0 -0.334203,0 -0.5013047,0 -0.1485532,0 -0.2970507,0 -0.4456039,0 -0.1671014,0 -0.3342028,0 -0.5013043,0 -0.1485531,0 -0.2970506,0 -0.4456038,0 -0.2970507,0 -0.594157,0 -0.8912077,0 -0.018548,0 -0.037152,0 -0.0557,0 0,-0.02298 0,-0.04603 0,-0.069 -0.00741,-0.0138 0.0093,-0.05748 0,-0.069 -0.0093,-0.01152 -0.04456,0.0092 -0.0557,0 0,-0.02298 0,-0.04602 0,-0.069 0,-0.02298 0,-0.04603 0,-0.069 0,-0.04603 0,-0.09198 0,-0.138007 0.01114,-0.0092 0.046398,0.01152 0.0557,0 0.0093,-0.01152 -0.00741,-0.0552 0,-0.069 0,-0.02298 0,-0.04603 0,-0.069 0,-0.069 0,-0.138007 0,-0.20701 0.01114,-0.0092 0.046398,0.01152 0.0557,0 0.0093,-0.01152 -0.00741,-0.0552 0,-0.069 0.00741,-0.0138 -0.0093,-0.05748 0,-0.069 0.0093,-0.01152 0.04456,0.0092 0.055701,0 0,-0.02298 0,-0.04603 0,-0.069 0,-0.069 0,-0.138007 0,-0.207011 0.01114,-0.0092 0.046398,0.01152 0.0557,0 0.0093,-0.01152 -0.00741,-0.0552 0,-0.069 0,-0.069 0,-0.138007 0,-0.207011 0.018548,0 0.037152,0 0.055701,0 0.01114,-0.0092 0.046398,0.01152 0.0557,0 0.0093,-0.01152 -0.00741,-0.0552 0,-0.069 0,-0.069 0,-0.138007 0,-0.20701 0.01114,-0.0092 0.046398,0.01152 0.0557,0 0.0093,-0.01152 -0.00741,-0.0552 0,-0.069 0,-0.069 0,-0.138007 0,-0.20701 0.01114,-0.0092 0.046398,0.01152 0.055701,0 0.0068,-0.0084 -0.00245,-0.05672 0,-0.069 0.00395,-0.0196 0,-0.04872 0,-0.069 0,-0.04603 0,-0.09198 0,-0.138008 0.01114,-0.0092 0.046398,0.01152 0.0557,0 0.0093,-0.01152 -0.00741,-0.0552 0,-0.069 0,-0.02298 0,-0.04603 0,-0.069 0,-0.02298 0,-0.04603 0,-0.069 0.01114,-0.0092 0.046399,0.01152 0.055701,0 0.0093,-0.01152 -0.00741,-0.0552 0,-0.069 0,-0.02298 0,-0.04603 0,-0.069 0.01114,-0.0092 0.046399,0.01152 0.0557,0 0.0093,-0.01152 -0.00741,-0.0552 0,-0.069 0,-0.02298 0,-0.04603 0,-0.069 0,-0.02298 0,-0.04603 0,-0.069 0.01114,-0.0092 0.046398,0.01152 0.0557,0 0.0093,-0.01152 -0.00746,-0.0552 0,-0.069 z"
     id="path268"
     inkscape:connector-curvature="0"
     style="clip-rule:evenodd;fill:#5a5a5a;fill-rule:evenodd;stroke-width:0.06199622" /><path
     d="m 8.1329385,17.080587 c 0.00741,-0.0138 -0.0093,-0.05748 0,-0.069 0.0093,-0.01152 0.04456,0.0092 0.0557,0 0,0.02298 0,0.04603 0,0.069 -0.018604,0 -0.037152,0 -0.0557,0 z"
     id="path270"
     inkscape:connector-curvature="0"
     style="clip-rule:evenodd;fill:#5a5a5a;fill-rule:evenodd;stroke-width:0.06199622" /><path
     d="m 8.1329385,17.149591 c 0,-0.02298 0,-0.04603 0,-0.069 0.018548,0 0.037152,0 0.0557,0 -0.00741,0.0138 0.0093,0.05748 0,0.069 -0.0093,0.01152 -0.04456,-0.0092 -0.0557,0 z"
     id="path272"
     inkscape:connector-curvature="0"
     style="clip-rule:evenodd;fill:#5a5a5a;fill-rule:evenodd;stroke-width:0.06199622" /><path
     d="m 11.976272,17.218594 c 0,-0.02298 0,-0.04603 0,-0.069 0.01114,0.0092 0.0464,-0.01152 0.0557,0 0.0093,0.01152 -0.0075,0.0552 0,0.069 -0.01855,0 -0.03715,0 -0.0557,0 z"
     id="path274"
     inkscape:connector-curvature="0"
     style="clip-rule:evenodd;fill:#5a5a5a;fill-rule:evenodd;stroke-width:0.06199622" /><path
     d="m 8.077238,17.287598 c 0.00741,-0.0138 -0.0093,-0.05748 0,-0.069 0.0093,-0.01152 0.04456,0.0092 0.055701,0 -0.00741,0.0138 0.0093,0.05748 0,0.069 -0.0093,0.01152 -0.04456,-0.0092 -0.055701,0 z"
     id="path276"
     inkscape:connector-curvature="0"
     style="clip-rule:evenodd;fill:#5a5a5a;fill-rule:evenodd;stroke-width:0.06199622" /><path
     d="m 11.976272,17.218594 c 0.01855,0 0.03715,0 0.0557,0 0,0.02298 0,0.04603 0,0.069 -0.01855,0 -0.03715,0 -0.0557,0 0,-0.02298 0,-0.04603 0,-0.069 z"
     id="path278"
     inkscape:connector-curvature="0"
     style="clip-rule:evenodd;fill:#5a5a5a;fill-rule:evenodd;stroke-width:0.06199622" /><path
     d="m 8.0215375,17.425605 c 0.00741,-0.0138 -0.0093,-0.05748 0,-0.069 0.0093,-0.01152 0.04456,0.0092 0.0557,0 0,0.02298 0,0.04603 0,0.069 -0.018604,0 -0.037152,0 -0.0557,0 z"
     id="path280"
     inkscape:connector-curvature="0"
     style="clip-rule:evenodd;fill:#5a5a5a;fill-rule:evenodd;stroke-width:0.06199622" /><path
     d="m 12.031972,17.425605 c 0,-0.02298 0,-0.04603 0,-0.069 0.01855,0 0.03715,0 0.0557,0 0,0.02298 0,0.04603 0,0.069 -0.01855,0 -0.03715,0 -0.0557,0 z"
     id="path282"
     inkscape:connector-curvature="0"
     style="clip-rule:evenodd;fill:#5a5a5a;fill-rule:evenodd;stroke-width:0.06199622" /><path
     d="m 8.0215375,17.494608 c 0,-0.02298 0,-0.04603 0,-0.069 0.018548,0 0.037152,0 0.0557,0 -0.00741,0.0138 0.0093,0.05748 0,0.069 -0.0093,0.01152 -0.04456,-0.0092 -0.0557,0 z"
     id="path284"
     inkscape:connector-curvature="0"
     style="clip-rule:evenodd;fill:#5a5a5a;fill-rule:evenodd;stroke-width:0.06199622" /><path
     d="m 12.031972,17.425605 c 0.01855,0 0.03715,0 0.0557,0 0,0.02298 0,0.04603 0,0.069 -0.01114,-0.0092 -0.0464,0.01152 -0.0557,0 -0.0093,-0.01152 0.0075,-0.0552 0,-0.069 z"
     id="path286"
     inkscape:connector-curvature="0"
     style="clip-rule:evenodd;fill:#5a5a5a;fill-rule:evenodd;stroke-width:0.06199622" /><path
     d="m 12.087673,17.701619 c 0,-0.02298 0,-0.04603 0,-0.069 0.01855,0 0.03715,0 0.0557,0 0,0.02298 0,0.04603 0,0.069 -0.01855,0 -0.03715,0 -0.0557,0 z"
     id="path288"
     inkscape:connector-curvature="0"
     style="clip-rule:evenodd;fill:#5a5a5a;fill-rule:evenodd;stroke-width:0.06199622" /><path
     d="m 12.087673,17.701619 c 0.01855,0 0.03715,0 0.0557,0 0,0.02298 0,0.04603 0,0.069 -0.01855,0 -0.03715,0 -0.0557,0 0,-0.02298 0,-0.04603 0,-0.069 z"
     id="path290"
     inkscape:connector-curvature="0"
     style="clip-rule:evenodd;fill:#5a5a5a;fill-rule:evenodd;stroke-width:0.06199622" /><path
     d="m 7.965837,17.770623 c 0,0.069 0,0.138007 0,0.20701 -0.018548,0 -0.037152,0 -0.0557,0 0,-0.069 0,-0.138007 0,-0.20701 0.018548,0 0.037097,0 0.0557,0 z"
     id="path292"
     inkscape:connector-curvature="0"
     style="clip-rule:evenodd;fill:#5a5a5a;fill-rule:evenodd;stroke-width:0.06199622" /><path
     d="m 12.143373,17.977633 c 0,-0.02298 0,-0.04603 0,-0.069 0.01114,0.0092 0.0464,-0.01152 0.0557,0 0.0093,0.01152 -0.0075,0.0552 0,0.069 -0.01855,0 -0.03715,0 -0.0557,0 z"
     id="path294"
     inkscape:connector-curvature="0"
     style="clip-rule:evenodd;fill:#5a5a5a;fill-rule:evenodd;stroke-width:0.06199622" /><path
     d="m 7.9101365,18.046637 c 0,-0.02298 0,-0.04603 0,-0.069 0.018548,0 0.037152,0 0.0557,0 -0.00741,0.0138 0.0093,0.05748 0,0.069 -0.0093,0.01152 -0.04456,-0.0092 -0.0557,0 z"
     id="path296"
     inkscape:connector-curvature="0"
     style="clip-rule:evenodd;fill:#5a5a5a;fill-rule:evenodd;stroke-width:0.06199622" /><path
     d="m 12.143373,17.977633 c 0.01855,0 0.03715,0 0.0557,0 0,0.02298 0,0.04603 0,0.069 -0.01855,0 -0.03715,0 -0.0557,0 0,-0.02298 0,-0.04603 0,-0.069 z"
     id="path298"
     inkscape:connector-curvature="0"
     style="clip-rule:evenodd;fill:#5a5a5a;fill-rule:evenodd;stroke-width:0.06199622" /><path
     d="m 7.9101365,18.046637 c 0,0.069 0,0.138007 0,0.20701 -0.018548,0 -0.037152,0 -0.0557,0 0,-0.069 0,-0.138007 0,-0.20701 0.018548,0 0.037096,0 0.0557,0 z"
     id="path300"
     inkscape:connector-curvature="0"
     style="clip-rule:evenodd;fill:#5a5a5a;fill-rule:evenodd;stroke-width:0.06199622" /><path
     d="m 12.199073,18.184644 c 0,-0.02298 0,-0.04603 0,-0.069 0.01855,0 0.03715,0 0.0557,0 0,0.02298 0,0.04603 0,0.069 -0.01855,0 -0.03715,0 -0.0557,0 z"
     id="path302"
     inkscape:connector-curvature="0"
     style="clip-rule:evenodd;fill:#5a5a5a;fill-rule:evenodd;stroke-width:0.06199622" /><path
     d="m 12.199073,18.184644 c 0.01855,0 0.03715,0 0.0557,0 0,0.02298 0,0.04603 0,0.069 -0.01114,-0.0092 -0.0464,0.01152 -0.0557,0 -0.0093,-0.01152 0.0075,-0.0552 0,-0.069 z"
     id="path304"
     inkscape:connector-curvature="0"
     style="clip-rule:evenodd;fill:#5a5a5a;fill-rule:evenodd;stroke-width:0.06199622" /><path
     d="m 7.7987356,18.322651 c 0.00741,-0.0138 -0.0093,-0.05748 0,-0.069 0.0093,-0.01152 0.04456,0.0092 0.055701,0 0,0.02298 0,0.04603 0,0.069 -0.018604,0 -0.037152,0 -0.055701,0 z"
     id="path306"
     inkscape:connector-curvature="0"
     style="clip-rule:evenodd;fill:#5a5a5a;fill-rule:evenodd;stroke-width:0.06199622" /><path
     d="m 7.8544361,18.322651 c 0,-0.02298 0,-0.04603 0,-0.069 0.018548,0 0.037152,0 0.0557,0 -0.00741,0.0138 0.0093,0.05748 0,0.069 -0.0093,0.01152 -0.04456,-0.0092 -0.0557,0 z"
     id="path308"
     inkscape:connector-curvature="0"
     style="clip-rule:evenodd;fill:#5a5a5a;fill-rule:evenodd;stroke-width:0.06199622" /><path
     d="m 12.254774,18.460658 c 0,-0.02298 0,-0.04603 0,-0.069 0.01114,0.0092 0.0464,-0.01152 0.0557,0 0.0093,0.01152 -0.0075,0.0552 0,0.069 -0.01855,0 -0.03715,0 -0.0557,0 z"
     id="path310"
     inkscape:connector-curvature="0"
     style="clip-rule:evenodd;fill:#5a5a5a;fill-rule:evenodd;stroke-width:0.06199622" /><path
     d="m 12.254774,18.460658 c 0.01855,0 0.03715,0 0.0557,0 0,0.02298 0,0.04603 0,0.069 -0.01855,0 -0.03715,0 -0.0557,0 0,-0.02298 0,-0.04603 0,-0.069 z"
     id="path312"
     inkscape:connector-curvature="0"
     style="clip-rule:evenodd;fill:#5a5a5a;fill-rule:evenodd;stroke-width:0.06199622" /><path
     d="m 7.7430351,18.598665 c 0.00741,-0.0138 -0.0093,-0.05748 0,-0.069 0.0093,-0.01152 0.04456,0.0092 0.0557,0 -0.00741,0.0138 0.0093,0.05748 0,0.069 -0.0093,0.01152 -0.04456,-0.0092 -0.0557,0 z"
     id="path314"
     inkscape:connector-curvature="0"
     style="clip-rule:evenodd;fill:#5a5a5a;fill-rule:evenodd;stroke-width:0.06199622" /><path
     d="m 12.310474,18.667669 c 0,-0.02298 0,-0.04603 0,-0.069 0.01114,0.0092 0.0464,-0.01152 0.0557,0 0.0093,0.01152 -0.0075,0.0552 0,0.069 -0.01855,0 -0.03715,0 -0.0557,0 z"
     id="path316"
     inkscape:connector-curvature="0"
     style="clip-rule:evenodd;fill:#5a5a5a;fill-rule:evenodd;stroke-width:0.06199622" /><path
     d="m 12.310474,18.667669 c 0.01855,0 0.03715,0 0.0557,0 0,0.02298 0,0.04603 0,0.069 -0.01114,-0.0092 -0.0464,0.01152 -0.0557,0 -0.0093,-0.01152 0.0075,-0.0552 0,-0.069 z"
     id="path318"
     inkscape:connector-curvature="0"
     style="clip-rule:evenodd;fill:#5a5a5a;fill-rule:evenodd;stroke-width:0.06199622" /><path
     d="m 7.6316341,19.012687 c 0,-0.02298 0,-0.04603 0,-0.069 0.018548,0 0.037152,0 0.0557,0 -0.00741,0.0138 0.0093,0.05748 0,0.069 -0.0093,0.01152 -0.04456,-0.0092 -0.0557,0 z"
     id="path320"
     inkscape:connector-curvature="0"
     style="clip-rule:evenodd;fill:#5a5a5a;fill-rule:evenodd;stroke-width:0.06199622" /><path
     d="m 12.477576,19.150694 c 0,-0.02298 0,-0.04603 0,-0.069 0.01855,0 0.03715,0 0.0557,0 0,0.02298 0,0.04603 0,0.069 -0.01855,0 -0.03715,0 -0.0557,0 z"
     id="path322"
     inkscape:connector-curvature="0"
     style="clip-rule:evenodd;fill:#5a5a5a;fill-rule:evenodd;stroke-width:0.06199622" /><path
     d="m 12.477576,19.150694 c 0.01855,0 0.03715,0 0.0557,0 0,0.02298 0,0.04603 0,0.069 -0.01855,0 -0.03715,0 -0.0557,0 0,-0.02298 0,-0.04603 0,-0.069 z"
     id="path324"
     inkscape:connector-curvature="0"
     style="clip-rule:evenodd;fill:#5a5a5a;fill-rule:evenodd;stroke-width:0.06199622" /><path
     d="m 7.5759337,19.288701 c 0.00741,-0.0138 -0.0093,-0.05748 0,-0.069 0.0093,-0.01152 0.04456,0.0092 0.0557,0 0,0.02298 0,0.04603 0,0.069 -0.018604,0 -0.037152,0 -0.0557,0 z"
     id="path326"
     inkscape:connector-curvature="0"
     style="clip-rule:evenodd;fill:#5a5a5a;fill-rule:evenodd;stroke-width:0.06199622" /><path
     d="m 7.5759337,19.357704 c 0,-0.02298 0,-0.04602 0,-0.069 0.018548,0 0.037152,0 0.0557,0 -0.00741,0.0138 0.0093,0.05748 0,0.069 -0.0093,0.01152 -0.04456,-0.0092 -0.0557,0 z"
     id="path328"
     inkscape:connector-curvature="0"
     style="clip-rule:evenodd;fill:#5a5a5a;fill-rule:evenodd;stroke-width:0.06199622" /><path
     d="m 7.5759337,19.357704 c 0,0.04603 0,0.09198 0,0.138007 -0.018548,0 -0.037152,0 -0.055701,0 0,-0.02298 0,-0.04603 0,-0.069 0,-0.0095 -0.0049,-0.06293 0,-0.069 0.00925,-0.01152 0.04456,0.0092 0.055701,0 z"
     id="path330"
     inkscape:connector-curvature="0"
     style="clip-rule:evenodd;fill:#5a5a5a;fill-rule:evenodd;stroke-width:0.06199622" /><path
     d="m 12.533276,19.426708 c 0,-0.02298 0,-0.04603 0,-0.069 0.01114,0.0092 0.0464,-0.01152 0.0557,0 0.0093,0.01152 -0.0075,0.0552 0,0.069 -0.01855,0 -0.03715,0 -0.0557,0 z"
     id="path332"
     inkscape:connector-curvature="0"
     style="clip-rule:evenodd;fill:#5a5a5a;fill-rule:evenodd;stroke-width:0.06199622" /><path
     d="m 14.204291,19.426708 c 0,-0.02298 0,-0.04603 0,-0.069 0.01114,0.0092 0.0464,-0.01152 0.0557,0 0.0093,0.01152 -0.0075,0.0552 0,0.069 -0.01855,0 -0.03715,0 -0.0557,0 z"
     id="path334"
     inkscape:connector-curvature="0"
     style="clip-rule:evenodd;fill:#5a5a5a;fill-rule:evenodd;stroke-width:0.06199622" /><path
     d="m 23.004967,19.426708 c 0.0075,-0.0138 -0.0093,-0.05748 0,-0.069 0.0093,-0.01152 0.04456,0.0092 0.0557,0 0,0.02298 0,0.04603 0,0.069 -0.01855,0 -0.03715,0 -0.0557,0 z"
     id="path336"
     inkscape:connector-curvature="0"
     style="clip-rule:evenodd;fill:#5a5a5a;fill-rule:evenodd;stroke-width:0.06199622" /><path
     d="m 12.533276,19.495711 c 0,-0.02298 0,-0.04603 0,-0.069 0.01855,0 0.03715,0 0.0557,0 0,0.02298 0,0.04603 0,0.069 -0.01855,0 -0.03715,0 -0.0557,0 z"
     id="path338"
     inkscape:connector-curvature="0"
     style="clip-rule:evenodd;fill:#5a5a5a;fill-rule:evenodd;stroke-width:0.06199622" /><path
     d="m 14.204291,19.426708 c 0.01855,0 0.03715,0 0.0557,0 0,0.02298 0,0.04603 0,0.069 -0.01114,-0.0092 -0.0464,0.01152 -0.0557,0 -0.0093,-0.01152 0.0075,-0.0552 0,-0.069 z"
     id="path340"
     inkscape:connector-curvature="0"
     style="clip-rule:evenodd;fill:#5a5a5a;fill-rule:evenodd;stroke-width:0.06199622" /><path
     d="m 23.004967,19.495711 c 0,-0.02298 0,-0.04603 0,-0.069 0.01855,0 0.03715,0 0.0557,0 0,0.02298 0,0.04603 0,0.069 -0.01855,0 -0.03715,0 -0.0557,0 z"
     id="path342"
     inkscape:connector-curvature="0"
     style="clip-rule:evenodd;fill:#5a5a5a;fill-rule:evenodd;stroke-width:0.06199622" /><path
     d="m 7.5202332,19.495711 c 0.018548,0 0.037152,0 0.055701,0 0,0.02298 0,0.04603 0,0.069 -0.01114,-0.0092 -0.046399,0.01152 -0.055701,0 -0.0093,-0.01152 0.00741,-0.0552 0,-0.069 z"
     id="path344"
     inkscape:connector-curvature="0"
     style="clip-rule:evenodd;fill:#5a5a5a;fill-rule:evenodd;stroke-width:0.06199622" /><path
     d="m 12.477576,19.564715 c 0.0075,-0.0138 -0.0093,-0.05748 0,-0.069 0.0093,-0.01152 0.04456,0.0092 0.0557,0 0,0.02298 0,0.04603 0,0.069 -0.01855,0 -0.03715,0 -0.0557,0 z"
     id="path346"
     inkscape:connector-curvature="0"
     style="clip-rule:evenodd;fill:#5a5a5a;fill-rule:evenodd;stroke-width:0.06199622" /><path
     d="m 12.533276,19.564715 c 0,-0.02298 0,-0.04603 0,-0.069 0.01855,0 0.03715,0 0.0557,0 0,0.02298 0,0.04603 0,0.069 -0.01855,0 -0.03715,0 -0.0557,0 z"
     id="path348"
     inkscape:connector-curvature="0"
     style="clip-rule:evenodd;fill:#5a5a5a;fill-rule:evenodd;stroke-width:0.06199622" /><path
     d="m 0.05636889,19.564715 c 0.01114009,0.0092 0.0463985,-0.01152 0.05570048,0 0.009302,0.01152 -0.007408,0.0552 0,0.069 -0.01854826,0 -0.03715222,0 -0.05570048,0 0,-0.02298 0,-0.04602 0,-0.069 z"
     id="path350"
     inkscape:connector-curvature="0"
     style="clip-rule:evenodd;fill:#5a5a5a;fill-rule:evenodd;stroke-width:0.06199622" /><path
     d="m 12.477576,19.633718 c 0,-0.02298 0,-0.04602 0,-0.069 0.01855,0 0.03715,0 0.0557,0 -0.0075,0.0138 0.0093,0.05748 0,0.069 -0.0093,0.01152 -0.04456,-0.0092 -0.0557,0 z"
     id="path352"
     inkscape:connector-curvature="0"
     style="clip-rule:evenodd;fill:#5a5a5a;fill-rule:evenodd;stroke-width:0.06199622" /><path
     d="m 14.259991,19.564715 c 0.01855,0 0.03715,0 0.0557,0 0,0.02298 0,0.04603 0,0.069 -0.01114,-0.0092 -0.0464,0.01152 -0.0557,0 -0.0093,-0.01152 0.0075,-0.0552 0,-0.069 z"
     id="path354"
     inkscape:connector-curvature="0"
     style="clip-rule:evenodd;fill:#5a5a5a;fill-rule:evenodd;stroke-width:0.06199622" /><path
     d="m 22.949266,19.633718 c 0.0075,-0.0138 -0.0093,-0.05748 0,-0.069 0.0093,-0.01152 0.04456,0.0092 0.0557,0 -0.0075,0.0138 0.0093,0.05748 0,0.069 -0.0093,0.01152 -0.04456,-0.0092 -0.0557,0 z"
     id="path356"
     inkscape:connector-curvature="0"
     style="clip-rule:evenodd;fill:#5a5a5a;fill-rule:evenodd;stroke-width:0.06199622" /><path
     d="m 7.5759337,19.633718 c 0.01114,0.0092 0.046398,-0.01152 0.0557,0 0.0093,0.01152 -0.00741,0.0552 0,0.069 -0.01114,-0.0092 -0.046399,0.01152 -0.0557,0 -0.0093,-0.01152 0.00741,-0.0552 0,-0.069 z"
     id="path358"
     inkscape:connector-curvature="0"
     style="clip-rule:evenodd;fill:#5a5a5a;fill-rule:evenodd;stroke-width:0.06199622" /><path
     d="m 12.421875,19.702722 c 0.0075,-0.0138 -0.0093,-0.05748 0,-0.069 0.0093,-0.01152 0.04456,0.0092 0.0557,0 -0.0075,0.0138 0.0093,0.05748 0,0.069 -0.0093,0.01152 -0.04456,-0.0092 -0.0557,0 z"
     id="path360"
     inkscape:connector-curvature="0"
     style="clip-rule:evenodd;fill:#5a5a5a;fill-rule:evenodd;stroke-width:0.06199622" /><path
     d="m 14.315692,19.633718 c 0.01114,0.0092 0.0464,-0.01152 0.0557,0 0.0093,0.01152 -0.0075,0.0552 0,0.069 -0.01114,-0.0092 -0.0464,0.01152 -0.0557,0 -0.0093,-0.01152 0.0075,-0.0552 0,-0.069 z"
     id="path362"
     inkscape:connector-curvature="0"
     style="clip-rule:evenodd;fill:#5a5a5a;fill-rule:evenodd;stroke-width:0.06199622" /><path
     d="m 22.893566,19.702722 c 0.0075,-0.0138 -0.0093,-0.05748 0,-0.069 0.0093,-0.01152 0.04456,0.0092 0.0557,0 -0.0075,0.0138 0.0093,0.05748 0,0.069 -0.0093,0.01152 -0.04456,-0.0092 -0.0557,0 z"
     id="path364"
     inkscape:connector-curvature="0"
     style="clip-rule:evenodd;fill:#5a5a5a;fill-rule:evenodd;stroke-width:0.06199622" /><path
     d="m 12.366175,19.771726 c 0,-0.02298 0,-0.04603 0,-0.069 0.01855,0 0.03715,0 0.0557,0 -0.0075,0.0138 0.0093,0.05748 0,0.069 -0.0093,0.01152 -0.04456,-0.0092 -0.0557,0 z"
     id="path366"
     inkscape:connector-curvature="0"
     style="clip-rule:evenodd;fill:#5a5a5a;fill-rule:evenodd;stroke-width:0.06199622" /><path
     d="m 14.371392,19.702722 c 0.01114,0.0092 0.0464,-0.01152 0.0557,0 0.0093,0.01152 -0.0075,0.0552 0,0.069 -0.01855,0 -0.03715,0 -0.0557,0 0,-0.02298 0,-0.04603 0,-0.069 z"
     id="path368"
     inkscape:connector-curvature="0"
     style="clip-rule:evenodd;fill:#5a5a5a;fill-rule:evenodd;stroke-width:0.06199622" /><path
     d="m 22.837865,19.771726 c 0,-0.02298 0,-0.04603 0,-0.069 0.01855,0 0.03715,0 0.0557,0 -0.0075,0.0138 0.0093,0.05748 0,0.069 -0.0093,0.01152 -0.04456,-0.0092 -0.0557,0 z"
     id="path370"
     inkscape:connector-curvature="0"
     style="clip-rule:evenodd;fill:#5a5a5a;fill-rule:evenodd;stroke-width:0.06199622" /><path
     d="m 7.6316341,19.840729 c 0,-0.02298 0,-0.04603 0,-0.069 0.018548,0 0.037152,0 0.0557,0 0,0.02298 0,0.04603 0,0.069 -0.018604,0 -0.037152,0 -0.0557,0 z"
     id="path372"
     inkscape:connector-curvature="0"
     style="clip-rule:evenodd;fill:#5a5a5a;fill-rule:evenodd;stroke-width:0.06199622" /><path
     d="m 7.6873346,19.840729 c 0,-0.02298 0,-0.04603 0,-0.069 0.2970507,0 0.594157,0 0.8912077,0 0.1485532,0 0.2970507,0 0.4456038,0 0.1671015,0 0.3342029,0 0.5013043,0 0.1485532,0 0.2970507,0 0.4456039,0 0.1671017,0 0.3342027,0 0.5013047,0 0.315654,0 0.631253,0 0.946908,0 0,0.02298 0,0.04603 0,0.069 -0.315655,0 -0.631254,0 -0.946908,0 -0.167102,0 -0.334203,0 -0.5013047,0 -0.1485532,0 -0.2970507,0 -0.4456039,0 -0.1671014,0 -0.3342028,0 -0.5013043,0 -0.1485531,0 -0.2970506,0 -0.4456038,0 -0.2971064,0 -0.594157,0 -0.8912077,0 z"
     id="path374"
     inkscape:connector-curvature="0"
     style="clip-rule:evenodd;fill:#5a5a5a;fill-rule:evenodd;stroke-width:0.06199622" /><path
     d="m 11.419267,19.840729 c 0,-0.02298 0,-0.04603 0,-0.069 0.07425,0 0.148553,0 0.222802,0 0,0.02298 0,0.04603 0,0.069 -0.07425,0 -0.148553,0 -0.222802,0 z"
     id="path376"
     inkscape:connector-curvature="0"
     style="clip-rule:evenodd;fill:#5a5a5a;fill-rule:evenodd;stroke-width:0.06199622" /><path
     d="m 11.642069,19.840729 c 0,-0.02298 0,-0.04603 0,-0.069 0.01855,0 0.03715,0 0.0557,0 0.0077,0 0.0508,-0.0061 0.0557,0 0.0093,0.01152 -0.0075,0.0552 0,0.069 -0.03715,0 -0.07425,0 -0.111401,0 z"
     id="path378"
     inkscape:connector-curvature="0"
     style="clip-rule:evenodd;fill:#5a5a5a;fill-rule:evenodd;stroke-width:0.06199622" /><path
     d="m 12.087673,19.840729 c 0.0075,-0.0138 -0.0093,-0.05748 0,-0.069 0.0093,-0.01152 0.04456,0.0092 0.0557,0 0,0.02298 0,0.04603 0,0.069 -0.01855,0 -0.03715,0 -0.0557,0 z"
     id="path380"
     inkscape:connector-curvature="0"
     style="clip-rule:evenodd;fill:#5a5a5a;fill-rule:evenodd;stroke-width:0.06199622" /><path
     d="m 12.143373,19.840729 c 0,-0.02298 0,-0.04603 0,-0.069 0.01855,0 0.03715,0 0.0557,0 0,0.02298 0,0.04603 0,0.069 -0.01855,0 -0.03715,0 -0.0557,0 z"
     id="path382"
     inkscape:connector-curvature="0"
     style="clip-rule:evenodd;fill:#5a5a5a;fill-rule:evenodd;stroke-width:0.06199622" /><path
     d="m 12.199073,19.840729 c 0,-0.02298 0,-0.04603 0,-0.069 0.01855,0 0.03715,0 0.0557,0 0,0.02298 0,0.04603 0,0.069 -0.01855,0 -0.03715,0 -0.0557,0 z"
     id="path384"
     inkscape:connector-curvature="0"
     style="clip-rule:evenodd;fill:#5a5a5a;fill-rule:evenodd;stroke-width:0.06199622" /><path
     d="m 14.482793,19.840729 c 0,-0.02298 0,-0.04603 0,-0.069 0.01855,0 0.03715,0 0.0557,0 0,0.02298 0,0.04603 0,0.069 -0.01855,0 -0.03715,0 -0.0557,0 z"
     id="path386"
     inkscape:connector-curvature="0"
     style="clip-rule:evenodd;fill:#5a5a5a;fill-rule:evenodd;stroke-width:0.06199622" /><path
     d="m 14.538494,19.840729 c 0,-0.02298 0,-0.04603 0,-0.069 0.01114,0.0092 0.0464,-0.01152 0.0557,0 0.0093,0.01152 -0.0075,0.0552 0,0.069 -0.01855,0 -0.03715,0 -0.0557,0 z"
     id="path388"
     inkscape:connector-curvature="0"
     style="clip-rule:evenodd;fill:#5a5a5a;fill-rule:evenodd;stroke-width:0.06199622" /><path
     d="m 22.670764,19.840729 c 0.0075,-0.0138 -0.0093,-0.05748 0,-0.069 0.0093,-0.01152 0.04456,0.0092 0.0557,0 0,0.02298 0,0.04603 0,0.069 -0.01855,0 -0.03715,0 -0.0557,0 z"
     id="path390"
     inkscape:connector-curvature="0"
     style="clip-rule:evenodd;fill:#5a5a5a;fill-rule:evenodd;stroke-width:0.06199622" /><path
     d="m 22.726464,19.840729 c 0,-0.02298 0,-0.04603 0,-0.069 0.01855,0 0.03715,0 0.0557,0 0,0.02298 0,0.04603 0,0.069 -0.01855,0 -0.03715,0 -0.0557,0 z"
     id="path392"
     inkscape:connector-curvature="0"
     style="clip-rule:evenodd;fill:#5a5a5a;fill-rule:evenodd;stroke-width:0.06199622" /><path
     d="m 12.366175,18.805676 c 0.01855,0 0.03715,0 0.0557,0 0.0075,0.0138 -0.0093,0.05748 0,0.069 0.0078,0.0097 0.0498,-0.01104 0.0557,0 0.0086,0.01587 -0.0069,0.05168 0,0.069 -0.01855,0 -0.03715,0 -0.0557,0 -0.0075,-0.0138 0.0093,-0.05748 0,-0.069 -0.0078,-0.0097 -0.0498,0.01104 -0.0557,0 -0.0086,-0.01587 0.0069,-0.05168 0,-0.069 z"
     id="path394"
     inkscape:connector-curvature="0"
     style="clip-rule:evenodd;fill:#5a5a5a;fill-rule:evenodd;stroke-width:0.06199622" /><path
     d="m 11.864871,16.873576 c 0.01855,0 0.03715,0 0.0557,0 0.0075,0.0138 -0.0093,0.05748 0,0.069 0.0078,0.0097 0.0498,-0.01104 0.0557,0 0.0086,0.01587 -0.0069,0.05168 0,0.069 -0.01855,0 -0.03715,0 -0.0557,0 -0.0075,-0.0138 0.0093,-0.05748 0,-0.069 -0.0093,-0.01152 -0.04456,0.0092 -0.0557,0 0,-0.02298 0,-0.04603 0,-0.069 z"
     id="path396"
     inkscape:connector-curvature="0"
     style="clip-rule:evenodd;fill:#5a5a5a;fill-rule:evenodd;stroke-width:0.06199622" /><path
     d="m 7.6316341,18.943683 c 0,-0.02298 0,-0.04603 0,-0.069 0.01114,-0.0092 0.046398,0.01152 0.0557,0 0.0078,-0.0097 -0.00891,-0.06169 0,-0.069 0.012867,-0.01063 0.04172,0.0085 0.055701,0 0,0.02298 0,0.04603 0,0.069 -0.01114,0.0092 -0.046399,-0.01152 -0.055701,0 -0.0093,0.01152 0.00741,0.0552 0,0.069 -0.018604,0 -0.037152,0 -0.0557,0 z"
     id="path398"
     inkscape:connector-curvature="0"
     style="clip-rule:evenodd;fill:#5a5a5a;fill-rule:evenodd;stroke-width:0.06199622" /><path
     d="m 19.105933,1.0641038 c -0.0093,-0.0118 0.0074,-0.056721 0,-0.0709357 V 0.78036116 c -0.01114,-0.009453 -0.0464,0.0117996 -0.0557,0 -0.0093,-0.0117996 0.0074,-0.0567209 0,-0.0709357 v -0.1418713 h -0.0557 v -0.0709356 c -0.01114,-0.009453 -0.0464,0.0117996 -0.0557,0 -0.0093,-0.0117996 0.0074,-0.0567209 0,-0.0709356 -0.01114,-0.009453 -0.0464,0.0117996 -0.0557,0 -0.0093,-0.0117996 0.0074,-0.0567209 0,-0.0709357 -0.0074,-0.0142147 0.0093,-0.0591361 0,-0.0709357 -0.0093,-0.0117996 -0.04456,0.009453 -0.0557,0 h -0.0557 v -0.0710047 c -0.01114,-0.009453 -0.0464,0.0117996 -0.0557,0 -0.0093,-0.0117996 0.0074,-0.0567209 0,-0.0709356 h -0.0557 c -0.01114,-0.009453 -0.0464,0.0117996 -0.0557,0 -0.0093,-0.0117996 0.0074,-0.05672092 0,-0.07093565 h -0.167102 c -0.01114,-0.0094535 -0.0464,0.01179961 -0.0557,0 -0.0093,-0.01179961 0.0074,-0.05672092 0,-0.07093565 H 1.7830838 c -6.684e-4,0.00117306 -6.684e-4,0.00303616 -10e-4,0.00462324 -7.799e-4,0 -0.0015,-1.3801e-4 -0.00234,-1.3801e-4 L 1.7830838,0 C 1.3520734,0 1.003277,0.47591749 1.003277,1.0641038 l 0.00167,-0.00221 c 0,4.14e-4 1.114e-4,8.28e-4 1.671e-4,0.00124 -5.57e-5,3.45e-4 -1.114e-4,6.21e-4 -1.114e-4,9.661e-4 h -0.00167 V 13.124337 H 2.1730428 V 1.4897867 H 17.991979 v 5.7463397 h 1.16971 V 1.0641038 c -0.0112,-0.00945 -0.04645,0.011869 -0.05576,0 z"
     id="path400"
     inkscape:connector-curvature="0"
     style="clip-rule:evenodd;fill:#5a5a5a;fill-rule:evenodd;stroke-width:0.06199622" /><path
     d="m 3.3426972,19.395518 v -2.900081 c 9.469e-4,-6.9e-5 0.00189,-2.76e-4 0.0029,-4.14e-4 v 0.0036 H 14.204291 V 14.971494 H 3.3455379 v 0.002 c -10e-4,0 -0.00189,5.52e-4 -0.0029,6.21e-4 v -1.619721 c 0,-0.228815 -0.1495001,-0.414021 -0.3342029,-0.414021 H 0.30579563 c -2.228e-4,0 -3.342e-4,-1.38e-4 -5.57e-4,-1.38e-4 -2.228e-4,0 -3.342e-4,1.38e-4 -5.5701e-4,1.38e-4 H 0.2791708 l -0.0535282,0.06631 c -0.005681,0.0011 -0.0114186,0.0019 -0.0160417,0.0046 -0.0149834,-0.0019 -0.0350913,-0.01028 -0.0418311,-0.0019 -0.009302,0.01152 0.007408,0.0552 0,0.069 -0.0111401,0.0092 -0.0463985,-0.01152 -0.0557005,0 -0.006071,0.0075 -0.001225,0.02871 8.912e-4,0.04644 -0.002841,0.0072 -0.004679,0.01463 -0.00557,0.02257 H 0.05636889 v 0.069 l -0.0557004842,0.069 v 6.110816 c -8.9120768e-4,0.0075 -8.9120768e-4,0.01484 0,0.02236 v 0.0081 c 2.785024e-4,2.07e-4 7.798042e-4,2.76e-4 0.001169714,4.14e-4 8.912e-4,0.0043 0.00311922,0.0076 0.00451173,0.01159 1.1141e-4,0.01194 0.00311923,0.02325 0.00751957,0.0336 0.01994077,0.208874 0.18470279,0.371998 0.38678413,0.371998 v -0.0036 H 2.9528495 c 8.355e-4,-0.0014 5.57e-4,-0.0043 7.798e-4,-0.0066 0.00267,-6.9e-5 0.00462,-0.0014 0.00702,-0.0018 l -0.00785,0.0083 c 0.018938,0 0.037431,-0.0019 0.055701,-0.0047 v 0.0047 l 0.00434,-0.0054 M 3.3426972,19.434643 M 0.94757656,13.561406 H 2.3400886 v 0.138007 H 0.94757656 Z m 0.94690814,5.451281 v 0.345017 c -0.01114,0.0092 -0.046399,-0.01152 -0.0557,0 -0.0078,0.0097 0.00891,0.06169 0,0.069 -0.012867,0.01063 -0.04172,-0.0085 -0.0557,0 H 1.5045814 c -0.00741,-0.0138 0.0093,-0.05748 0,-0.069 -0.0078,-0.0097 -0.049796,0.01104 -0.0557,0 -0.00858,-0.01587 0.00685,-0.05168 0,-0.069 V 19.01269 c 0.00741,-0.0138 -0.0093,-0.05748 0,-0.069 0.00384,-0.0048 0.012198,-0.004 0.021389,-0.0021 l -0.021389,0.0021 h 0.031471 c 0.00986,0.0021 0.019384,0.004 0.02423,0 0.00741,-0.0138 -0.0093,-0.05748 0,-0.069 0.0093,-0.01152 0.04456,0.0092 0.0557,0 h 0.222802 c 0.01114,0.0092 0.046399,-0.01152 0.0557,0 0.0093,0.01152 -0.00741,0.0552 0,0.069 0.01114,0.0092 0.046399,-0.01152 0.0557,0 0.0093,0.01152 -0.00746,0.0552 0,0.069 z m 1.1697101,-0.414022 h -2.785024 v -4.416227 h 2.785024 z"
     id="path402"
     inkscape:connector-curvature="0"
     style="clip-rule:evenodd;fill:#5a5a5a;fill-rule:evenodd;stroke-width:0.06199622" /><path
     d="m 3.0084943,19.836037 c 0.1847028,0 0.3342029,-0.197005 0.3342029,-0.440519"
     id="path404"
     inkscape:connector-curvature="0"
     style="clip-rule:evenodd;fill:#5a5a5a;fill-rule:evenodd;stroke-width:0.06199622" /><polyline
     points="214.5,244.25 226.785,282.806 225.762,284.835   223.714,285.85 221.613,287.371 219.619,287.879 135.672,287.879 133.385,284.354 133.624,281.791 133.624,280.776 145.909,244.25   213.988,244.251 "
     id="polyline406"
     transform="scale(0.05570048,0.06900355)"
     style="clip-rule:evenodd;fill:#5a5a5a;fill-rule:evenodd" /><path
     d="m 18.378485,0.00220811 0.0052,0.00710737 c -0.0023,-3.4502e-4 -0.0039,-0.00158708 -0.0064,-0.00158708 -0.06339,0 -0.07068,0.10702451 -0.02228,0.13234881 0.0082,0.007176 0.01788,0.0124896 0.03064,0.0124896 0.03537,0 0.05308,-0.0333977 0.05369,-0.06741647 l 0.647741,0.8840045 c -0.03437,0.003105 -0.05063,0.038504 -0.04879,0.0730747 -0.0011,0.020218 0.0046,0.040298 0.01576,0.05472 0.0083,0.018838 0.02306,0.033191 0.04573,0.033191 0.03643,0 0.05425,-0.035468 0.05369,-0.070453 l 0.0048,0.00656 c 2.5e-5,-0.58805289 -0.348771,-1.06403939 -0.779781,-1.06403939 z"
     id="path408"
     inkscape:connector-curvature="0"
     style="clip-rule:evenodd;fill:#5a5a5a;fill-rule:evenodd;stroke-width:0.06199622" /><xhtml:style
     charset="utf-8"
     type="text/css"
     class="firebugResetStyles">/* See license.txt for terms of usage */
/** reset styling **/
.firebugResetStyles {
    z-index: 2147483646 !important;
    top: 0 !important;
    left: 0 !important;
    display: block !important;
    border: 0 none !important;
    margin: 0 !important;
    padding: 0 !important;
    outline: 0 !important;
    min-width: 0 !important;
    max-width: none !important;
    min-height: 0 !important;
    max-height: none !important;
    position: fixed !important;
    transform: rotate(0deg) !important;
    transform-origin: 50% 50% !important;
    border-radius: 0 !important;
    box-shadow: none !important;
    background: transparent none !important;
    pointer-events: none !important;
    white-space: normal !important;
}
style.firebugResetStyles {
    display: none !important;
}

.firebugBlockBackgroundColor {
    background-color: transparent !important;
}

.firebugResetStyles:before, .firebugResetStyles:after {
    content: &quot;&quot; !important;
}
/**actual styling to be modified by firebug theme**/
.firebugCanvas {
    display: none !important;
}

/* * * * * * * * * * * * * * * * * * * * * * * * * * * * * * * * * * * * * * * * * * * * * * * * */
.firebugLayoutBox {
    width: auto !important;
    position: static !important;
}

.firebugLayoutBoxOffset {
    opacity: 0.8 !important;
    position: fixed !important;
}

.firebugLayoutLine {
    opacity: 0.4 !important;
    background-color: #000000 !important;
}

.firebugLayoutLineLeft, .firebugLayoutLineRight {
    width: 1px !important;
    height: 100% !important;
}

.firebugLayoutLineTop, .firebugLayoutLineBottom {
    width: 100% !important;
    height: 1px !important;
}

.firebugLayoutLineTop {
    margin-top: -1px !important;
    border-top: 1px solid #999999 !important;
}

.firebugLayoutLineRight {
    border-right: 1px solid #999999 !important;
}

.firebugLayoutLineBottom {
    border-bottom: 1px solid #999999 !important;
}

.firebugLayoutLineLeft {
    margin-left: -1px !important;
    border-left: 1px solid #999999 !important;
}

/* * * * * * * * * * * * * * * * * * * * * * * * * * * * * * * * * * * * * * * * * * * * * * * * */
.firebugLayoutBoxParent {
    border-top: 0 none !important;
    border-right: 1px dashed #E00 !important;
    border-bottom: 1px dashed #E00 !important;
    border-left: 0 none !important;
    position: fixed !important;
    width: auto !important;
}

.firebugRuler{
    position: absolute !important;
}

.firebugRulerH {
    top: -15px !important;
    left: 0 !important;
    width: 100% !important;
    height: 14px !important;
    background: url(&quot;data:image/png,%89PNG%0D%0A%1A%0A%00%00%00%0DIHDR%00%00%13%88%00%00%00%0E%08%02%00%00%00L%25a%0A%00%00%00%04gAMA%00%00%D6%D8%D4OX2%00%00%00%19tEXtSoftware%00Adobe%20ImageReadyq%C9e%3C%00%00%04%F8IDATx%DA%EC%DD%D1n%E2%3A%00E%D1%80%F8%FF%EF%E2%AF2%95%D0D4%0E%C1%14%B0%8Fa-%E9%3E%CC%9C%87n%B9%81%A6W0%1C%A6i%9A%E7y%0As8%1CT%A9R%A5J%95*U%AAT%A9R%A5J%95*U%AAT%A9R%A5J%95*U%AAT%A9R%A5J%95*U%AAT%A9R%A5J%95*U%AAT%A9R%A5J%95*U%AAT%A9R%A5J%95*U%AATE9%FE%FCw%3E%9F%AF%2B%2F%BA%97%FDT%1D~K(%5C%9D%D5%EA%1B%5C%86%B5%A9%BDU%B5y%80%ED%AB*%03%FAV9%AB%E1%CEj%E7%82%EF%FB%18%BC%AEJ8%AB%FA'%D2%BEU9%D7U%ECc0%E1%A2r%5DynwVi%CFW%7F%BB%17%7Dy%EACU%CD%0E%F0%FA%3BX%FEbV%FEM%9B%2B%AD%BE%AA%E5%95v%AB%AA%E3E5%DCu%15rV9%07%B5%7F%B5w%FCm%BA%BE%AA%FBY%3D%14%F0%EE%C7%60%0EU%AAT%A9R%A5J%95*U%AAT%A9R%A5J%95*U%AAT%A9R%A5J%95*U%AAT%A9R%A5J%95*U%AAT%A9R%A5JU%88%D3%F5%1F%AE%DF%3B%1B%F2%3E%DAUCNa%F92%D02%AC%7Dm%F9%3A%D4%F2%8B6%AE*%BF%5C%C2Ym~9g5%D0Y%95%17%7C%C8c%B0%7C%18%26%9CU%CD%13i%F7%AA%90%B3Z%7D%95%B4%C7%60%E6E%B5%BC%05%B4%FBY%95U%9E%DB%FD%1C%FC%E0%9F%83%7F%BE%17%7DkjMU%E3%03%AC%7CWj%DF%83%9An%BCG%AE%F1%95%96yQ%0Dq%5Dy%00%3Et%B5'%FC6%5DS%95pV%95%01%81%FF'%07%00%00%00%00%00%00%00%00%00%F8x%C7%F0%BE%9COp%5D%C9%7C%AD%E7%E6%EBV%FB%1E%E0(%07%E5%AC%C6%3A%ABi%9C%8F%C6%0E9%AB%C0'%D2%8E%9F%F99%D0E%B5%99%14%F5%0D%CD%7F%24%C6%DEH%B8%E9rV%DFs%DB%D0%F7%00k%FE%1D%84%84%83J%B8%E3%BA%FB%EF%20%84%1C%D7%AD%B0%8E%D7U%C8Y%05%1E%D4t%EF%AD%95Q%BF8w%BF%E9%0A%BF%EB%03%00%00%00%00%00%00%00%00%00%B8vJ%8E%BB%F5%B1u%8Cx%80%E1o%5E%CA9%AB%CB%CB%8E%03%DF%1D%B7T%25%9C%D5(%EFJM8%AB%CC'%D2%B2*%A4s%E7c6%FB%3E%FA%A2%1E%80~%0E%3E%DA%10x%5D%95Uig%15u%15%ED%7C%14%B6%87%A1%3B%FCo8%A8%D8o%D3%ADO%01%EDx%83%1A~%1B%9FpP%A3%DC%C6'%9C%95gK%00%00%00%00%00%00%00%00%00%20%D9%C9%11%D0%C0%40%AF%3F%EE%EE%92%94%D6%16X%B5%BCMH%15%2F%BF%D4%A7%C87%F1%8E%F2%81%AE%AAvzr%DA2%ABV%17%7C%E63%83%E7I%DC%C6%0Bs%1B%EF6%1E%00%00%00%00%00%00%00%00%00%80cr%9CW%FF%7F%C6%01%0E%F1%CE%A5%84%B3%CA%BC%E0%CB%AA%84%CE%F9%BF)%EC%13%08WU%AE%AB%B1%AE%2BO%EC%8E%CBYe%FE%8CN%ABr%5Dy%60~%CFA%0D%F4%AE%D4%BE%C75%CA%EDVB%EA(%B7%F1%09g%E5%D9%12%00%00%00%00%00%00%00%00%00H%F6%EB%13S%E7y%5E%5E%FB%98%F0%22%D1%B2'%A7%F0%92%B1%BC%24z3%AC%7Dm%60%D5%92%B4%7CEUO%5E%F0%AA*%3BU%B9%AE%3E%A0j%94%07%A0%C7%A0%AB%FD%B5%3F%A0%F7%03T%3Dy%D7%F7%D6%D4%C0%AAU%D2%E6%DFt%3F%A8%CC%AA%F2%86%B9%D7%F5%1F%18%E6%01%F8%CC%D5%9E%F0%F3z%88%AA%90%EF%20%00%00%00%00%00%00%00%00%00%C0%A6%D3%EA%CFi%AFb%2C%7BB%0A%2B%C3%1A%D7%06V%D5%07%A8r%5D%3D%D9%A6%CAu%F5%25%CF%A2%99%97zNX%60%95%AB%5DUZ%D5%FBR%03%AB%1C%D4k%9F%3F%BB%5C%FF%81a%AE%AB'%7F%F3%EA%FE%F3z%94%AA%D8%DF%5B%01%00%00%00%00%00%00%00%00%00%8E%FB%F3%F2%B1%1B%8DWU%AAT%A9R%A5J%95*U%AAT%A9R%A5J%95*U%AAT%A9R%A5J%95*U%AAT%A9R%A5J%95*U%AAT%A9R%A5J%95*U%AAT%A9R%A5J%95*U%AAT%A9R%A5J%95*UiU%C7%BBe%E7%F3%B9%CB%AAJ%95*U%AAT%A9R%A5J%95*U%AAT%A9R%A5J%95*U%AAT%A9R%A5J%95*U%AAT%A9R%A5J%95*U%AAT%A9R%A5J%95*U%AAT%A9R%A5J%95*U%AAT%A9R%A5*%AAj%FD%C6%D4%5Eo%90%B5Z%ADV%AB%D5j%B5Z%ADV%AB%D5j%B5Z%ADV%AB%D5j%B5Z%ADV%AB%D5j%B5Z%ADV%AB%D5j%B5Z%ADV%AB%D5j%B5Z%ADV%AB%D5j%B5%86%AF%1B%9F%98%DA%EBm%BBV%AB%D5j%B5Z%ADV%AB%D5j%B5Z%ADV%AB%D5j%B5Z%ADV%AB%D5j%B5Z%ADV%AB%D5j%B5Z%ADV%AB%D5j%B5Z%ADV%AB%D5j%B5Z%AD%D6%E4%F58%01%00%00%00%00%00%00%00%00%00%00%00%00%00%40%85%7F%02%0C%008%C2%D0H%16j%8FX%00%00%00%00IEND%AEB%60%82&quot;) repeat-x !important;
    border-top: 1px solid #BBBBBB !important;
    border-right: 1px dashed #BBBBBB !important;
    border-bottom: 1px solid #000000 !important;
}

.firebugRulerV {
    top: 0 !important;
    left: -15px !important;
    width: 14px !important;
    height: 100% !important;
    background: url(&quot;data:image/png,%89PNG%0D%0A%1A%0A%00%00%00%0DIHDR%00%00%00%0E%00%00%13%88%08%02%00%00%00%0E%F5%CB%10%00%00%00%04gAMA%00%00%D6%D8%D4OX2%00%00%00%19tEXtSoftware%00Adobe%20ImageReadyq%C9e%3C%00%00%06~IDATx%DA%EC%DD%D1v%A20%14%40Qt%F1%FF%FF%E4%97%D9%07%3BT%19%92%DC%40(%90%EEy%9A5%CB%B6%E8%F6%9Ac%A4%CC0%84%FF%DC%9E%CF%E7%E3%F1%88%DE4%F8%5D%C7%9F%2F%BA%DD%5E%7FI%7D%F18%DDn%BA%C5%FB%DF%97%BFk%F2%10%FF%FD%B4%F2M%A7%FB%FD%FD%B3%22%07p%8F%3F%AE%E3%F4S%8A%8F%40%EEq%9D%BE8D%F0%0EY%A1Uq%B7%EA%1F%81%88V%E8X%3F%B4%CEy%B7h%D1%A2E%EBohU%FC%D9%AF2fO%8BBeD%BE%F7X%0C%97%A4%D6b7%2Ck%A5%12%E3%9B%60v%B7r%C7%1AI%8C%BD%2B%23r%00c0%B2v%9B%AD%CA%26%0C%1Ek%05A%FD%93%D0%2B%A1u%8B%16-%95q%5Ce%DCSO%8E%E4M%23%8B%F7%C2%FE%40%BB%BD%8C%FC%8A%B5V%EBu%40%F9%3B%A72%FA%AE%8C%D4%01%CC%B5%DA%13%9CB%AB%E2I%18%24%B0n%A9%0CZ*Ce%9C%A22%8E%D8NJ%1E%EB%FF%8F%AE%CAP%19*%C3%BAEKe%AC%D1%AAX%8C*%DEH%8F%C5W%A1e%AD%D4%B7%5C%5B%19%C5%DB%0D%EF%9F%19%1D%7B%5E%86%BD%0C%95%A12%AC%5B*%83%96%CAP%19%F62T%86%CAP%19*%83%96%CA%B8Xe%BC%FE)T%19%A1%17xg%7F%DA%CBP%19*%C3%BA%A52T%86%CAP%19%F62T%86%CA%B0n%A9%0CZ%1DV%C6%3D%F3%FCH%DE%B4%B8~%7F%5CZc%F1%D6%1F%AF%84%F9%0F6%E6%EBVt9%0E~%BEr%AF%23%B0%97%A12T%86%CAP%19%B4T%86%CA%B8Re%D8%CBP%19*%C3%BA%A52huX%19%AE%CA%E5%BC%0C%7B%19*CeX%B7h%A9%0C%95%E1%BC%0C%7B%19*CeX%B7T%06%AD%CB%5E%95%2B%BF.%8F%C5%97%D5%E4%7B%EE%82%D6%FB%CF-%9C%FD%B9%CF%3By%7B%19%F62T%86%CA%B0n%D1R%19*%A3%D3%CA%B0%97%A12T%86uKe%D0%EA%B02*%3F1%99%5DB%2B%A4%B5%F8%3A%7C%BA%2B%8Co%7D%5C%EDe%A8%0C%95a%DDR%19%B4T%C66%82fA%B2%ED%DA%9FC%FC%17GZ%06%C9%E1%B3%E5%2C%1A%9FoiB%EB%96%CA%A0%D5qe4%7B%7D%FD%85%F7%5B%ED_%E0s%07%F0k%951%ECr%0D%B5C%D7-g%D1%A8%0C%EB%96%CA%A0%A52T%C6)*%C3%5E%86%CAP%19%D6-%95A%EB*%95q%F8%BB%E3%F9%AB%F6%E21%ACZ%B7%22%B7%9B%3F%02%85%CB%A2%5B%B7%BA%5E%B7%9C%97%E1%BC%0C%EB%16-%95%A12z%AC%0C%BFc%A22T%86uKe%D0%EA%B02V%DD%AD%8A%2B%8CWhe%5E%AF%CF%F5%3B%26%CE%CBh%5C%19%CE%CB%B0%F3%A4%095%A1%CAP%19*Ce%A8%0C%3BO*Ce%A8%0C%95%A12%3A%AD%8C%0A%82%7B%F0v%1F%2FD%A9%5B%9F%EE%EA%26%AF%03%CA%DF9%7B%19*Ce%A8%0C%95%A12T%86%CA%B8Ze%D8%CBP%19*Ce%A8%0C%95%D1ae%EC%F7%89I%E1%B4%D7M%D7P%8BjU%5C%BB%3E%F2%20%D8%CBP%19*Ce%A8%0C%95%A12T%C6%D5*%C3%5E%86%CAP%19*Ce%B4O%07%7B%F0W%7Bw%1C%7C%1A%8C%B3%3B%D1%EE%AA%5C%D6-%EBV%83%80%5E%D0%CA%10%5CU%2BD%E07YU%86%CAP%19*%E3%9A%95%91%D9%A0%C8%AD%5B%EDv%9E%82%FFKOee%E4%8FUe%A8%0C%95%A12T%C6%1F%A9%8C%C8%3D%5B%A5%15%FD%14%22r%E7B%9F%17l%F8%BF%ED%EAf%2B%7F%CF%ECe%D8%CBP%19*Ce%A8%0C%95%E1%93~%7B%19%F62T%86%CAP%19*Ce%A8%0C%E7%13%DA%CBP%19*Ce%A8%0CZf%8B%16-Z%B4h%D1R%19f%8B%16-Z%B4h%D1R%19%B4%CC%16-Z%B4h%D1R%19%B4%CC%16-Z%B4h%D1%A2%A52%CC%16-Z%B4h%D1%A2%A52h%99-Z%B4h%D1%A2%A52h%99-Z%B4h%D1%A2EKe%98-Z%B4h%D1%A2EKe%D02%5B%B4h%D1%A2EKe%D02%5B%B4h%D1%A2E%8B%96%CA0%5B%B4h%D1%A2E%8B%96%CA%A0e%B6h%D1%A2E%8B%96%CA%A0e%B6h%D1%A2E%8B%16-%95a%B6h%D1%A2E%8B%16-%95A%CBl%D1%A2E%8B%16-%95A%CBl%D1%A2E%8B%16-Z*%C3l%D1%A2E%8B%16-Z*%83%96%D9%A2E%8B%16-Z*%83%96%D9%A2E%8B%16-Z%B4T%86%D9%A2E%8B%16-Z%B4T%06-%B3E%8B%16-Z%B4T%06-%B3E%8B%16-Z%B4h%A9%0C%B3E%8B%16-Z%B4h%A9%0CZf%8B%16-Z%B4h%A9%0CZf%8B%16-Z%B4h%D1R%19f%8B%16-Z%B4h%D1R%19%B4%CC%16-Z%B4h%D1R%19%B4%CC%16-Z%B4h%D1%A2%A52%CC%16-Z%B4h%D1%A2%A52h%99-Z%B4h%D1%A2%A52h%99-Z%B4h%D1%A2EKe%98-Z%B4h%D1%A2EKe%D02%5B%B4h%D1%A2EKe%D02%5B%B4h%D1%A2E%8B%96%CA0%5B%B4h%D1%A2E%8B%96%CA%A0e%B6h%D1%A2E%8B%96%CA%A0e%B6h%D1%A2E%8B%16-%95a%B6h%D1%A2E%8B%16-%95A%CBl%D1%A2E%8B%16-%95A%CBl%D1%A2E%8B%16-Z*%C3l%D1%A2E%8B%16-Z*%83%96%D9%A2E%8B%16-Z*%83%96%D9%A2E%8B%16-Z%B4T%86%D9%A2E%8B%16-Z%B4T%06-%B3E%8B%16-Z%B4T%06-%B3E%8B%16-Z%B4h%A9%0C%B3E%8B%16-Z%B4h%A9%0CZf%8B%16-Z%B4h%A9%0CZf%8B%16-Z%B4h%D1R%19f%8B%16-Z%B4h%D1R%19%B4%CC%16-Z%B4h%D1R%19%B4%CC%16-Z%B4h%D1%A2%A52%CC%16-Z%B4h%D1%A2%A52h%99-Z%B4h%D1%A2%A52h%99-Z%B4h%D1%A2EKe%98-Z%B4h%D1%A2EKe%D02%5B%B4h%D1%A2EKe%D02%5B%B4h%D1%A2E%8B%96%CA0%5B%B4h%D1%A2E%8B%96%CA%A0e%B6h%D1%A2E%8B%96%CA%A0e%B6h%D1%A2E%8B%16-%95a%B6h%D1%A2E%8B%16-%95A%CBl%D1%A2E%8B%16-%95A%CBl%D1%A2E%8B%16-Z*%C3l%D1%A2E%8B%16-Z*%83%96%D9%A2E%8B%16-Z*%83%96%D9%A2E%8B%16-Z%B4T%86%D9%A2E%8B%16-Z%B4T%06-%B3E%8B%16-Z%B4%AE%A4%F5%25%C0%00%DE%BF%5C'%0F%DA%B8q%00%00%00%00IEND%AEB%60%82&quot;) repeat-y !important;
    border-left: 1px solid #BBBBBB !important;
    border-right: 1px solid #000000 !important;
    border-bottom: 1px dashed #BBBBBB !important;
}

.overflowRulerX &gt; .firebugRulerV {
    left: 0 !important;
}

.overflowRulerY &gt; .firebugRulerH {
    top: 0 !important;
}

/* * * * * * * * * * * * * * * * * * * * * * * * * * * * * * * * * * * * * * * * * * * * * * * * */
.fbProxyElement {
    position: fixed !important;
    pointer-events: auto !important;
}
</xhtml:style><path
     style="fill:none;stroke:#000000;stroke-width:1px;stroke-linecap:butt;stroke-linejoin:miter;stroke-opacity:1"
     d="M 4.318636,26.229555 H 15.388793 L 8.979755,36.717072 Z"
     id="path446"
     inkscape:connector-curvature="0" /></svg>