<?xml version="1.0" encoding="UTF-8" standalone="no"?>
<!-- Generator: Adobe Illustrator 15.0.0, SVG Export Plug-In . SVG Version: 6.00 Build 0)  -->

<svg
   xmlns:dc="http://purl.org/dc/elements/1.1/"
   xmlns:cc="http://creativecommons.org/ns#"
   xmlns:rdf="http://www.w3.org/1999/02/22-rdf-syntax-ns#"
   xmlns:svg="http://www.w3.org/2000/svg"
   xmlns="http://www.w3.org/2000/svg"
   xmlns:sodipodi="http://sodipodi.sourceforge.net/DTD/sodipodi-0.dtd"
   xmlns:inkscape="http://www.inkscape.org/namespaces/inkscape"
   version="1.1"
   id="Calque_1"
   x="0px"
   y="0px"
   width="570.849"
   height="168.83099"
   viewBox="4.873 77.155 570.849 168.831"
   enable-background="new 4.873 77.155 405.849 168.831"
   xml:space="preserve"
   sodipodi:docname="logo4.svg"
   inkscape:version="0.92.1 r"><metadata
     id="metadata424"><rdf:RDF><cc:Work
         rdf:about=""><dc:format>image/svg+xml</dc:format><dc:type
           rdf:resource="http://purl.org/dc/dcmitype/StillImage" /><dc:title></dc:title></cc:Work></rdf:RDF></metadata><defs
     id="defs422" /><sodipodi:namedview
     pagecolor="#000000"
     bordercolor="#666666"
     borderopacity="1"
     objecttolerance="10"
     gridtolerance="10"
     guidetolerance="10"
     inkscape:pageopacity="0"
     inkscape:pageshadow="2"
     inkscape:window-width="1280"
     inkscape:window-height="969"
     id="namedview420"
     showgrid="false"
     inkscape:pagecheckerboard="false"
     inkscape:zoom="1.8921273"
     inkscape:cx="292.6661"
     inkscape:cy="84.415497"
     inkscape:window-x="1920"
     inkscape:window-y="27"
     inkscape:window-maximized="1"
     inkscape:current-layer="Calque_1" /><path
     d="m 205.748,85.144 c -0.097,-0.097 0.078,-0.468 0,-0.584"
     id="path237"
     inkscape:connector-curvature="0"
     style="fill:#5a5a5a" /><path
     d="m 157.167,139.578 c 0.078,-0.116 -0.098,-0.488 0,-0.584 0.097,-0.097 0.468,0.078 0.585,0 0,0.194 0,0.39 0,0.584 -0.195,0 -0.39,0 -0.585,0 z"
     id="path239"
     inkscape:connector-curvature="0"
     style="fill:#5a5a5a" /><path
     d="m 157.752,139.578 c 0,-0.194 0,-0.39 0,-0.584 0.195,0 0.391,0 0.586,0 -0.079,0.116 0.097,0.487 0,0.584 -0.098,0.099 -0.468,-0.077 -0.586,0 z"
     id="path241"
     inkscape:connector-curvature="0"
     style="fill:#5a5a5a" /><path
     d="m 158.338,138.994 c 7.023,0 14.047,0 21.071,0 7.024,0 14.047,0 21.071,0 7.023,0 14.048,0 21.072,0 3.512,0 7.023,0 10.535,0 0.78,0 1.561,0 2.341,0 0.391,0 0.78,0 1.172,0 0.584,0 1.17,0 1.755,0 0.78,0 1.562,0 2.341,0 0.392,0 0.781,0 1.171,0 0.781,0 1.562,0 2.343,0 0.077,0.116 -0.099,0.487 0,0.584 0.097,0.099 0.468,-0.078 0.584,0 0.195,0 0.39,0 0.586,0 0.195,0 0.391,0 0.586,0 0.077,0.118 -0.099,0.488 0,0.586 0.097,0.097 0.468,-0.078 0.584,0 0.078,0.116 -0.097,0.488 0,0.585 0.099,0.098 0.469,-0.078 0.586,0 0,0.194 0,0.391 0,0.584 0.194,0 0.391,0 0.586,0 0,0.195 0,0.391 0,0.586 0,0.195 0,0.39 0,0.585 0,0.194 0,0.391 0,0.585 0.193,0 0.39,0 0.585,0 0,8.39 0,16.779 0,25.17 0,4.096 0,8.193 0,12.29 0,4.098 0,8.195 0,12.292 0,8.193 0,16.389 0,24.583 0,8.195 0,16.39 0,24.583 -0.117,0.079 -0.488,-0.097 -0.585,0 -0.098,0.099 0.077,0.469 0,0.586 0,0.195 0,0.391 0,0.585 0,0.194 0,0.391 0,0.585 -0.118,0.079 -0.488,-0.097 -0.586,0 -0.099,0.1 0.078,0.469 0,0.586 -0.117,0.079 -0.487,-0.099 -0.586,0 -0.097,0.098 0.078,0.469 0,0.585 -0.194,0 -0.391,0 -0.584,0 0,0.194 0,0.391 0,0.586 -0.195,0 -0.391,0 -0.586,0 -0.196,0 -0.391,0 -0.586,0 -0.116,0.078 -0.487,-0.098 -0.584,0 -0.099,0.099 0.078,0.468 0,0.586 -7.219,0 -14.438,0 -21.657,0 -7.024,0 -14.048,0 -21.072,0 -7.024,0 -14.047,0 -21.071,0 -7.023,0 -14.048,0 -21.071,0 -0.079,-0.118 0.097,-0.487 0,-0.586 -0.098,-0.098 -0.468,0.078 -0.586,0 -0.195,0 -0.39,0 -0.585,0 -0.195,0 -0.391,0 -0.585,0 -0.079,-0.118 0.097,-0.488 0,-0.586 -0.098,-0.098 -0.468,0.078 -0.586,0 -0.079,-0.116 0.098,-0.487 0,-0.585 -0.098,-0.099 -0.468,0.079 -0.586,0 0,-0.195 0,-0.391 0,-0.586 -0.194,0 -0.39,0 -0.584,0 0,-0.194 0,-0.391 0,-0.585 0,-0.194 0,-0.39 0,-0.585 -0.078,-0.117 0.097,-0.487 0,-0.586 -0.098,-0.097 -0.468,0.079 -0.585,0 0,-0.78 0,-1.561 0,-2.341 0,-0.585 0,-1.171 0,-1.756 0,-0.391 0,-0.779 0,-1.172 0,-0.585 0,-1.169 0,-1.755 0,-0.39 0,-0.78 0,-1.17 0,-0.586 0,-1.172 0,-1.756 0,-0.392 0,-0.781 0,-1.172 0,-0.585 0,-1.17 0,-1.756 0,-4.097 0,-8.194 0,-12.291 0,-4.097 0,-8.194 0,-12.292 0,-4.097 0,-8.194 0,-12.291 0,-8.195 0,-16.389 0,-24.584 0,-8.193 0,-16.388 0,-24.583 0.118,-0.078 0.488,0.099 0.585,0 0.097,-0.097 -0.078,-0.468 0,-0.585 0,-0.195 0,-0.39 0,-0.585 0,-0.195 0,-0.392 0,-0.586 0.117,-0.078 0.488,0.099 0.584,0 0.098,-0.097 -0.078,-0.468 0,-0.584 0.118,-0.078 0.488,0.098 0.586,0 0.098,-0.097 -0.079,-0.469 0,-0.585 0.195,0 0.39,0 0.586,0 0,-0.196 0,-0.39 0,-0.586 0.194,0 0.39,0 0.585,0 0.195,0 0.39,0 0.585,0 0.118,-0.078 0.488,0.099 0.586,0 0.096,-0.096 -0.079,-0.467 -0.001,-0.583 z m 8.194,32.778 c 0,6.827 0,13.656 0,20.485 0,1.561 0,3.121 0,4.683 0,1.756 0,3.512 0,5.268 0,3.512 0,7.023 0,10.536 0,7.022 0,14.047 0,21.071 2.732,0 5.463,0 8.194,0 9.951,0 19.901,0 29.851,0 10.145,0 20.291,0 30.437,0 0,-1.562 0,-3.122 0,-4.684 0,-3.121 0,-6.243 0,-9.365 0,-1.561 0,-3.12 0,-4.682 0,-1.756 0,-3.513 0,-5.269 0,-3.121 0,-6.243 0,-9.364 0,-1.562 0,-3.122 0,-4.684 0,-1.755 0,-3.511 0,-5.267 0,-13.072 0,-26.145 0,-39.216 -2.731,0 -5.462,0 -8.194,0 -4.877,0 -9.755,0 -14.633,0 -2.536,0 -5.073,0 -7.609,0 -2.536,0 -5.073,0 -7.609,0 -2.536,0 -5.073,0 -7.609,0 -2.536,0 -5.073,0 -7.609,0 -2.537,0 -5.073,0 -7.61,0 -2.536,0 -5.073,0 -7.609,0 0,6.83 0,13.658 0,20.488 z"
     id="path243"
     inkscape:connector-curvature="0"
     style="fill:#5a5a5a" /><path
     d="m 243.209,138.994 c 0.193,0 0.39,0 0.584,0 0,0.194 0,0.39 0,0.584 -0.116,-0.078 -0.487,0.099 -0.584,0 -0.098,-0.097 0.077,-0.468 0,-0.584 z"
     id="path245"
     inkscape:connector-curvature="0"
     style="fill:#5a5a5a" /><path
     d="m 243.793,139.578 c 0,-0.194 0,-0.39 0,-0.584 0.117,0.078 0.487,-0.097 0.586,0 0.098,0.097 -0.078,0.468 0,0.584 -0.196,0 -0.39,0 -0.586,0 z"
     id="path247"
     inkscape:connector-curvature="0"
     style="fill:#5a5a5a" /><path
     d="m 155.996,140.165 c 0.079,-0.118 -0.098,-0.488 0,-0.586 0.098,-0.097 0.468,0.078 0.586,0 0,0.196 0,0.39 0,0.586 -0.196,0 -0.39,0 -0.586,0 z"
     id="path249"
     inkscape:connector-curvature="0"
     style="fill:#5a5a5a" /><path
     d="m 244.965,139.578 c 0.116,0.078 0.487,-0.097 0.584,0 0.099,0.099 -0.078,0.468 0,0.586 -0.116,-0.078 -0.487,0.097 -0.584,0 -0.099,-0.098 0.077,-0.467 0,-0.586 z"
     id="path251"
     inkscape:connector-curvature="0"
     style="fill:#5a5a5a" /><path
     d="m 155.41,140.75 c 0.079,-0.117 -0.097,-0.488 0,-0.585 0.098,-0.099 0.469,0.078 0.586,0 -0.079,0.116 0.098,0.488 0,0.585 -0.098,0.097 -0.468,-0.078 -0.586,0 z"
     id="path253"
     inkscape:connector-curvature="0"
     style="fill:#5a5a5a" /><path
     d="m 245.549,140.165 c 0.117,0.078 0.487,-0.099 0.586,0 0.098,0.097 -0.078,0.468 0,0.585 -0.117,-0.078 -0.487,0.098 -0.586,0 -0.097,-0.097 0.078,-0.469 0,-0.585 z"
     id="path255"
     inkscape:connector-curvature="0"
     style="fill:#5a5a5a" /><path
     d="m 154.826,141.334 c 0,-0.194 0,-0.39 0,-0.584 0.194,0 0.391,0 0.584,0 -0.078,0.117 0.098,0.488 0,0.584 -0.096,0.099 -0.467,-0.077 -0.584,0 z"
     id="path257"
     inkscape:connector-curvature="0"
     style="fill:#5a5a5a" /><path
     d="m 246.135,140.75 c 0.117,0.078 0.488,-0.097 0.586,0 0.097,0.098 -0.078,0.468 0,0.584 -0.195,0 -0.392,0 -0.586,0 0,-0.194 0,-0.388 0,-0.584 z"
     id="path259"
     inkscape:connector-curvature="0"
     style="fill:#5a5a5a" /><path
     d="m 154.24,142.506 c 0.078,-0.118 -0.098,-0.487 0,-0.585 0.098,-0.099 0.468,0.077 0.585,0 0,0.195 0,0.39 0,0.585 -0.194,0 -0.389,0 -0.585,0 z"
     id="path261"
     inkscape:connector-curvature="0"
     style="fill:#5a5a5a" /><path
     d="m 246.721,142.506 c 0,-0.195 0,-0.39 0,-0.585 0.193,0 0.39,0 0.585,0 0,0.195 0,0.39 0,0.585 -0.195,0 -0.392,0 -0.585,0 z"
     id="path263"
     inkscape:connector-curvature="0"
     style="fill:#5a5a5a" /><path
     d="m 154.24,143.091 c 0,-0.194 0,-0.391 0,-0.585 0.195,0 0.39,0 0.585,0 -0.078,0.117 0.097,0.488 0,0.585 -0.097,0.098 -0.467,-0.079 -0.585,0 z"
     id="path265"
     inkscape:connector-curvature="0"
     style="fill:#5a5a5a" /><path
     d="m 246.721,142.506 c 0.193,0 0.39,0 0.585,0 0,0.194 0,0.391 0,0.585 -0.195,0 -0.392,0 -0.585,0 0,-0.195 0,-0.39 0,-0.585 z"
     id="path267"
     inkscape:connector-curvature="0"
     style="fill:#5a5a5a" /><path
     d="m 91.027,221.522 c 0.078,-0.116 -0.098,-0.487 0,-0.585 0.098,-0.097 0.468,0.078 0.585,0 -0.078,0.117 0.098,0.488 0,0.585 -0.098,0.099 -0.468,-0.077 -0.585,0 z"
     id="path269"
     inkscape:connector-curvature="0"
     style="fill:#5a5a5a" /><path
     d="m 91.612,220.937 c 6.244,0 12.487,0 18.73,0 3.122,0 6.243,0 9.365,0 1.561,0 3.122,0 4.683,0 1.756,0 3.512,0 5.268,0 0,0.195 0,0.391 0,0.585 0.117,0.079 0.488,-0.097 0.584,0 0.098,0.099 -0.078,0.468 0,0.587 0.196,0 0.391,0 0.586,0 0,0.39 0,0.779 0,1.169 0,0.196 0,0.391 0,0.587 0,0.194 0,0.39 0,0.585 0.195,0 0.39,0 0.585,0 0,0.194 0,0.391 0,0.585 0,0.194 0,0.39 0,0.586 0.078,0.116 -0.098,0.486 0,0.585 0.098,0.097 0.468,-0.079 0.585,0 0,0.391 0,0.779 0,1.17 0,0.196 0,0.39 0,0.586 0,0.194 0,0.391 0,0.585 0.195,0 0.39,0 0.585,0 0,0.391 0,0.781 0,1.171 0,0.194 0,0.391 0,0.585 0,0.194 0,0.391 0,0.585 0.195,0 0.39,0 0.585,0 0,0.196 0,0.391 0,0.586 0,0.194 0,0.391 0,0.586 0.079,0.116 -0.097,0.486 0,0.584 0.098,0.099 0.468,-0.077 0.586,0 0,0.391 0,0.781 0,1.172 0,0.194 0,0.39 0,0.584 0,0.196 0,0.391 0,0.586 0.195,0 0.39,0 0.585,0 0,0.195 0,0.391 0,0.586 0,0.194 0,0.39 0,0.584 0.078,0.118 -0.097,0.488 0,0.585 0.098,0.099 0.468,-0.077 0.585,0 0,0.196 0,0.393 0,0.587 0.072,0.146 -0.091,0.45 0,0.585 0.062,0.093 0.504,-0.082 0.585,0 0.098,0.097 -0.079,0.468 0,0.585 0.195,0 0.39,0 0.585,0 0,0.39 0,0.78 0,1.171 0,0.194 0,0.391 0,0.585 0,0.195 0,0.39 0,0.586 0.194,0 0.391,0 0.585,0 0,0.39 0,0.779 0,1.17 0,0.195 0,0.391 0,0.586 0,0.195 0,0.391 0,0.585 -0.117,0.078 -0.488,-0.098 -0.585,0 -0.098,0.098 0.078,0.468 0,0.585 0,0.195 0,0.391 0,0.586 -0.117,0.079 -0.487,-0.099 -0.585,0 -0.098,0.098 0.079,0.469 0,0.585 -0.195,0 -0.39,0 -0.585,0 0,0.194 0,0.391 0,0.586 -0.391,0 -0.78,0 -1.17,0 -0.195,0 -0.39,0 -0.586,0 -0.195,0 -0.39,0 -0.585,0 -0.117,0.078 -0.488,-0.098 -0.585,0 -0.098,0.099 0.078,0.468 0,0.586 -1.171,0 -2.341,0 -3.513,0 -0.078,-0.118 0.098,-0.487 0,-0.586 -0.051,-0.051 -0.504,0 -0.584,0 -0.195,0 -0.39,0 -0.586,0 -0.78,0 -1.561,0 -2.341,0 -3.317,0 -6.634,0 -9.951,0 -1.756,0 -3.512,0 -5.268,0 -1.561,0 -3.121,0 -4.683,0 -1.756,0 -3.512,0 -5.267,0 -1.561,0 -3.122,0 -4.682,0 -3.122,0 -6.244,0 -9.366,0 -0.194,0 -0.39,0 -0.584,0 0,-0.195 0,-0.392 0,-0.586 -0.078,-0.116 0.098,-0.487 0,-0.585 -0.098,-0.099 -0.468,0.079 -0.586,0 0,-0.195 0,-0.391 0,-0.586 0,-0.194 0,-0.391 0,-0.585 0,-0.39 0,-0.78 0,-1.171 0.118,-0.078 0.488,0.099 0.586,0 0.098,-0.097 -0.078,-0.468 0,-0.585 0,-0.195 0,-0.39 0,-0.585 0,-0.586 0,-1.171 0,-1.756 0.117,-0.079 0.488,0.098 0.584,0 0.098,-0.099 -0.077,-0.468 0,-0.586 0.078,-0.117 -0.097,-0.488 0,-0.585 0.098,-0.098 0.469,0.079 0.586,0 0,-0.195 0,-0.391 0,-0.585 0,-0.587 0,-1.172 0,-1.756 0.117,-0.08 0.487,0.098 0.585,0 0.098,-0.099 -0.078,-0.469 0,-0.586 0,-0.586 0,-1.17 0,-1.756 0.194,0 0.39,0 0.585,0 0.117,-0.078 0.488,0.098 0.585,0 0.098,-0.099 -0.078,-0.468 0,-0.586 0,-0.584 0,-1.17 0,-1.756 0.118,-0.078 0.488,0.099 0.585,0 0.098,-0.098 -0.078,-0.468 0,-0.585 0,-0.585 0,-1.171 0,-1.756 0.117,-0.078 0.487,0.098 0.585,0 0.071,-0.071 -0.025,-0.481 0,-0.585 0.042,-0.166 0,-0.414 0,-0.586 0,-0.391 0,-0.779 0,-1.17 0.117,-0.079 0.487,0.097 0.585,0 0.098,-0.099 -0.078,-0.469 0,-0.585 0,-0.196 0,-0.392 0,-0.586 0,-0.194 0,-0.391 0,-0.585 0.118,-0.079 0.488,0.097 0.585,0 0.098,-0.098 -0.077,-0.469 0,-0.585 0,-0.196 0,-0.391 0,-0.587 0.118,-0.077 0.488,0.099 0.586,0 0.098,-0.097 -0.078,-0.468 0,-0.585 0,-0.194 0,-0.39 0,-0.584 0,-0.196 0,-0.391 0,-0.587 0.117,-0.077 0.488,0.099 0.585,0 0.1,-0.096 -0.076,-0.468 0.003,-0.585 z"
     id="path271"
     inkscape:connector-curvature="0"
     style="fill:#5a5a5a" /><path
     d="m 90.441,222.693 c 0.078,-0.116 -0.097,-0.486 0,-0.584 0.098,-0.099 0.468,0.077 0.586,0 0,0.194 0,0.39 0,0.584 -0.196,0 -0.391,0 -0.586,0 z"
     id="path273"
     inkscape:connector-curvature="0"
     style="fill:#5a5a5a" /><path
     d="m 90.441,223.278 c 0,-0.193 0,-0.39 0,-0.585 0.195,0 0.391,0 0.586,0 -0.078,0.117 0.098,0.488 0,0.585 -0.099,0.099 -0.469,-0.077 -0.586,0 z"
     id="path275"
     inkscape:connector-curvature="0"
     style="fill:#5a5a5a" /><path
     d="m 130.828,223.865 c 0,-0.196 0,-0.391 0,-0.587 0.118,0.08 0.488,-0.097 0.585,0 0.098,0.099 -0.078,0.469 0,0.587 -0.195,0 -0.39,0 -0.585,0 z"
     id="path277"
     inkscape:connector-curvature="0"
     style="fill:#5a5a5a" /><path
     d="m 89.856,224.45 c 0.078,-0.117 -0.098,-0.487 0,-0.585 0.098,-0.099 0.469,0.077 0.585,0 -0.077,0.116 0.098,0.487 0,0.585 -0.097,0.097 -0.468,-0.079 -0.585,0 z"
     id="path279"
     inkscape:connector-curvature="0"
     style="fill:#5a5a5a" /><path
     d="m 130.828,223.865 c 0.195,0 0.39,0 0.585,0 0,0.194 0,0.39 0,0.585 -0.195,0 -0.391,0 -0.585,0 0,-0.195 0,-0.391 0,-0.585 z"
     id="path281"
     inkscape:connector-curvature="0"
     style="fill:#5a5a5a" /><path
     d="m 89.271,225.621 c 0.078,-0.118 -0.098,-0.488 0,-0.586 0.098,-0.098 0.468,0.079 0.585,0 0,0.194 0,0.39 0,0.586 -0.196,0 -0.39,0 -0.585,0 z"
     id="path283"
     inkscape:connector-curvature="0"
     style="fill:#5a5a5a" /><path
     d="m 131.413,225.621 c 0,-0.196 0,-0.392 0,-0.586 0.194,0 0.391,0 0.585,0 0,0.194 0,0.39 0,0.586 -0.194,0 -0.39,0 -0.585,0 z"
     id="path285"
     inkscape:connector-curvature="0"
     style="fill:#5a5a5a" /><path
     d="m 89.271,226.206 c 0,-0.195 0,-0.391 0,-0.585 0.195,0 0.39,0 0.585,0 -0.078,0.116 0.098,0.486 0,0.585 -0.098,0.096 -0.469,-0.079 -0.585,0 z"
     id="path287"
     inkscape:connector-curvature="0"
     style="fill:#5a5a5a" /><path
     d="m 131.413,225.621 c 0.194,0 0.391,0 0.585,0 0,0.194 0,0.39 0,0.585 -0.118,-0.079 -0.488,0.097 -0.585,0 -0.097,-0.099 0.078,-0.469 0,-0.585 z"
     id="path289"
     inkscape:connector-curvature="0"
     style="fill:#5a5a5a" /><path
     d="m 131.999,227.962 c 0,-0.196 0,-0.39 0,-0.586 0.195,0 0.39,0 0.585,0 0,0.196 0,0.39 0,0.586 -0.195,0 -0.39,0 -0.585,0 z"
     id="path291"
     inkscape:connector-curvature="0"
     style="fill:#5a5a5a" /><path
     d="m 131.999,227.962 c 0.195,0 0.39,0 0.585,0 0,0.194 0,0.391 0,0.585 -0.195,0 -0.39,0 -0.585,0 0,-0.195 0,-0.391 0,-0.585 z"
     id="path293"
     inkscape:connector-curvature="0"
     style="fill:#5a5a5a" /><path
     d="m 88.685,228.547 c 0,0.585 0,1.171 0,1.756 -0.195,0 -0.39,0 -0.585,0 0,-0.585 0,-1.171 0,-1.756 0.195,0 0.39,0 0.585,0 z"
     id="path295"
     inkscape:connector-curvature="0"
     style="fill:#5a5a5a" /><path
     d="m 132.584,230.302 c 0,-0.194 0,-0.391 0,-0.585 0.117,0.078 0.488,-0.099 0.585,0 0.098,0.098 -0.078,0.468 0,0.585 -0.195,0 -0.39,0 -0.585,0 z"
     id="path297"
     inkscape:connector-curvature="0"
     style="fill:#5a5a5a" /><path
     d="m 88.1,230.887 c 0,-0.194 0,-0.391 0,-0.585 0.195,0 0.39,0 0.585,0 -0.078,0.117 0.098,0.487 0,0.585 -0.097,0.099 -0.467,-0.078 -0.585,0 z"
     id="path299"
     inkscape:connector-curvature="0"
     style="fill:#5a5a5a" /><path
     d="m 132.584,230.302 c 0.195,0 0.39,0 0.585,0 0,0.194 0,0.391 0,0.585 -0.195,0 -0.39,0 -0.585,0 0,-0.194 0,-0.39 0,-0.585 z"
     id="path301"
     inkscape:connector-curvature="0"
     style="fill:#5a5a5a" /><path
     d="m 88.1,230.887 c 0,0.586 0,1.172 0,1.756 -0.195,0 -0.39,0 -0.585,0 0,-0.584 0,-1.17 0,-1.756 0.195,0 0.389,0 0.585,0 z"
     id="path303"
     inkscape:connector-curvature="0"
     style="fill:#5a5a5a" /><path
     d="m 133.169,232.059 c 0,-0.195 0,-0.392 0,-0.586 0.196,0 0.391,0 0.586,0 0,0.194 0,0.391 0,0.586 -0.196,0 -0.39,0 -0.586,0 z"
     id="path305"
     inkscape:connector-curvature="0"
     style="fill:#5a5a5a" /><path
     d="m 133.169,232.059 c 0.196,0 0.391,0 0.586,0 0,0.193 0,0.39 0,0.584 -0.118,-0.077 -0.488,0.099 -0.586,0 -0.097,-0.097 0.078,-0.467 0,-0.584 z"
     id="path307"
     inkscape:connector-curvature="0"
     style="fill:#5a5a5a" /><path
     d="m 86.929,233.229 c 0.078,-0.117 -0.098,-0.487 0,-0.586 0.098,-0.098 0.468,0.08 0.585,0 0,0.196 0,0.391 0,0.586 -0.195,0 -0.39,0 -0.585,0 z"
     id="path309"
     inkscape:connector-curvature="0"
     style="fill:#5a5a5a" /><path
     d="m 87.514,233.229 c 0,-0.195 0,-0.39 0,-0.586 0.195,0 0.391,0 0.585,0 -0.078,0.118 0.098,0.487 0,0.586 -0.097,0.098 -0.467,-0.078 -0.585,0 z"
     id="path311"
     inkscape:connector-curvature="0"
     style="fill:#5a5a5a" /><path
     d="m 133.755,234.399 c 0,-0.194 0,-0.39 0,-0.584 0.117,0.077 0.488,-0.098 0.585,0 0.098,0.097 -0.078,0.468 0,0.584 -0.195,0 -0.391,0 -0.585,0 z"
     id="path313"
     inkscape:connector-curvature="0"
     style="fill:#5a5a5a" /><path
     d="m 133.755,234.399 c 0.195,0 0.39,0 0.585,0 0,0.196 0,0.391 0,0.586 -0.195,0 -0.39,0 -0.585,0 0,-0.195 0,-0.39 0,-0.586 z"
     id="path315"
     inkscape:connector-curvature="0"
     style="fill:#5a5a5a" /><path
     d="m 86.344,235.571 c 0.078,-0.116 -0.098,-0.488 0,-0.586 0.098,-0.098 0.468,0.078 0.585,0 -0.078,0.117 0.098,0.487 0,0.586 -0.098,0.098 -0.468,-0.08 -0.585,0 z"
     id="path317"
     inkscape:connector-curvature="0"
     style="fill:#5a5a5a" /><path
     d="m 134.34,236.155 c 0,-0.194 0,-0.39 0,-0.584 0.117,0.077 0.488,-0.099 0.585,0 0.098,0.098 -0.078,0.468 0,0.584 -0.194,0 -0.391,0 -0.585,0 z"
     id="path319"
     inkscape:connector-curvature="0"
     style="fill:#5a5a5a" /><path
     d="m 134.34,236.155 c 0.195,0 0.391,0 0.585,0 0,0.195 0,0.392 0,0.585 -0.117,-0.077 -0.488,0.099 -0.585,0 -0.098,-0.097 0.078,-0.467 0,-0.585 z"
     id="path321"
     inkscape:connector-curvature="0"
     style="fill:#5a5a5a" /><path
     d="m 85.174,239.083 c 0,-0.196 0,-0.391 0,-0.586 0.194,0 0.39,0 0.584,0 -0.077,0.118 0.098,0.487 0,0.586 -0.097,0.097 -0.467,-0.079 -0.584,0 z"
     id="path323"
     inkscape:connector-curvature="0"
     style="fill:#5a5a5a" /><path
     d="m 136.096,240.253 c 0,-0.194 0,-0.391 0,-0.585 0.194,0 0.391,0 0.585,0 0,0.194 0,0.391 0,0.585 -0.194,0 -0.391,0 -0.585,0 z"
     id="path325"
     inkscape:connector-curvature="0"
     style="fill:#5a5a5a" /><path
     d="m 136.096,240.253 c 0.194,0 0.391,0 0.585,0 0,0.195 0,0.39 0,0.586 -0.194,0 -0.391,0 -0.585,0 0,-0.197 0,-0.391 0,-0.586 z"
     id="path327"
     inkscape:connector-curvature="0"
     style="fill:#5a5a5a" /><path
     d="m 84.588,241.424 c 0.078,-0.116 -0.098,-0.487 0,-0.585 0.098,-0.099 0.468,0.077 0.586,0 0,0.195 0,0.39 0,0.585 -0.197,0 -0.391,0 -0.586,0 z"
     id="path329"
     inkscape:connector-curvature="0"
     style="fill:#5a5a5a" /><path
     d="m 84.588,242.009 c 0,-0.194 0,-0.391 0,-0.585 0.196,0 0.391,0 0.586,0 -0.078,0.117 0.098,0.488 0,0.585 -0.099,0.098 -0.469,-0.079 -0.586,0 z"
     id="path331"
     inkscape:connector-curvature="0"
     style="fill:#5a5a5a" /><path
     d="m 84.588,242.009 c 0,0.391 0,0.781 0,1.171 -0.194,0 -0.39,0 -0.585,0 0,-0.194 0,-0.39 0,-0.585 0,-0.081 -0.052,-0.534 0,-0.586 0.096,-0.097 0.468,0.079 0.585,0 z"
     id="path333"
     inkscape:connector-curvature="0"
     style="fill:#5a5a5a" /><path
     d="m 136.681,242.594 c 0,-0.195 0,-0.391 0,-0.586 0.118,0.079 0.488,-0.097 0.585,0 0.098,0.099 -0.078,0.469 0,0.586 -0.195,0 -0.39,0 -0.585,0 z"
     id="path335"
     inkscape:connector-curvature="0"
     style="fill:#5a5a5a" /><path
     d="m 154.24,242.594 c 0,-0.195 0,-0.391 0,-0.586 0.118,0.079 0.488,-0.097 0.585,0 0.097,0.099 -0.078,0.469 0,0.586 -0.194,0 -0.389,0 -0.585,0 z"
     id="path337"
     inkscape:connector-curvature="0"
     style="fill:#5a5a5a" /><path
     d="m 246.721,242.594 c 0.077,-0.117 -0.098,-0.487 0,-0.586 0.097,-0.097 0.468,0.079 0.585,0 0,0.195 0,0.391 0,0.586 -0.195,0 -0.392,0 -0.585,0 z"
     id="path339"
     inkscape:connector-curvature="0"
     style="fill:#5a5a5a" /><path
     d="m 136.681,243.179 c 0,-0.194 0,-0.39 0,-0.585 0.195,0 0.39,0 0.585,0 0,0.195 0,0.391 0,0.585 -0.195,0 -0.39,0 -0.585,0 z"
     id="path341"
     inkscape:connector-curvature="0"
     style="fill:#5a5a5a" /><path
     d="m 154.24,242.594 c 0.195,0 0.39,0 0.585,0 0,0.195 0,0.391 0,0.585 -0.118,-0.077 -0.487,0.098 -0.585,0 -0.098,-0.098 0.079,-0.467 0,-0.585 z"
     id="path343"
     inkscape:connector-curvature="0"
     style="fill:#5a5a5a" /><path
     d="m 246.721,243.179 c 0,-0.194 0,-0.39 0,-0.585 0.193,0 0.39,0 0.585,0 0,0.195 0,0.391 0,0.585 -0.195,0 -0.392,0 -0.585,0 z"
     id="path345"
     inkscape:connector-curvature="0"
     style="fill:#5a5a5a" /><path
     d="m 84.003,243.179 c 0.195,0 0.391,0 0.585,0 0,0.194 0,0.391 0,0.585 -0.116,-0.078 -0.487,0.1 -0.585,0 -0.098,-0.096 0.077,-0.467 0,-0.585 z"
     id="path347"
     inkscape:connector-curvature="0"
     style="fill:#5a5a5a" /><path
     d="m 136.096,243.764 c 0.078,-0.117 -0.098,-0.487 0,-0.585 0.097,-0.098 0.468,0.078 0.585,0 0,0.194 0,0.391 0,0.585 -0.194,0 -0.391,0 -0.585,0 z"
     id="path349"
     inkscape:connector-curvature="0"
     style="fill:#5a5a5a" /><path
     d="m 136.681,243.764 c 0,-0.194 0,-0.391 0,-0.585 0.195,0 0.39,0 0.585,0 0,0.194 0,0.391 0,0.585 -0.195,0 -0.39,0 -0.585,0 z"
     id="path351"
     inkscape:connector-curvature="0"
     style="fill:#5a5a5a" /><path
     d="m 5.571,243.764 c 0.117,0.079 0.487,-0.097 0.585,0 0.098,0.1 -0.078,0.469 0,0.586 -0.195,0 -0.39,0 -0.585,0 0,-0.195 0,-0.39 0,-0.586 z"
     id="path353"
     inkscape:connector-curvature="0"
     style="fill:#5a5a5a" /><path
     d="m 136.096,244.35 c 0,-0.195 0,-0.391 0,-0.586 0.194,0 0.391,0 0.585,0 -0.079,0.118 0.098,0.487 0,0.586 -0.098,0.098 -0.468,-0.079 -0.585,0 z"
     id="path355"
     inkscape:connector-curvature="0"
     style="fill:#5a5a5a" /><path
     d="m 154.826,243.764 c 0.194,0 0.391,0 0.584,0 0,0.195 0,0.391 0,0.586 -0.116,-0.079 -0.487,0.098 -0.584,0 -0.098,-0.098 0.078,-0.467 0,-0.586 z"
     id="path357"
     inkscape:connector-curvature="0"
     style="fill:#5a5a5a" /><path
     d="m 246.135,244.35 c 0.078,-0.117 -0.099,-0.486 0,-0.586 0.098,-0.097 0.468,0.079 0.586,0 -0.079,0.118 0.097,0.487 0,0.586 -0.098,0.098 -0.469,-0.079 -0.586,0 z"
     id="path359"
     inkscape:connector-curvature="0"
     style="fill:#5a5a5a" /><path
     d="m 84.588,244.35 c 0.118,0.079 0.488,-0.099 0.586,0 0.098,0.098 -0.078,0.469 0,0.585 -0.118,-0.077 -0.488,0.098 -0.586,0 -0.098,-0.097 0.078,-0.467 0,-0.585 z"
     id="path361"
     inkscape:connector-curvature="0"
     style="fill:#5a5a5a" /><path
     d="m 135.51,244.935 c 0.079,-0.116 -0.098,-0.487 0,-0.585 0.098,-0.099 0.468,0.079 0.585,0 -0.079,0.117 0.097,0.487 0,0.585 -0.097,0.098 -0.467,-0.077 -0.585,0 z"
     id="path363"
     inkscape:connector-curvature="0"
     style="fill:#5a5a5a" /><path
     d="m 155.41,244.35 c 0.118,0.079 0.488,-0.099 0.586,0 0.098,0.098 -0.079,0.469 0,0.585 -0.117,-0.077 -0.488,0.098 -0.586,0 -0.096,-0.097 0.079,-0.467 0,-0.585 z"
     id="path365"
     inkscape:connector-curvature="0"
     style="fill:#5a5a5a" /><path
     d="m 245.549,244.935 c 0.078,-0.116 -0.097,-0.487 0,-0.585 0.099,-0.099 0.469,0.079 0.586,0 -0.078,0.117 0.098,0.487 0,0.585 -0.099,0.098 -0.469,-0.077 -0.586,0 z"
     id="path367"
     inkscape:connector-curvature="0"
     style="fill:#5a5a5a" /><path
     d="m 134.925,245.521 c 0,-0.195 0,-0.392 0,-0.586 0.195,0 0.39,0 0.585,0 -0.079,0.117 0.098,0.488 0,0.586 -0.098,0.099 -0.468,-0.079 -0.585,0 z"
     id="path369"
     inkscape:connector-curvature="0"
     style="fill:#5a5a5a" /><path
     d="m 155.996,244.935 c 0.118,0.078 0.488,-0.098 0.586,0 0.097,0.098 -0.079,0.468 0,0.586 -0.196,0 -0.391,0 -0.586,0 0,-0.195 0,-0.391 0,-0.586 z"
     id="path371"
     inkscape:connector-curvature="0"
     style="fill:#5a5a5a" /><path
     d="m 244.965,245.521 c 0,-0.195 0,-0.392 0,-0.586 0.193,0 0.39,0 0.584,0 -0.078,0.117 0.099,0.488 0,0.586 -0.097,0.099 -0.468,-0.079 -0.584,0 z"
     id="path373"
     inkscape:connector-curvature="0"
     style="fill:#5a5a5a" /><path
     d="m 85.174,246.107 c 0,-0.196 0,-0.393 0,-0.586 0.194,0 0.39,0 0.584,0 0,0.193 0,0.39 0,0.586 -0.195,0 -0.39,0 -0.584,0 z"
     id="path375"
     inkscape:connector-curvature="0"
     style="fill:#5a5a5a" /><path
     d="m 85.758,246.107 c 0,-0.196 0,-0.393 0,-0.586 3.122,0 6.245,0 9.366,0 1.561,0 3.121,0 4.682,0 1.755,0 3.511,0 5.267,0 1.562,0 3.122,0 4.683,0 1.756,0 3.512,0 5.268,0 3.317,0 6.633,0 9.951,0 0,0.193 0,0.39 0,0.586 -3.317,0 -6.634,0 -9.951,0 -1.756,0 -3.512,0 -5.268,0 -1.561,0 -3.121,0 -4.683,0 -1.756,0 -3.512,0 -5.267,0 -1.561,0 -3.122,0 -4.682,0 -3.122,0 -6.244,0 -9.366,0 z"
     id="path377"
     inkscape:connector-curvature="0"
     style="fill:#5a5a5a" /><path
     d="m 124.975,246.107 c 0,-0.196 0,-0.393 0,-0.586 0.78,0 1.561,0 2.341,0 0,0.193 0,0.39 0,0.586 -0.78,0 -1.561,0 -2.341,0 z"
     id="path379"
     inkscape:connector-curvature="0"
     style="fill:#5a5a5a" /><path
     d="m 127.316,246.107 c 0,-0.196 0,-0.393 0,-0.586 0.196,0 0.391,0 0.586,0 0.081,0 0.533,-0.051 0.584,0 0.098,0.099 -0.078,0.468 0,0.586 -0.39,0 -0.78,0 -1.17,0 z"
     id="path381"
     inkscape:connector-curvature="0"
     style="fill:#5a5a5a" /><path
     d="m 131.999,246.107 c 0.078,-0.118 -0.098,-0.487 0,-0.586 0.097,-0.098 0.468,0.078 0.585,0 0,0.193 0,0.39 0,0.586 -0.195,0 -0.39,0 -0.585,0 z"
     id="path383"
     inkscape:connector-curvature="0"
     style="fill:#5a5a5a" /><path
     d="m 132.584,246.107 c 0,-0.196 0,-0.393 0,-0.586 0.195,0 0.39,0 0.585,0 0,0.193 0,0.39 0,0.586 -0.195,0 -0.39,0 -0.585,0 z"
     id="path385"
     inkscape:connector-curvature="0"
     style="fill:#5a5a5a" /><path
     d="m 133.169,246.107 c 0,-0.196 0,-0.393 0,-0.586 0.196,0 0.391,0 0.586,0 0,0.193 0,0.39 0,0.586 -0.196,0 -0.39,0 -0.586,0 z"
     id="path387"
     inkscape:connector-curvature="0"
     style="fill:#5a5a5a" /><path
     d="m 157.167,246.107 c 0,-0.196 0,-0.393 0,-0.586 0.195,0 0.39,0 0.585,0 0,0.193 0,0.39 0,0.586 -0.195,0 -0.39,0 -0.585,0 z"
     id="path389"
     inkscape:connector-curvature="0"
     style="fill:#5a5a5a" /><path
     d="m 157.752,246.107 c 0,-0.196 0,-0.393 0,-0.586 0.118,0.078 0.488,-0.098 0.586,0 0.097,0.099 -0.079,0.468 0,0.586 -0.195,0 -0.391,0 -0.586,0 z"
     id="path391"
     inkscape:connector-curvature="0"
     style="fill:#5a5a5a" /><path
     d="m 243.209,246.107 c 0.078,-0.118 -0.099,-0.487 0,-0.586 0.097,-0.098 0.468,0.078 0.584,0 0,0.193 0,0.39 0,0.586 -0.194,0 -0.39,0 -0.584,0 z"
     id="path393"
     inkscape:connector-curvature="0"
     style="fill:#5a5a5a" /><path
     d="m 243.793,246.107 c 0,-0.196 0,-0.393 0,-0.586 0.195,0 0.39,0 0.586,0 0,0.193 0,0.39 0,0.586 -0.196,0 -0.39,0 -0.586,0 z"
     id="path395"
     inkscape:connector-curvature="0"
     style="fill:#5a5a5a" /><path
     d="m 134.925,237.327 c 0.195,0 0.39,0 0.585,0 0.079,0.116 -0.098,0.487 0,0.585 0.082,0.082 0.523,-0.094 0.585,0 0.09,0.135 -0.072,0.438 0,0.585 -0.195,0 -0.391,0 -0.585,0 -0.079,-0.117 0.098,-0.488 0,-0.585 -0.082,-0.082 -0.523,0.093 -0.585,0 -0.091,-0.134 0.072,-0.439 0,-0.585 z"
     id="path397"
     inkscape:connector-curvature="0"
     style="fill:#5a5a5a" /><path
     d="m 129.657,220.937 c 0.194,0 0.39,0 0.584,0 0.079,0.117 -0.097,0.488 0,0.585 0.083,0.082 0.524,-0.093 0.586,0 0.09,0.135 -0.072,0.438 0,0.587 -0.195,0 -0.39,0 -0.586,0 -0.078,-0.119 0.098,-0.488 0,-0.587 -0.097,-0.097 -0.468,0.079 -0.584,0 0,-0.194 0,-0.389 0,-0.585 z"
     id="path399"
     inkscape:connector-curvature="0"
     style="fill:#5a5a5a" /><path
     d="m 85.174,238.497 c 0,-0.194 0,-0.391 0,-0.585 0.117,-0.078 0.488,0.097 0.584,0 0.083,-0.082 -0.093,-0.522 0,-0.585 0.136,-0.091 0.439,0.071 0.586,0 0,0.194 0,0.39 0,0.585 -0.117,0.079 -0.488,-0.098 -0.586,0 -0.097,0.097 0.078,0.468 0,0.585 -0.195,0 -0.39,0 -0.584,0 z"
     id="path401"
     inkscape:connector-curvature="0"
     style="fill:#5a5a5a" /><path
     d="m 205.748,86.836 c -0.097,-0.1 0.078,-0.481 0,-0.602 v -1.805 c -0.117,-0.081 -0.487,0.1 -0.584,0 -0.098,-0.1 0.078,-0.481 0,-0.602 v -1.203 h -0.586 v -0.602 c -0.117,-0.079 -0.488,0.1 -0.585,0 -0.098,-0.1 0.077,-0.481 0,-0.602 -0.117,-0.08 -0.488,0.1 -0.585,0 -0.098,-0.1 0.078,-0.481 0,-0.602 -0.078,-0.119 0.098,-0.5 0,-0.602 -0.098,-0.099 -0.468,0.081 -0.585,0 h -0.585 v -0.602 c -0.117,-0.08 -0.488,0.1 -0.586,0 -0.098,-0.1 0.078,-0.481 0,-0.602 h -0.585 c -0.117,-0.08 -0.487,0.1 -0.585,0 -0.098,-0.1 0.078,-0.481 0,-0.602 h -1.756 c -0.118,-0.08 -0.488,0.1 -0.585,0 -0.098,-0.1 0.078,-0.481 0,-0.602 H 23.716 c -0.007,0.011 -0.007,0.026 -0.011,0.039 -0.008,0 -0.016,0 -0.024,0 l 0.035,-0.039 c -4.53,0 -8.195,4.038 -8.195,9.026 l 0.018,-0.018 c 0,0.002 10e-4,0.007 0.002,0.011 -0.001,0.002 -0.001,0.003 -0.001,0.007 H 15.522 V 189.133 H 27.814 V 90.447 h 166.229 v 48.743 h 12.292 V 86.836 c -0.119,-0.08 -0.49,0.101 -0.587,0 z"
     id="path403"
     inkscape:connector-curvature="0"
     style="fill:#5a5a5a" /><path
     d="M 40.104,242.331 V 217.73 c 0.01,-10e-4 0.02,-0.002 0.03,-0.004 v 0.031 H 154.24 V 204.802 H 40.134 v 0.019 c -0.01,0 -0.02,0.004 -0.03,0.005 v -13.739 c 0,-1.941 -1.571,-3.513 -3.511,-3.513 h -28.4 c -0.003,0 -0.004,-0.001 -0.007,-0.001 -0.002,0 -0.003,0.001 -0.006,0.001 H 7.912 l -0.563,0.563 c -0.059,0.009 -0.12,0.016 -0.168,0.039 -0.157,-0.016 -0.368,-0.087 -0.44,-0.017 -0.097,0.098 0.078,0.468 0,0.586 -0.116,0.077 -0.486,-0.099 -0.584,0 -0.064,0.063 -0.013,0.243 0.009,0.394 -0.03,0.062 -0.049,0.124 -0.058,0.191 H 5.571 v 0.585 l -0.585,0.586 v 51.834 c -0.009,0.063 -0.009,0.125 0,0.189 v 0.069 c 0.003,0.002 0.008,0.002 0.013,0.003 0.009,0.036 0.032,0.064 0.047,0.099 0.002,0.102 0.033,0.197 0.08,0.285 0.209,1.771 1.94,3.156 4.063,3.156 v -0.03 h 26.82 c 0.009,-0.014 0.005,-0.038 0.008,-0.056 0.029,-0.002 0.048,-0.014 0.074,-0.016 l -0.083,0.071 c 0.199,0 0.393,-0.017 0.586,-0.041 v 0.041 l 0.045,-0.047 M 14.935,192.843 h 14.633 v 1.171 H 14.935 Z m 9.951,46.24 v 2.926 c -0.118,0.079 -0.488,-0.097 -0.586,0 -0.082,0.081 0.094,0.524 0,0.586 -0.135,0.09 -0.438,-0.072 -0.584,0 h -2.927 c -0.078,-0.117 0.098,-0.487 0,-0.586 -0.082,-0.082 -0.523,0.095 -0.585,0 -0.09,-0.134 0.072,-0.438 0,-0.585 v -2.341 c 0.078,-0.118 -0.098,-0.488 0,-0.586 0.041,-0.04 0.127,-0.034 0.224,-0.018 l -0.224,0.018 h 0.331 c 0.104,0.02 0.204,0.033 0.255,0 0.077,-0.117 -0.098,-0.488 0,-0.585 0.098,-0.098 0.468,0.079 0.585,0 h 2.342 c 0.117,0.079 0.488,-0.098 0.584,0 0.098,0.097 -0.078,0.468 0,0.585 0.118,0.079 0.488,-0.098 0.586,0 0.098,0.098 -0.08,0.468 -0.001,0.586 z m 12.291,-3.512 H 7.912 V 198.11 h 29.266 v 37.461 z"
     id="path405"
     inkscape:connector-curvature="0"
     style="fill:#5a5a5a" /><path
     d="m 36.593,246.066 c 1.94,0 3.511,-1.671 3.511,-3.735"
     id="path407"
     inkscape:connector-curvature="0"
     style="fill:#5a5a5a" /><polyline
     points="130.529,220.773 137.719,243.34 137.12,244.527 135.922,245.123 134.691,246.011 133.525,246.309   84.388,246.309 83.05,244.246 83.191,242.745 83.191,242.152 90.381,220.773 130.228,220.773 "
     id="polyline409"
     style="fill:#5a5a5a" /><path
     d="m 198.105,77.829 0.054,0.06 c -0.024,-0.002 -0.041,-0.013 -0.067,-0.013 -0.666,0 -0.742,0.908 -0.234,1.122 0.086,0.061 0.188,0.106 0.323,0.106 0.371,0 0.558,-0.283 0.564,-0.572 l 6.807,7.499 c -0.362,0.026 -0.533,0.327 -0.513,0.62 -0.013,0.171 0.048,0.341 0.165,0.464 0.087,0.16 0.243,0.282 0.481,0.282 0.383,0 0.57,-0.301 0.564,-0.598 l 0.051,0.056 c -0.001,-4.989 -3.667,-9.026 -8.195,-9.026 z"
     id="path411"
     inkscape:connector-curvature="0"
     style="fill:#5a5a5a" /><text
     id="text417"
     x="230.77724"
     y="155.27991"
     transform="scale(1.0945861,0.91358735)"
     style="font-size:21.15907478px;stroke-width:1.76325643;fill:#5a5a5a;fill-opacity:1;"><tspan
       x="230.77724"
       y="155.27991"
       font-size="52.5943"
       id="tspan413"
       style="font-size:92.73723602px;font-family:'Open Sans';stroke-width:1.76325643;fill:#5a5a5a;fill-opacity:1;">Digital </tspan><tspan
       x="230.77724"
       y="266.56427"
       font-size="52.5943"
       id="tspan415"
       style="font-size:92.73723602px;font-family:'Open Sans';stroke-width:1.76325643;fill:#5a5a5a;fill-opacity:1;">Web</tspan></text>
</svg>