<?xml version="1.0" encoding="UTF-8" standalone="no"?>
<!-- Generator: Adobe Illustrator 15.1.0, SVG Export Plug-In  -->

<svg
   xmlns:xhtml="http://www.w3.org/1999/xhtml"
   xmlns:dc="http://purl.org/dc/elements/1.1/"
   xmlns:cc="http://creativecommons.org/ns#"
   xmlns:rdf="http://www.w3.org/1999/02/22-rdf-syntax-ns#"
   xmlns:svg="http://www.w3.org/2000/svg"
   xmlns="http://www.w3.org/2000/svg"
   xmlns:sodipodi="http://sodipodi.sourceforge.net/DTD/sodipodi-0.dtd"
   xmlns:inkscape="http://www.inkscape.org/namespaces/inkscape"
   version="1.1"
   x="0px"
   y="0px"
   width="433px"
   height="307px"
   viewBox="-10.83 -8.095 433 307"
   enable-background="new -10.83 -8.095 433 307"
   xml:space="preserve"
   id="svg410"
   sodipodi:docname="logo7.svg"
   inkscape:version="0.92.1 r"><metadata
     id="metadata414"><rdf:RDF><cc:Work
         rdf:about=""><dc:format>image/svg+xml</dc:format><dc:type
           rdf:resource="http://purl.org/dc/dcmitype/StillImage" /><dc:title></dc:title></cc:Work></rdf:RDF></metadata><sodipodi:namedview
     pagecolor="#ffffff"
     bordercolor="#666666"
     borderopacity="1"
     objecttolerance="10"
     gridtolerance="10"
     guidetolerance="10"
     inkscape:pageopacity="0"
     inkscape:pageshadow="2"
     inkscape:window-width="1280"
     inkscape:window-height="969"
     id="namedview412"
     showgrid="false"
     inkscape:snap-to-guides="false"
     inkscape:zoom="1.7163262"
     inkscape:cx="216.5"
     inkscape:cy="153.5"
     inkscape:window-x="1920"
     inkscape:window-y="27"
     inkscape:window-maximized="1"
     inkscape:current-layer="svg410" /><defs
     id="defs232" /><path
     d="m 19.588657,0.81402529 c -0.0095,-0.0108474 0.0076,-0.0519645 0,-0.0649557"
     id="path234"
     inkscape:connector-curvature="0"
     style="clip-rule:evenodd;fill:#5a5a5a;fill-rule:evenodd;stroke-width:0.06090547" /><path
     d="m 14.84871,6.8549094 c 0.0076,-0.01299 -0.0095,-0.054107 0,-0.064955 0.0095,-0.010851 0.04569,0.00863 0.05711,0 0,0.021634 0,0.043323 0,0.064955 -0.01901,0 -0.03809,0 -0.05711,0 z"
     id="path236"
     inkscape:connector-curvature="0"
     style="clip-rule:evenodd;fill:#5a5a5a;fill-rule:evenodd;stroke-width:0.06090547" /><path
     d="m 14.905818,6.8549094 c 0,-0.021635 0,-0.043329 0,-0.064955 0.01901,0 0.03809,0 0.05711,0 -0.0076,0.01299 0.0095,0.054107 0,0.064955 -0.0095,0.010851 -0.04569,-0.00863 -0.05711,0 z"
     id="path238"
     inkscape:connector-curvature="0"
     style="clip-rule:evenodd;fill:#5a5a5a;fill-rule:evenodd;stroke-width:0.06090547" /><path
     d="m 14.962926,6.7899534 c 0.685293,0 1.370587,0 2.05588,0 0.685294,0 1.370587,0 2.055881,0 0.685293,0 1.370586,0 2.05588,0 0.342647,0 0.685294,0 1.02794,0 0.07613,0 0.152307,0 0.228432,0 0.03809,0 0.07612,0 0.114215,0 0.05711,0 0.114215,0 0.171323,0 0.07613,0 0.152307,0 0.228432,0 0.03809,0 0.07612,0 0.114215,0 0.07613,0 0.152306,0 0.228432,0 0.0076,0.01299 -0.0095,0.054107 0,0.064955 0.0095,0.010851 0.04569,-0.00863 0.05711,0 0.01902,0 0.03809,0 0.05711,0 0.01902,0 0.03809,0 0.05711,0 0.0076,0.01299 -0.0095,0.054107 0,0.064956 0.0095,0.010851 0.04568,-0.00863 0.05711,0 0.0076,0.01299 -0.0095,0.054107 0,0.064955 0.0095,0.010851 0.04569,-0.00863 0.05711,0 0,0.021635 0,0.043323 0,0.064955 0.01902,0 0.03809,0 0.05711,0 0,0.021635 0,0.043323 0,0.064955 0,0.021635 0,0.043329 0,0.064956 0,0.021628 0,0.043323 0,0.064956 0.01902,0 0.03809,0 0.05711,0 0,0.9310106 0,1.8620856 0,2.7930966 0,0.45469 0,0.909381 0,1.364071 0,0.45469 0,0.90938 0,1.36407 0,0.909381 0,1.818761 0,2.728141 0,0.90938 0,1.81876 0,2.728141 -0.01142,0.0087 -0.04757,-0.01085 -0.05711,0 -0.0095,0.01085 0.0076,0.05196 0,0.06495 0,0.02163 0,0.04332 0,0.06496 0,0.02163 0,0.04332 0,0.06495 -0.01142,0.0087 -0.04757,-0.01085 -0.05711,0 -0.0095,0.01085 0.0076,0.05196 0,0.06496 -0.01142,0.0087 -0.04757,-0.01085 -0.05711,0 -0.0095,0.01085 0.0076,0.05196 0,0.06495 -0.01902,0 -0.03809,0 -0.05711,0 0,0.02164 0,0.04333 0,0.06496 -0.01902,0 -0.03809,0 -0.05711,0 -0.01901,0 -0.03809,0 -0.05711,0 -0.01142,0.0087 -0.04757,-0.01085 -0.05711,0 -0.0095,0.01085 0.0076,0.05196 0,0.06496 -0.704311,0 -1.408678,0 -2.112989,0 -0.685294,0 -1.370587,0 -2.05588,0 -0.685294,0 -1.370587,0 -2.055881,0 -0.685293,0 -1.370587,0 -2.05588,0 -0.0076,-0.01299 0.0095,-0.05411 0,-0.06496 -0.0095,-0.01085 -0.04569,0.0087 -0.05711,0 -0.01902,0 -0.03809,0 -0.05711,0 -0.01902,0 -0.03809,0 -0.05711,0 -0.0076,-0.01299 0.0095,-0.05411 0,-0.06496 -0.0095,-0.01085 -0.04569,0.0087 -0.05711,0 -0.0076,-0.01299 0.0095,-0.05411 0,-0.06495 -0.0095,-0.01085 -0.04569,0.0087 -0.05711,0 0,-0.02164 0,-0.04332 0,-0.06496 -0.01902,0 -0.03809,0 -0.05711,0 0,-0.02163 0,-0.04332 0,-0.06495 0,-0.02164 0,-0.04332 0,-0.06496 -0.0076,-0.01299 0.0095,-0.05411 0,-0.06495 -0.0095,-0.01085 -0.04569,0.0087 -0.05711,0 0,-0.08659 0,-0.173237 0,-0.259824 0,-0.06495 0,-0.129911 0,-0.194866 0,-0.04332 0,-0.08659 0,-0.129912 0,-0.06495 0,-0.129912 0,-0.194868 0,-0.04332 0,-0.08658 0,-0.129912 0,-0.06495 0,-0.129911 0,-0.194866 0,-0.04332 0,-0.08659 0,-0.129911 0,-0.06496 0,-0.129912 0,-0.194868 0,-0.45469 0,-0.90938 0,-1.36407 0,-0.454691 0,-0.909381 0,-1.36407 0,-0.454692 0,-0.909381 0,-1.364071 0,-0.909381 0,-1.818761 0,-2.7281415 0,-0.9093798 0,-1.8187595 0,-2.7281401 0.01142,-0.00863 0.04757,0.010851 0.05711,0 0.0095,-0.010851 -0.0076,-0.051967 0,-0.064956 0,-0.021635 0,-0.043323 0,-0.064956 0,-0.021629 0,-0.043323 0,-0.064955 0.01142,-0.00863 0.04757,0.010851 0.05711,0 0.0095,-0.010851 -0.0076,-0.051967 0,-0.064955 0.01142,-0.00863 0.04757,0.010851 0.05711,0 0.0095,-0.010851 -0.0076,-0.051967 0,-0.064955 0.01902,0 0.03809,0 0.05711,0 0,-0.021635 0,-0.043323 0,-0.064956 0.01902,0 0.03809,0 0.05711,0 0.01901,0 0.03809,0 0.05711,0 0.01142,-0.00863 0.04757,0.010851 0.05711,0 0.0095,-0.010851 -0.0076,-0.051967 0,-0.064955 z m 0.799509,3.6375206 c 0,0.757839 0,1.515612 0,2.273452 0,0.173237 0,0.346408 0,0.519645 0,0.194868 0,0.389734 0,0.584603 0,0.389733 0,0.779468 0,1.169202 0,0.779469 0,1.558938 0,2.338406 0.266522,0 0.532987,0 0.799509,0 0.970832,0 1.941665,0 2.912497,0 0.989849,0 1.979756,0 2.969605,0 0,-0.173236 0,-0.346408 0,-0.519646 0,-0.346408 0,-0.692883 0,-1.039291 0,-0.173236 0,-0.346409 0,-0.519646 0,-0.194867 0,-0.389734 0,-0.584602 0,-0.346409 0,-0.692882 0,-1.039292 0,-0.173237 0,-0.346408 0,-0.519646 0,-0.194867 0,-0.389733 0,-0.584601 0,-1.450656 0,-2.9013779 0,-4.3520339 -0.266522,0 -0.532987,0 -0.799508,0 -0.47588,0 -0.951817,0 -1.427696,0 -0.247447,0 -0.494953,0 -0.742401,0 -0.247448,0 -0.494953,0 -0.742401,0 -0.247448,0 -0.494953,0 -0.742401,0 -0.247448,0 -0.494953,0 -0.742401,0 -0.247449,0 -0.494954,0 -0.742402,0 -0.247448,0 -0.494953,0 -0.742401,0 0,0.7578379 0,1.5156115 0,2.2734499 z"
     id="path240"
     inkscape:connector-curvature="0"
     style="clip-rule:evenodd;fill:#5a5a5a;fill-rule:evenodd;stroke-width:0.06090547" /><path
     d="m 23.243556,6.7899534 c 0.01901,0 0.03809,0 0.05711,0 0,0.021635 0,0.043323 0,0.064955 -0.01142,-0.00863 -0.04757,0.010851 -0.05711,0 -0.0095,-0.010851 0.0076,-0.051967 0,-0.064955 z"
     id="path242"
     inkscape:connector-curvature="0"
     style="clip-rule:evenodd;fill:#5a5a5a;fill-rule:evenodd;stroke-width:0.06090547" /><path
     d="m 23.300663,6.8549094 c 0,-0.021635 0,-0.043329 0,-0.064955 0.01142,0.00863 0.04757,-0.010851 0.05711,0 0.0095,0.01085 -0.0076,0.051967 0,0.064955 -0.01902,0 -0.03809,0 -0.05711,0 z"
     id="path244"
     inkscape:connector-curvature="0"
     style="clip-rule:evenodd;fill:#5a5a5a;fill-rule:evenodd;stroke-width:0.06090547" /><path
     d="m 14.734495,6.9198646 c 0.0076,-0.01299 -0.0095,-0.054107 0,-0.064955 0.0095,-0.010851 0.04568,0.00863 0.05711,0 0,0.021628 0,0.043323 0,0.064955 -0.01902,0 -0.03809,0 -0.05711,0 z"
     id="path246"
     inkscape:connector-curvature="0"
     style="clip-rule:evenodd;fill:#5a5a5a;fill-rule:evenodd;stroke-width:0.06090547" /><path
     d="m 23.414878,6.8549094 c 0.01142,0.00863 0.04757,-0.010851 0.05711,0 0.0095,0.010851 -0.0076,0.051961 0,0.064955 -0.01142,-0.00863 -0.04757,0.010851 -0.05711,0 -0.0095,-0.010851 0.0076,-0.051967 0,-0.064955 z"
     id="path248"
     inkscape:connector-curvature="0"
     style="clip-rule:evenodd;fill:#5a5a5a;fill-rule:evenodd;stroke-width:0.06090547" /><path
     d="m 14.677387,6.9848205 c 0.0076,-0.01299 -0.0095,-0.054107 0,-0.064955 0.0095,-0.010851 0.04569,0.00863 0.05711,0 -0.0076,0.01299 0.0095,0.054107 0,0.064955 -0.0095,0.010851 -0.04569,-0.00863 -0.05711,0 z"
     id="path250"
     inkscape:connector-curvature="0"
     style="clip-rule:evenodd;fill:#5a5a5a;fill-rule:evenodd;stroke-width:0.06090547" /><path
     d="m 23.471987,6.9198646 c 0.01142,0.00863 0.04757,-0.010851 0.05711,0 0.0095,0.010851 -0.0076,0.051967 0,0.064955 -0.01142,-0.00863 -0.04757,0.010851 -0.05711,0 -0.0095,-0.010851 0.0076,-0.051967 0,-0.064955 z"
     id="path252"
     inkscape:connector-curvature="0"
     style="clip-rule:evenodd;fill:#5a5a5a;fill-rule:evenodd;stroke-width:0.06090547" /><path
     d="m 14.620279,7.0497764 c 0,-0.021629 0,-0.043323 0,-0.064955 0.01902,0 0.03809,0 0.05711,0 -0.0076,0.01299 0.0095,0.054107 0,0.064955 -0.0095,0.010851 -0.04569,-0.00863 -0.05711,0 z"
     id="path254"
     inkscape:connector-curvature="0"
     style="clip-rule:evenodd;fill:#5a5a5a;fill-rule:evenodd;stroke-width:0.06090547" /><path
     d="m 23.529094,6.9848205 c 0.01142,0.00863 0.04757,-0.010851 0.05711,0 0.0095,0.010851 -0.0076,0.051967 0,0.064955 -0.01902,0 -0.03809,0 -0.05711,0 0,-0.021628 0,-0.043262 0,-0.064955 z"
     id="path256"
     inkscape:connector-curvature="0"
     style="clip-rule:evenodd;fill:#5a5a5a;fill-rule:evenodd;stroke-width:0.06090547" /><path
     d="m 14.563171,7.1796876 c 0.0076,-0.01299 -0.0095,-0.054107 0,-0.064956 0.0095,-0.01085 0.04569,0.00863 0.05711,0 0,0.021635 0,0.043329 0,0.064956 -0.01902,0 -0.03809,0 -0.05711,0 z"
     id="path258"
     inkscape:connector-curvature="0"
     style="clip-rule:evenodd;fill:#5a5a5a;fill-rule:evenodd;stroke-width:0.06090547" /><path
     d="m 23.586202,7.1796876 c 0,-0.021635 0,-0.043323 0,-0.064956 0.01901,0 0.03809,0 0.05711,0 0,0.021635 0,0.043329 0,0.064956 -0.01901,0 -0.03809,0 -0.05711,0 z"
     id="path260"
     inkscape:connector-curvature="0"
     style="clip-rule:evenodd;fill:#5a5a5a;fill-rule:evenodd;stroke-width:0.06090547" /><path
     d="m 14.563171,7.2446435 c 0,-0.021635 0,-0.043323 0,-0.064955 0.01902,0 0.03809,0 0.05711,0 -0.0076,0.01299 0.0095,0.054107 0,0.064955 -0.0095,0.010851 -0.04569,-0.00863 -0.05711,0 z"
     id="path262"
     inkscape:connector-curvature="0"
     style="clip-rule:evenodd;fill:#5a5a5a;fill-rule:evenodd;stroke-width:0.06090547" /><path
     d="m 23.586202,7.1796876 c 0.01901,0 0.03809,0 0.05711,0 0,0.021628 0,0.043323 0,0.064955 -0.01901,0 -0.03809,0 -0.05711,0 0,-0.021635 0,-0.043262 0,-0.064955 z"
     id="path264"
     inkscape:connector-curvature="0"
     style="clip-rule:evenodd;fill:#5a5a5a;fill-rule:evenodd;stroke-width:0.06090547" /><path
     d="m 8.3955302,15.948712 c 0.00763,-0.01299 -0.00954,-0.05411 0,-0.06495 0.00954,-0.01085 0.045686,0.0087 0.057109,0 -0.00763,0.01299 0.00954,0.05411 0,0.06495 -0.00954,0.01085 -0.045686,-0.0087 -0.057109,0 z"
     id="path266"
     inkscape:connector-curvature="0"
     style="clip-rule:evenodd;fill:#5a5a5a;fill-rule:evenodd;stroke-width:0.06090547" /><path
     d="m 8.452638,15.883757 c 0.6091685,0 1.2182804,0 1.827449,0 0.304556,0 0.609169,0 0.913725,0 0.152306,0 0.304555,0 0.456862,0 0.171323,0 0.342647,0 0.513971,0 0,0.02163 0,0.04332 0,0.06495 0.01142,0.0087 0.04757,-0.01085 0.05711,0 0.0095,0.01085 -0.0076,0.05196 0,0.06496 0.01901,0 0.03809,0 0.05711,0 0,0.04332 0,0.08658 0,0.129912 0,0.02164 0,0.04332 0,0.06496 0,0.02163 0,0.04333 0,0.06495 0.01902,0 0.03809,0 0.05711,0 0,0.02164 0,0.04332 0,0.06496 0,0.02163 0,0.04332 0,0.06495 0.0076,0.01299 -0.0095,0.05411 0,0.06496 0.0095,0.01085 0.04569,-0.0087 0.05711,0 0,0.04332 0,0.08659 0,0.129911 0,0.02163 0,0.04332 0,0.06496 0,0.02164 0,0.04332 0,0.06495 0.01901,0 0.03809,0 0.05711,0 0,0.04333 0,0.08659 0,0.129911 0,0.02163 0,0.04332 0,0.06495 0,0.02164 0,0.04332 0,0.06496 0.01901,0 0.03809,0 0.05711,0 0,0.02163 0,0.04332 0,0.06495 0,0.02164 0,0.04332 0,0.06496 0.0076,0.01299 -0.0095,0.05411 0,0.06495 0.0095,0.01085 0.04569,-0.0087 0.05711,0 0,0.04332 0,0.08658 0,0.129911 0,0.02164 0,0.04332 0,0.06496 0,0.02164 0,0.04332 0,0.06496 0.01901,0 0.03809,0 0.05711,0 0,0.02164 0,0.04332 0,0.06495 0,0.02164 0,0.04333 0,0.06496 0.0076,0.01299 -0.0095,0.05411 0,0.06495 0.0095,0.01085 0.04569,-0.0087 0.05711,0 0,0.02164 0,0.04332 0,0.06496 0.007,0.0163 -0.0088,0.05002 0,0.06496 0.0061,0.01039 0.04912,-0.0091 0.05711,0 0.0095,0.01085 -0.0076,0.05196 0,0.06495 0.01902,0 0.03809,0 0.05711,0 0,0.04332 0,0.08659 0,0.129911 0,0.02164 0,0.04332 0,0.06496 0,0.02164 0,0.04333 0,0.06496 0.01901,0 0.03809,0 0.05711,0 0,0.04332 0,0.08659 0,0.129912 0,0.02163 0,0.04332 0,0.06495 0,0.02163 0,0.04332 0,0.06496 -0.01142,0.0087 -0.04757,-0.01085 -0.05711,0 -0.0095,0.01085 0.0076,0.05196 0,0.06495 0,0.02163 0,0.04332 0,0.06496 -0.01142,0.0087 -0.04757,-0.01085 -0.05711,0 -0.0095,0.01085 0.0076,0.05196 0,0.06495 -0.01901,0 -0.03809,0 -0.05711,0 0,0.02164 0,0.04333 0,0.06496 -0.03809,0 -0.07612,0 -0.114216,0 -0.01902,0 -0.03809,0 -0.05711,0 -0.01902,0 -0.03809,0 -0.05711,0 -0.01142,0.0087 -0.04757,-0.01085 -0.05711,0 -0.0095,0.01085 0.0076,0.05196 0,0.06496 -0.114215,0 -0.228431,0 -0.342647,0 -0.0076,-0.01299 0.0095,-0.05411 0,-0.06496 -0.005,-0.0057 -0.04923,0 -0.05711,0 -0.01902,0 -0.03809,0 -0.05711,0 -0.07612,0 -0.152306,0 -0.22843,0 -0.32363,0 -0.647203,0 -0.970833,0 -0.171323,0 -0.342646,0 -0.51397,0 -0.152306,0 -0.3045558,0 -0.4568627,0 -0.1713231,0 -0.3426462,0 -0.5139701,0 -0.1523061,0 -0.3045556,0 -0.4568617,0 -0.3045564,0 -0.6091693,0 -0.9137249,0 -0.019018,0 -0.038091,0 -0.057108,0 0,-0.02164 0,-0.04332 0,-0.06496 -0.00759,-0.01299 0.00954,-0.05411 0,-0.06495 -0.00954,-0.01085 -0.045686,0.0087 -0.057108,0 0,-0.02164 0,-0.04332 0,-0.06496 0,-0.02163 0,-0.04332 0,-0.06495 0,-0.04332 0,-0.08659 0,-0.129911 0.011422,-0.0087 0.047571,0.01085 0.057108,0 0.00954,-0.01085 -0.00759,-0.05196 0,-0.06496 0,-0.02163 0,-0.04332 0,-0.06495 0,-0.06496 0,-0.129912 0,-0.194867 0.011422,-0.0087 0.047571,0.01085 0.057108,0 0.00954,-0.01085 -0.00763,-0.05197 0,-0.06496 0.00763,-0.01299 -0.00954,-0.05411 0,-0.06495 0.00954,-0.01085 0.045686,0.0087 0.057109,0 0,-0.02164 0,-0.04332 0,-0.06496 0,-0.06496 0,-0.129911 0,-0.194868 0.011423,-0.0087 0.047574,0.01085 0.057109,0 0.00954,-0.01085 -0.00763,-0.05196 0,-0.06495 0,-0.06496 0,-0.129912 0,-0.194867 0.019015,0 0.038094,0 0.057109,0 0.011423,-0.0087 0.047574,0.01085 0.057109,0 0.00954,-0.01085 -0.00763,-0.05196 0,-0.06496 0,-0.06495 0,-0.129912 0,-0.194867 0.011423,-0.0087 0.047574,0.01085 0.057109,0 0.00954,-0.01085 -0.00763,-0.05196 0,-0.06496 0,-0.06495 0,-0.129911 0,-0.194867 0.011423,-0.0087 0.047574,0.01085 0.057109,0 0.007,-0.008 -0.00252,-0.05339 0,-0.06495 0.00409,-0.01845 0,-0.04586 0,-0.06496 0,-0.04332 0,-0.08659 0,-0.129911 0.011423,-0.0087 0.047574,0.01085 0.057109,0 0.00954,-0.01085 -0.00763,-0.05196 0,-0.06496 0,-0.02163 0,-0.04332 0,-0.06495 0,-0.02164 0,-0.04332 0,-0.06496 0.011423,-0.0087 0.047574,0.01085 0.057109,0 0.00954,-0.01085 -0.00763,-0.05196 0,-0.06495 0,-0.02163 0,-0.04332 0,-0.06496 0.011424,-0.0087 0.047574,0.01085 0.057109,0 0.00954,-0.01085 -0.00763,-0.05196 0,-0.06495 0,-0.02164 0,-0.04332 0,-0.06496 0,-0.02163 0,-0.04332 0,-0.06496 0.011423,-0.0087 0.047574,0.01085 0.057109,0 0.00954,-0.01085 -0.00763,-0.05196 0,-0.06495 z"
     id="path268"
     inkscape:connector-curvature="0"
     style="clip-rule:evenodd;fill:#5a5a5a;fill-rule:evenodd;stroke-width:0.06090547" /><path
     d="m 8.3384225,16.078624 c 0.00763,-0.01299 -0.00954,-0.05411 0,-0.06496 0.00954,-0.01085 0.045686,0.0087 0.057109,0 0,0.02164 0,0.04332 0,0.06496 -0.019078,0 -0.038094,0 -0.057109,0 z"
     id="path270"
     inkscape:connector-curvature="0"
     style="clip-rule:evenodd;fill:#5a5a5a;fill-rule:evenodd;stroke-width:0.06090547" /><path
     d="m 8.3384225,16.14358 c 0,-0.02163 0,-0.04332 0,-0.06495 0.019016,0 0.038094,0 0.057109,0 -0.00763,0.01299 0.00954,0.05411 0,0.06495 -0.00954,0.01085 -0.045686,-0.0087 -0.057109,0 z"
     id="path272"
     inkscape:connector-curvature="0"
     style="clip-rule:evenodd;fill:#5a5a5a;fill-rule:evenodd;stroke-width:0.06090547" /><path
     d="m 12.27886,16.208535 c 0,-0.02163 0,-0.04332 0,-0.06496 0.01142,0.0087 0.04757,-0.01085 0.05711,0 0.0095,0.01085 -0.0076,0.05197 0,0.06496 -0.01901,0 -0.03809,0 -0.05711,0 z"
     id="path274"
     inkscape:connector-curvature="0"
     style="clip-rule:evenodd;fill:#5a5a5a;fill-rule:evenodd;stroke-width:0.06090547" /><path
     d="m 8.2813148,16.273491 c 0.00763,-0.01299 -0.00954,-0.05411 0,-0.06495 0.00954,-0.01085 0.045686,0.0087 0.057109,0 -0.00763,0.01299 0.00954,0.05411 0,0.06495 -0.00954,0.01085 -0.045686,-0.0087 -0.057109,0 z"
     id="path276"
     inkscape:connector-curvature="0"
     style="clip-rule:evenodd;fill:#5a5a5a;fill-rule:evenodd;stroke-width:0.06090547" /><path
     d="m 12.27886,16.208535 c 0.01901,0 0.03809,0 0.05711,0 0,0.02163 0,0.04333 0,0.06495 -0.01901,0 -0.03809,0 -0.05711,0 0,-0.02163 0,-0.04332 0,-0.06495 z"
     id="path278"
     inkscape:connector-curvature="0"
     style="clip-rule:evenodd;fill:#5a5a5a;fill-rule:evenodd;stroke-width:0.06090547" /><path
     d="m 8.2242071,16.403403 c 0.00763,-0.01299 -0.00954,-0.05411 0,-0.06495 0.00954,-0.01085 0.045686,0.0087 0.057109,0 0,0.02163 0,0.04332 0,0.06495 -0.019078,0 -0.038094,0 -0.057109,0 z"
     id="path280"
     inkscape:connector-curvature="0"
     style="clip-rule:evenodd;fill:#5a5a5a;fill-rule:evenodd;stroke-width:0.06090547" /><path
     d="m 12.335968,16.403403 c 0,-0.02163 0,-0.04332 0,-0.06495 0.01902,0 0.03809,0 0.05711,0 0,0.02163 0,0.04332 0,0.06495 -0.01902,0 -0.03809,0 -0.05711,0 z"
     id="path282"
     inkscape:connector-curvature="0"
     style="clip-rule:evenodd;fill:#5a5a5a;fill-rule:evenodd;stroke-width:0.06090547" /><path
     d="m 8.2242071,16.468359 c 0,-0.02164 0,-0.04332 0,-0.06496 0.019016,0 0.038094,0 0.057109,0 -0.00763,0.01299 0.00954,0.05411 0,0.06496 -0.00954,0.01085 -0.045686,-0.0087 -0.057109,0 z"
     id="path284"
     inkscape:connector-curvature="0"
     style="clip-rule:evenodd;fill:#5a5a5a;fill-rule:evenodd;stroke-width:0.06090547" /><path
     d="m 12.335968,16.403403 c 0.01902,0 0.03809,0 0.05711,0 0,0.02164 0,0.04332 0,0.06496 -0.01142,-0.0087 -0.04757,0.01085 -0.05711,0 -0.0095,-0.01085 0.0076,-0.05196 0,-0.06496 z"
     id="path286"
     inkscape:connector-curvature="0"
     style="clip-rule:evenodd;fill:#5a5a5a;fill-rule:evenodd;stroke-width:0.06090547" /><path
     d="m 12.393075,16.663225 c 0,-0.02163 0,-0.04332 0,-0.06496 0.01902,0 0.03809,0 0.05711,0 0,0.02163 0,0.04332 0,0.06496 -0.01902,0 -0.03809,0 -0.05711,0 z"
     id="path288"
     inkscape:connector-curvature="0"
     style="clip-rule:evenodd;fill:#5a5a5a;fill-rule:evenodd;stroke-width:0.06090547" /><path
     d="m 12.393075,16.663225 c 0.01902,0 0.03809,0 0.05711,0 0,0.02164 0,0.04332 0,0.06495 -0.01902,0 -0.03809,0 -0.05711,0 0,-0.02163 0,-0.04332 0,-0.06495 z"
     id="path290"
     inkscape:connector-curvature="0"
     style="clip-rule:evenodd;fill:#5a5a5a;fill-rule:evenodd;stroke-width:0.06090547" /><path
     d="m 8.1670994,16.728181 c 0,0.06496 0,0.129912 0,0.194867 -0.019015,0 -0.038094,0 -0.057109,0 0,-0.06495 0,-0.129912 0,-0.194867 0.019016,0 0.038031,0 0.057109,0 z"
     id="path292"
     inkscape:connector-curvature="0"
     style="clip-rule:evenodd;fill:#5a5a5a;fill-rule:evenodd;stroke-width:0.06090547" /><path
     d="m 12.450183,16.923048 c 0,-0.02163 0,-0.04332 0,-0.06495 0.01142,0.0087 0.04757,-0.01085 0.05711,0 0.0095,0.01085 -0.0076,0.05196 0,0.06495 -0.01901,0 -0.03809,0 -0.05711,0 z"
     id="path294"
     inkscape:connector-curvature="0"
     style="clip-rule:evenodd;fill:#5a5a5a;fill-rule:evenodd;stroke-width:0.06090547" /><path
     d="m 8.1099909,16.988005 c 0,-0.02164 0,-0.04332 0,-0.06496 0.019016,0 0.038094,0 0.057109,0 -0.00763,0.01299 0.00954,0.05411 0,0.06496 -0.00954,0.01085 -0.045686,-0.0087 -0.057109,0 z"
     id="path296"
     inkscape:connector-curvature="0"
     style="clip-rule:evenodd;fill:#5a5a5a;fill-rule:evenodd;stroke-width:0.06090547" /><path
     d="m 12.450183,16.923048 c 0.01902,0 0.03809,0 0.05711,0 0,0.02164 0,0.04332 0,0.06496 -0.01901,0 -0.03809,0 -0.05711,0 0,-0.02164 0,-0.04332 0,-0.06496 z"
     id="path298"
     inkscape:connector-curvature="0"
     style="clip-rule:evenodd;fill:#5a5a5a;fill-rule:evenodd;stroke-width:0.06090547" /><path
     d="m 8.1099909,16.988005 c 0,0.06495 0,0.129911 0,0.194866 -0.019015,0 -0.038094,0 -0.057109,0 0,-0.06495 0,-0.129912 0,-0.194866 0.019016,0 0.038031,0 0.057109,0 z"
     id="path300"
     inkscape:connector-curvature="0"
     style="clip-rule:evenodd;fill:#5a5a5a;fill-rule:evenodd;stroke-width:0.06090547" /><path
     d="m 12.507291,17.117916 c 0,-0.02164 0,-0.04332 0,-0.06496 0.01901,0 0.03809,0 0.05711,0 0,0.02164 0,0.04332 0,0.06496 -0.01901,0 -0.03809,0 -0.05711,0 z"
     id="path302"
     inkscape:connector-curvature="0"
     style="clip-rule:evenodd;fill:#5a5a5a;fill-rule:evenodd;stroke-width:0.06090547" /><path
     d="m 12.507291,17.117916 c 0.01901,0 0.03809,0 0.05711,0 0,0.02164 0,0.04332 0,0.06495 -0.01142,-0.0087 -0.04757,0.01085 -0.05711,0 -0.0095,-0.01085 0.0076,-0.05197 0,-0.06495 z"
     id="path304"
     inkscape:connector-curvature="0"
     style="clip-rule:evenodd;fill:#5a5a5a;fill-rule:evenodd;stroke-width:0.06090547" /><path
     d="m 7.9957755,17.247827 c 0.00763,-0.01299 -0.00954,-0.05411 0,-0.06496 0.00954,-0.01085 0.045686,0.0087 0.057109,0 0,0.02164 0,0.04332 0,0.06496 -0.01907,0 -0.038094,0 -0.057109,0 z"
     id="path306"
     inkscape:connector-curvature="0"
     style="clip-rule:evenodd;fill:#5a5a5a;fill-rule:evenodd;stroke-width:0.06090547" /><path
     d="m 8.0528832,17.247827 c 0,-0.02163 0,-0.04332 0,-0.06496 0.019016,0 0.038094,0 0.057109,0 -0.00763,0.01299 0.00954,0.05411 0,0.06496 -0.00954,0.01085 -0.045686,-0.0087 -0.057109,0 z"
     id="path308"
     inkscape:connector-curvature="0"
     style="clip-rule:evenodd;fill:#5a5a5a;fill-rule:evenodd;stroke-width:0.06090547" /><path
     d="m 12.564398,17.377739 c 0,-0.02164 0,-0.04332 0,-0.06496 0.01142,0.0087 0.04758,-0.01085 0.05711,0 0.0095,0.01085 -0.0076,0.05196 0,0.06496 -0.01902,0 -0.03809,0 -0.05711,0 z"
     id="path310"
     inkscape:connector-curvature="0"
     style="clip-rule:evenodd;fill:#5a5a5a;fill-rule:evenodd;stroke-width:0.06090547" /><path
     d="m 12.564398,17.377739 c 0.01902,0 0.03809,0 0.05711,0 0,0.02164 0,0.04332 0,0.06496 -0.01902,0 -0.03809,0 -0.05711,0 0,-0.02163 0,-0.04332 0,-0.06496 z"
     id="path312"
     inkscape:connector-curvature="0"
     style="clip-rule:evenodd;fill:#5a5a5a;fill-rule:evenodd;stroke-width:0.06090547" /><path
     d="m 7.9386678,17.50765 c 0.00763,-0.01299 -0.00954,-0.05411 0,-0.06495 0.00954,-0.01085 0.045686,0.0087 0.057109,0 -0.00763,0.01299 0.00954,0.05411 0,0.06495 -0.00954,0.01085 -0.045686,-0.0087 -0.057109,0 z"
     id="path314"
     inkscape:connector-curvature="0"
     style="clip-rule:evenodd;fill:#5a5a5a;fill-rule:evenodd;stroke-width:0.06090547" /><path
     d="m 12.621506,17.572606 c 0,-0.02164 0,-0.04332 0,-0.06496 0.01142,0.0087 0.04757,-0.01085 0.05711,0 0.0095,0.01085 -0.0076,0.05196 0,0.06496 -0.01902,0 -0.03809,0 -0.05711,0 z"
     id="path316"
     inkscape:connector-curvature="0"
     style="clip-rule:evenodd;fill:#5a5a5a;fill-rule:evenodd;stroke-width:0.06090547" /><path
     d="m 12.621506,17.572606 c 0.01902,0 0.03809,0 0.05711,0 0,0.02163 0,0.04332 0,0.06495 -0.01142,-0.0087 -0.04757,0.01085 -0.05711,0 -0.0095,-0.01085 0.0076,-0.05196 0,-0.06495 z"
     id="path318"
     inkscape:connector-curvature="0"
     style="clip-rule:evenodd;fill:#5a5a5a;fill-rule:evenodd;stroke-width:0.06090547" /><path
     d="m 7.8244522,17.897384 c 0,-0.02164 0,-0.04332 0,-0.06496 0.019018,0 0.038092,0 0.057108,0 -0.00763,0.01299 0.00954,0.05411 0,0.06496 -0.00954,0.01085 -0.045686,-0.0087 -0.057108,0 z"
     id="path320"
     inkscape:connector-curvature="0"
     style="clip-rule:evenodd;fill:#5a5a5a;fill-rule:evenodd;stroke-width:0.06090547" /><path
     d="m 12.79283,18.027295 c 0,-0.02163 0,-0.04332 0,-0.06496 0.01902,0 0.03809,0 0.05711,0 0,0.02164 0,0.04332 0,0.06496 -0.01901,0 -0.03809,0 -0.05711,0 z"
     id="path322"
     inkscape:connector-curvature="0"
     style="clip-rule:evenodd;fill:#5a5a5a;fill-rule:evenodd;stroke-width:0.06090547" /><path
     d="m 12.79283,18.027295 c 0.01902,0 0.03809,0 0.05711,0 0,0.02164 0,0.04333 0,0.06496 -0.01901,0 -0.03809,0 -0.05711,0 0,-0.02164 0,-0.04332 0,-0.06496 z"
     id="path324"
     inkscape:connector-curvature="0"
     style="clip-rule:evenodd;fill:#5a5a5a;fill-rule:evenodd;stroke-width:0.06090547" /><path
     d="m 7.7673444,18.157207 c 0.00759,-0.01299 -0.00954,-0.05411 0,-0.06495 0.00954,-0.01085 0.045687,0.0087 0.057108,0 0,0.02163 0,0.04332 0,0.06495 -0.019075,0 -0.038091,0 -0.057108,0 z"
     id="path326"
     inkscape:connector-curvature="0"
     style="clip-rule:evenodd;fill:#5a5a5a;fill-rule:evenodd;stroke-width:0.06090547" /><path
     d="m 7.7673444,18.222164 c 0,-0.02164 0,-0.04332 0,-0.06496 0.019018,0 0.038092,0 0.057108,0 -0.00759,0.01299 0.00954,0.05411 0,0.06496 -0.00954,0.01085 -0.045686,-0.0087 -0.057108,0 z"
     id="path328"
     inkscape:connector-curvature="0"
     style="clip-rule:evenodd;fill:#5a5a5a;fill-rule:evenodd;stroke-width:0.06090547" /><path
     d="m 7.7673444,18.222164 c 0,0.04332 0,0.08658 0,0.129911 -0.019018,0 -0.038091,0 -0.057108,0 0,-0.02164 0,-0.04332 0,-0.06496 0,-0.009 -0.00503,-0.05924 0,-0.06495 0.00948,-0.01085 0.045687,0.0087 0.057108,0 z"
     id="path330"
     inkscape:connector-curvature="0"
     style="clip-rule:evenodd;fill:#5a5a5a;fill-rule:evenodd;stroke-width:0.06090547" /><path
     d="m 12.849938,18.287119 c 0,-0.02164 0,-0.04332 0,-0.06495 0.01142,0.0087 0.04757,-0.01085 0.05711,0 0.0095,0.01085 -0.0076,0.05196 0,0.06495 -0.01901,0 -0.03809,0 -0.05711,0 z"
     id="path332"
     inkscape:connector-curvature="0"
     style="clip-rule:evenodd;fill:#5a5a5a;fill-rule:evenodd;stroke-width:0.06090547" /><path
     d="m 14.563171,18.287119 c 0,-0.02164 0,-0.04332 0,-0.06495 0.01142,0.0087 0.04757,-0.01085 0.05711,0 0.0095,0.01085 -0.0076,0.05196 0,0.06495 -0.01902,0 -0.03809,0 -0.05711,0 z"
     id="path334"
     inkscape:connector-curvature="0"
     style="clip-rule:evenodd;fill:#5a5a5a;fill-rule:evenodd;stroke-width:0.06090547" /><path
     d="m 23.586202,18.287119 c 0.0076,-0.01299 -0.0095,-0.05411 0,-0.06495 0.0095,-0.01085 0.04569,0.0087 0.05711,0 0,0.02163 0,0.04332 0,0.06495 -0.01901,0 -0.03809,0 -0.05711,0 z"
     id="path336"
     inkscape:connector-curvature="0"
     style="clip-rule:evenodd;fill:#5a5a5a;fill-rule:evenodd;stroke-width:0.06090547" /><path
     d="m 12.849938,18.352075 c 0,-0.02164 0,-0.04332 0,-0.06496 0.01901,0 0.03809,0 0.05711,0 0,0.02163 0,0.04332 0,0.06496 -0.01901,0 -0.03809,0 -0.05711,0 z"
     id="path338"
     inkscape:connector-curvature="0"
     style="clip-rule:evenodd;fill:#5a5a5a;fill-rule:evenodd;stroke-width:0.06090547" /><path
     d="m 14.563171,18.287119 c 0.01902,0 0.03809,0 0.05711,0 0,0.02163 0,0.04332 0,0.06496 -0.01142,-0.0087 -0.04757,0.01085 -0.05711,0 -0.0095,-0.01085 0.0076,-0.05196 0,-0.06496 z"
     id="path340"
     inkscape:connector-curvature="0"
     style="clip-rule:evenodd;fill:#5a5a5a;fill-rule:evenodd;stroke-width:0.06090547" /><path
     d="m 23.586202,18.352075 c 0,-0.02164 0,-0.04332 0,-0.06496 0.01901,0 0.03809,0 0.05711,0 0,0.02163 0,0.04332 0,0.06496 -0.01901,0 -0.03809,0 -0.05711,0 z"
     id="path342"
     inkscape:connector-curvature="0"
     style="clip-rule:evenodd;fill:#5a5a5a;fill-rule:evenodd;stroke-width:0.06090547" /><path
     d="m 7.7102366,18.352075 c 0.019018,0 0.038091,0 0.057108,0 0,0.02163 0,0.04332 0,0.06495 -0.011422,-0.0087 -0.047571,0.01085 -0.057108,0 -0.00954,-0.01085 0.00759,-0.05196 0,-0.06495 z"
     id="path344"
     inkscape:connector-curvature="0"
     style="clip-rule:evenodd;fill:#5a5a5a;fill-rule:evenodd;stroke-width:0.06090547" /><path
     d="m 12.79283,18.41703 c 0.0076,-0.01299 -0.0095,-0.05411 0,-0.06495 0.0095,-0.01085 0.04569,0.0087 0.05711,0 0,0.02163 0,0.04332 0,0.06495 -0.01901,0 -0.03809,0 -0.05711,0 z"
     id="path346"
     inkscape:connector-curvature="0"
     style="clip-rule:evenodd;fill:#5a5a5a;fill-rule:evenodd;stroke-width:0.06090547" /><path
     d="m 12.849938,18.41703 c 0,-0.02163 0,-0.04332 0,-0.06495 0.01901,0 0.03809,0 0.05711,0 0,0.02163 0,0.04332 0,0.06495 -0.01901,0 -0.03809,0 -0.05711,0 z"
     id="path348"
     inkscape:connector-curvature="0"
     style="clip-rule:evenodd;fill:#5a5a5a;fill-rule:evenodd;stroke-width:0.06090547" /><path
     d="m 0.05779308,18.41703 c 0.01142156,0.0087 0.04757079,-0.01085 0.05710779,0 0.009537,0.01085 -0.007595,0.05196 0,0.06496 -0.01901686,0 -0.03809089,0 -0.05710779,0 0,-0.02164 0,-0.04332 0,-0.06496 z"
     id="path350"
     inkscape:connector-curvature="0"
     style="clip-rule:evenodd;fill:#5a5a5a;fill-rule:evenodd;stroke-width:0.06090547" /><path
     d="m 12.79283,18.481987 c 0,-0.02164 0,-0.04332 0,-0.06496 0.01902,0 0.03809,0 0.05711,0 -0.0076,0.01299 0.0095,0.05411 0,0.06496 -0.0095,0.01085 -0.04568,-0.0087 -0.05711,0 z"
     id="path352"
     inkscape:connector-curvature="0"
     style="clip-rule:evenodd;fill:#5a5a5a;fill-rule:evenodd;stroke-width:0.06090547" /><path
     d="m 14.620279,18.41703 c 0.01902,0 0.03809,0 0.05711,0 0,0.02163 0,0.04332 0,0.06496 -0.01142,-0.0087 -0.04757,0.01085 -0.05711,0 -0.0095,-0.01085 0.0076,-0.05196 0,-0.06496 z"
     id="path354"
     inkscape:connector-curvature="0"
     style="clip-rule:evenodd;fill:#5a5a5a;fill-rule:evenodd;stroke-width:0.06090547" /><path
     d="m 23.529094,18.481987 c 0.0076,-0.01299 -0.0095,-0.05411 0,-0.06496 0.0095,-0.01085 0.04569,0.0087 0.05711,0 -0.0076,0.01299 0.0095,0.05411 0,0.06496 -0.0095,0.01085 -0.04569,-0.0087 -0.05711,0 z"
     id="path356"
     inkscape:connector-curvature="0"
     style="clip-rule:evenodd;fill:#5a5a5a;fill-rule:evenodd;stroke-width:0.06090547" /><path
     d="m 7.7673444,18.481987 c 0.011422,0.0087 0.047571,-0.01085 0.057108,0 0.00954,0.01085 -0.00759,0.05196 0,0.06495 -0.011422,-0.0087 -0.047571,0.01085 -0.057108,0 -0.00954,-0.01085 0.00759,-0.05196 0,-0.06495 z"
     id="path358"
     inkscape:connector-curvature="0"
     style="clip-rule:evenodd;fill:#5a5a5a;fill-rule:evenodd;stroke-width:0.06090547" /><path
     d="m 12.735722,18.546941 c 0.0076,-0.01299 -0.0095,-0.05411 0,-0.06495 0.0095,-0.01085 0.04569,0.0087 0.05711,0 -0.0076,0.01299 0.0095,0.05411 0,0.06495 -0.0095,0.01085 -0.04569,-0.0087 -0.05711,0 z"
     id="path360"
     inkscape:connector-curvature="0"
     style="clip-rule:evenodd;fill:#5a5a5a;fill-rule:evenodd;stroke-width:0.06090547" /><path
     d="m 14.677387,18.481987 c 0.01142,0.0087 0.04757,-0.01085 0.05711,0 0.0095,0.01085 -0.0076,0.05196 0,0.06495 -0.01142,-0.0087 -0.04757,0.01085 -0.05711,0 -0.0095,-0.01085 0.0076,-0.05196 0,-0.06495 z"
     id="path362"
     inkscape:connector-curvature="0"
     style="clip-rule:evenodd;fill:#5a5a5a;fill-rule:evenodd;stroke-width:0.06090547" /><path
     d="m 23.471987,18.546941 c 0.0076,-0.01299 -0.0095,-0.05411 0,-0.06495 0.0095,-0.01085 0.04569,0.0087 0.05711,0 -0.0076,0.01299 0.0095,0.05411 0,0.06495 -0.0095,0.01085 -0.04569,-0.0087 -0.05711,0 z"
     id="path364"
     inkscape:connector-curvature="0"
     style="clip-rule:evenodd;fill:#5a5a5a;fill-rule:evenodd;stroke-width:0.06090547" /><path
     d="m 12.678615,18.611898 c 0,-0.02164 0,-0.04332 0,-0.06496 0.01901,0 0.03809,0 0.05711,0 -0.0076,0.01299 0.0095,0.05411 0,0.06496 -0.0095,0.01085 -0.04569,-0.0087 -0.05711,0 z"
     id="path366"
     inkscape:connector-curvature="0"
     style="clip-rule:evenodd;fill:#5a5a5a;fill-rule:evenodd;stroke-width:0.06090547" /><path
     d="m 14.734495,18.546941 c 0.01142,0.0087 0.04757,-0.01085 0.05711,0 0.0095,0.01085 -0.0076,0.05196 0,0.06496 -0.01902,0 -0.03809,0 -0.05711,0 0,-0.02164 0,-0.04332 0,-0.06496 z"
     id="path368"
     inkscape:connector-curvature="0"
     style="clip-rule:evenodd;fill:#5a5a5a;fill-rule:evenodd;stroke-width:0.06090547" /><path
     d="m 23.414878,18.611898 c 0,-0.02164 0,-0.04332 0,-0.06496 0.01902,0 0.03809,0 0.05711,0 -0.0076,0.01299 0.0095,0.05411 0,0.06496 -0.0095,0.01085 -0.04568,-0.0087 -0.05711,0 z"
     id="path370"
     inkscape:connector-curvature="0"
     style="clip-rule:evenodd;fill:#5a5a5a;fill-rule:evenodd;stroke-width:0.06090547" /><path
     d="m 7.8244522,18.676853 c 0,-0.02163 0,-0.04332 0,-0.06496 0.019018,0 0.038092,0 0.057108,0 0,0.02163 0,0.04332 0,0.06496 -0.019075,0 -0.038091,0 -0.057108,0 z"
     id="path372"
     inkscape:connector-curvature="0"
     style="clip-rule:evenodd;fill:#5a5a5a;fill-rule:evenodd;stroke-width:0.06090547" /><path
     d="m 7.8815601,18.676853 c 0,-0.02163 0,-0.04332 0,-0.06496 0.3045555,0 0.6091685,0 0.9137249,0 0.1523061,0 0.3045556,0 0.4568617,0 0.1713239,0 0.342647,0 0.5139701,0 0.1523069,0 0.3045562,0 0.4568622,0 0.171324,0 0.342647,0 0.51397,0 0.32363,0 0.647203,0 0.970833,0 0,0.02163 0,0.04332 0,0.06496 -0.32363,0 -0.647203,0 -0.970833,0 -0.171323,0 -0.342646,0 -0.51397,0 -0.152306,0 -0.3045553,0 -0.4568622,0 -0.1713231,0 -0.3426462,0 -0.5139701,0 -0.1523061,0 -0.3045556,0 -0.4568617,0 -0.304613,0 -0.6091694,0 -0.9137249,0 z"
     id="path374"
     inkscape:connector-curvature="0"
     style="clip-rule:evenodd;fill:#5a5a5a;fill-rule:evenodd;stroke-width:0.06090547" /><path
     d="m 11.707782,18.676853 c 0,-0.02163 0,-0.04332 0,-0.06496 0.07612,0 0.152306,0 0.228431,0 0,0.02163 0,0.04332 0,0.06496 -0.07613,0 -0.152306,0 -0.228431,0 z"
     id="path376"
     inkscape:connector-curvature="0"
     style="clip-rule:evenodd;fill:#5a5a5a;fill-rule:evenodd;stroke-width:0.06090547" /><path
     d="m 11.936213,18.676853 c 0,-0.02163 0,-0.04332 0,-0.06496 0.01901,0 0.03809,0 0.05711,0 0.0079,0 0.05208,-0.0057 0.05711,0 0.0095,0.01085 -0.0076,0.05197 0,0.06496 -0.03809,0 -0.07612,0 -0.114215,0 z"
     id="path378"
     inkscape:connector-curvature="0"
     style="clip-rule:evenodd;fill:#5a5a5a;fill-rule:evenodd;stroke-width:0.06090547" /><path
     d="m 12.393075,18.676853 c 0.0076,-0.01299 -0.0095,-0.05411 0,-0.06496 0.0095,-0.01085 0.04569,0.0087 0.05711,0 0,0.02163 0,0.04332 0,0.06496 -0.01902,0 -0.03809,0 -0.05711,0 z"
     id="path380"
     inkscape:connector-curvature="0"
     style="clip-rule:evenodd;fill:#5a5a5a;fill-rule:evenodd;stroke-width:0.06090547" /><path
     d="m 12.450183,18.676853 c 0,-0.02163 0,-0.04332 0,-0.06496 0.01902,0 0.03809,0 0.05711,0 0,0.02163 0,0.04332 0,0.06496 -0.01901,0 -0.03809,0 -0.05711,0 z"
     id="path382"
     inkscape:connector-curvature="0"
     style="clip-rule:evenodd;fill:#5a5a5a;fill-rule:evenodd;stroke-width:0.06090547" /><path
     d="m 12.507291,18.676853 c 0,-0.02163 0,-0.04332 0,-0.06496 0.01901,0 0.03809,0 0.05711,0 0,0.02163 0,0.04332 0,0.06496 -0.01901,0 -0.03809,0 -0.05711,0 z"
     id="path384"
     inkscape:connector-curvature="0"
     style="clip-rule:evenodd;fill:#5a5a5a;fill-rule:evenodd;stroke-width:0.06090547" /><path
     d="m 14.84871,18.676853 c 0,-0.02163 0,-0.04332 0,-0.06496 0.01901,0 0.03809,0 0.05711,0 0,0.02163 0,0.04332 0,0.06496 -0.01901,0 -0.03809,0 -0.05711,0 z"
     id="path386"
     inkscape:connector-curvature="0"
     style="clip-rule:evenodd;fill:#5a5a5a;fill-rule:evenodd;stroke-width:0.06090547" /><path
     d="m 14.905818,18.676853 c 0,-0.02163 0,-0.04332 0,-0.06496 0.01142,0.0087 0.04757,-0.01085 0.05711,0 0.0095,0.01085 -0.0076,0.05197 0,0.06496 -0.01902,0 -0.03809,0 -0.05711,0 z"
     id="path388"
     inkscape:connector-curvature="0"
     style="clip-rule:evenodd;fill:#5a5a5a;fill-rule:evenodd;stroke-width:0.06090547" /><path
     d="m 23.243556,18.676853 c 0.0076,-0.01299 -0.0095,-0.05411 0,-0.06496 0.0095,-0.01085 0.04569,0.0087 0.05711,0 0,0.02163 0,0.04332 0,0.06496 -0.01901,0 -0.03809,0 -0.05711,0 z"
     id="path390"
     inkscape:connector-curvature="0"
     style="clip-rule:evenodd;fill:#5a5a5a;fill-rule:evenodd;stroke-width:0.06090547" /><path
     d="m 23.300663,18.676853 c 0,-0.02163 0,-0.04332 0,-0.06496 0.01902,0 0.03809,0 0.05711,0 0,0.02163 0,0.04332 0,0.06496 -0.01902,0 -0.03809,0 -0.05711,0 z"
     id="path392"
     inkscape:connector-curvature="0"
     style="clip-rule:evenodd;fill:#5a5a5a;fill-rule:evenodd;stroke-width:0.06090547" /><path
     d="m 12.678615,17.702517 c 0.01901,0 0.03809,0 0.05711,0 0.0076,0.01299 -0.0095,0.05411 0,0.06496 0.008,0.0091 0.05105,-0.01039 0.05711,0 0.0088,0.01493 -0.007,0.04865 0,0.06495 -0.01901,0 -0.03809,0 -0.05711,0 -0.0076,-0.01299 0.0095,-0.05411 0,-0.06495 -0.008,-0.0091 -0.05105,0.01039 -0.05711,0 -0.0089,-0.01494 0.007,-0.04865 0,-0.06496 z"
     id="path394"
     inkscape:connector-curvature="0"
     style="clip-rule:evenodd;fill:#5a5a5a;fill-rule:evenodd;stroke-width:0.06090547" /><path
     d="m 12.164645,15.883757 c 0.01901,0 0.03809,0 0.05711,0 0.0076,0.01299 -0.0095,0.05411 0,0.06495 0.008,0.0091 0.05105,-0.01039 0.05711,0 0.0088,0.01494 -0.007,0.04865 0,0.06496 -0.01901,0 -0.03809,0 -0.05711,0 -0.0076,-0.01299 0.0095,-0.05411 0,-0.06496 -0.0095,-0.01085 -0.04569,0.0087 -0.05711,0 0,-0.02163 0,-0.04332 0,-0.06495 z"
     id="path396"
     inkscape:connector-curvature="0"
     style="clip-rule:evenodd;fill:#5a5a5a;fill-rule:evenodd;stroke-width:0.06090547" /><path
     d="m 7.8244522,17.832429 c 0,-0.02164 0,-0.04332 0,-0.06495 0.011422,-0.0087 0.047571,0.01085 0.057108,0 0.00799,-0.0091 -0.00913,-0.05807 0,-0.06496 0.013194,-0.01 0.042775,0.008 0.057109,0 0,0.02164 0,0.04332 0,0.06496 -0.011423,0.0087 -0.047574,-0.01085 -0.057109,0 -0.00954,0.01085 0.00763,0.05196 0,0.06495 -0.019075,0 -0.038091,0 -0.057108,0 z"
     id="path398"
     inkscape:connector-curvature="0"
     style="clip-rule:evenodd;fill:#5a5a5a;fill-rule:evenodd;stroke-width:0.06090547" /><path
     d="m 19.588657,1.0016825 c -0.0095,-0.0111076 0.0076,-0.0533938 0,-0.0667742 V 0.73458444 c -0.01142,-0.008899 -0.04757,0.0111079 -0.05711,0 -0.0095,-0.0111073 0.0076,-0.0533935 0,-0.0667745 v -0.133549 h -0.05711 v -0.0667745 c -0.01142,-0.008899 -0.04757,0.0111075 -0.05711,0 -0.0095,-0.0111073 0.0076,-0.0533937 0,-0.0667745 -0.01142,-0.008899 -0.04757,0.0111075 -0.05711,0 -0.0095,-0.0111075 0.0076,-0.0533936 0,-0.0667745 -0.0076,-0.0133808 0.0095,-0.0556671 0,-0.0667745 -0.0095,-0.0111075 -0.04569,0.008899 -0.05711,0 h -0.05711 v -0.0668394 c -0.01142,-0.008899 -0.04757,0.0111075 -0.05711,0 -0.0095,-0.0111075 0.0076,-0.0533936 0,-0.0667745 h -0.05711 c -0.01142,-0.008899 -0.04757,0.0111075 -0.05711,0 -0.0095,-0.0111074 0.0076,-0.05339363 0,-0.0667745 H 18.90335 c -0.01142,-0.0088989 -0.04757,0.01110745 -0.05711,0 C 18.836718,0.05566707 18.853851,0.01338089 18.846255,0 H 1.8281345 c -6.865e-4,0.00110425 -6.865e-4,0.00285805 -0.00102,0.00435203 -8.025e-4,0 -0.00154,-1.299e-4 -0.0024,-1.299e-4 L 1.8281345,0 c -0.4419,0 -0.799509,0.44799973 -0.799509,1.0016825 l 0.00172,-0.002077 c 0,3.9056e-4 1.142e-4,7.798e-4 1.713e-4,0.001168 -5.71e-5,3.251e-4 -1.142e-4,5.847e-4 -1.142e-4,9.171e-4 h -0.00172 V 12.354451 H 2.2279462 V 1.4023944 H 18.446558 v 5.4092537 h 1.199264 V 1.0016825 c -0.01148,-0.008899 -0.04763,0.011172 -0.05716,0 z"
     id="path400"
     inkscape:connector-curvature="0"
     style="clip-rule:evenodd;fill:#5a5a5a;fill-rule:evenodd;stroke-width:0.06090547" /><path
     d="m 3.4271527,18.257759 v -2.72996 c 9.755e-4,-6.5e-5 0.00195,-2.61e-4 0.00296,-3.93e-4 v 0.0034 H 14.563171 V 14.093252 H 3.430065 v 0.0019 c -0.00105,0 -0.00195,5.23e-4 -0.00296,5.89e-4 v -1.524736 c 0,-0.215392 -0.1532772,-0.389734 -0.3426467,-0.389734 H 0.31352176 c -2.2844e-4,0 -3.426e-4,-1.3e-4 -5.7111e-4,-1.3e-4 -2.2843e-4,0 -3.4259e-4,1.3e-4 -5.711e-4,1.3e-4 h -0.0261553 l -0.0548806,0.06242 c -0.005825,10e-4 -0.011707,0.0017 -0.0164471,0.0043 -0.015362,-0.0017 -0.0359779,-0.0097 -0.042888,-0.0018 -0.009537,0.01085 0.007595,0.05196 0,0.06496 -0.0114215,0.0087 -0.0475708,-0.01085 -0.0571078,0 -0.006225,0.0071 -0.001256,0.02702 9.1341e-4,0.04372 -0.002913,0.0067 -0.004797,0.01377 -0.005711,0.02124 H 0.05779308 v 0.06496 l -0.0571077882,0.06496 v 5.75235 c -9.1372335e-4,0.0071 -9.1372335e-4,0.01397 0,0.02105 v 0.0077 c 2.8554224e-4,1.94e-4 7.995082e-4,2.62e-4 0.001199268,3.93e-4 9.1372e-4,0.0041 0.00319803,0.0072 0.00462573,0.01091 1.1421e-4,0.01124 0.00319805,0.02189 0.00770955,0.03163 0.02044459,0.196621 0.18936943,0.350176 0.39655647,0.350176 v -0.0034 H 3.0274552 c 8.575e-4,-0.0014 5.721e-4,-0.0042 8.025e-4,-0.0061 0.00275,-6.4e-5 0.00474,-0.0014 0.0072,-0.0017 l -0.00805,0.0079 c 0.019417,0 0.038376,-0.0018 0.057108,-0.0044 v 0.0044 l 0.00445,-0.0051 m 0.338188,-0.377173 M 0.97151771,12.765899 H 2.3992124 V 12.89581 H 0.97151771 Z m 0.97083239,5.131504 v 0.324778 c -0.011421,0.0087 -0.047571,-0.01085 -0.057108,0 -0.00799,0.0091 0.00914,0.05807 0,0.06496 -0.013192,0.01 -0.042773,-0.008 -0.057108,0 H 1.5425956 c -0.00759,-0.01299 0.00954,-0.05411 0,-0.06496 -0.00799,-0.0091 -0.051055,0.01039 -0.057108,0 -0.0088,-0.01494 0.00703,-0.04865 0,-0.06496 v -0.259823 c 0.00759,-0.01299 -0.00954,-0.05411 0,-0.06496 0.00394,-0.0045 0.012507,-0.0037 0.021929,-0.0019 l -0.021929,0.0019 h 0.032266 c 0.010108,0.002 0.019874,0.0037 0.024842,0 0.00759,-0.01299 -0.00954,-0.05411 0,-0.06496 0.00954,-0.01085 0.045686,0.0087 0.057108,0 h 0.2284311 c 0.011422,0.0087 0.047571,-0.01085 0.057108,0 0.00954,0.01085 -0.00759,0.05196 0,0.06496 0.011422,0.0087 0.047571,-0.01085 0.057108,0 0.00954,0.01085 -0.00765,0.05196 3e-7,0.06496 z M 3.1416136,17.507668 H 0.28622423 V 13.350501 H 3.1416136 Z"
     id="path402"
     inkscape:connector-curvature="0"
     style="clip-rule:evenodd;fill:#5a5a5a;fill-rule:evenodd;stroke-width:0.06090547" /><path
     d="m 3.0845059,18.672436 c 0.1893694,0 0.3426468,-0.185449 0.3426468,-0.414677"
     id="path404"
     inkscape:connector-curvature="0"
     style="clip-rule:evenodd;fill:#5a5a5a;fill-rule:evenodd;stroke-width:0.06090547" /><polyline
     points="214.5,244.25 226.785,282.806 225.762,284.835   223.714,285.85 221.613,287.371 219.619,287.879 135.672,287.879 133.385,284.354 133.624,281.791 133.624,280.776 145.909,244.25   213.988,244.251 "
     id="polyline406"
     transform="scale(0.05710779,0.06495573)"
     style="clip-rule:evenodd;fill:#5a5a5a;fill-rule:evenodd" /><path
     d="m 18.842829,0.00207858 0.0053,0.00669044 c -0.0024,-3.2477e-4 -0.004,-0.00149396 -0.0065,-0.00149396 -0.06499,0 -0.07247,0.10074635 -0.02285,0.12458511 0.0084,0.006756 0.01833,0.011757 0.03141,0.011757 0.03626,0 0.05443,-0.0314385 0.05505,-0.06346175 l 0.664106,0.83214796 c -0.03524,0.002924 -0.05191,0.0362453 -0.05003,0.0687884 -0.0012,0.019032 0.0047,0.0379342 0.01616,0.0515102 0.0085,0.017733 0.02364,0.031243 0.04688,0.031243 0.03735,0 0.05562,-0.033387 0.05505,-0.0663199 l 0.005,0.006169 C 19.642338,0.45014167 19.284729,0.002077 18.842829,0.00207672 Z"
     id="path408"
     inkscape:connector-curvature="0"
     style="clip-rule:evenodd;fill:#5a5a5a;fill-rule:evenodd;stroke-width:0.06090547" /><xhtml:style
     charset="utf-8"
     type="text/css"
     class="firebugResetStyles">/* See license.txt for terms of usage */
/** reset styling **/
.firebugResetStyles {
    z-index: 2147483646 !important;
    top: 0 !important;
    left: 0 !important;
    display: block !important;
    border: 0 none !important;
    margin: 0 !important;
    padding: 0 !important;
    outline: 0 !important;
    min-width: 0 !important;
    max-width: none !important;
    min-height: 0 !important;
    max-height: none !important;
    position: fixed !important;
    transform: rotate(0deg) !important;
    transform-origin: 50% 50% !important;
    border-radius: 0 !important;
    box-shadow: none !important;
    background: transparent none !important;
    pointer-events: none !important;
    white-space: normal !important;
}
style.firebugResetStyles {
    display: none !important;
}

.firebugBlockBackgroundColor {
    background-color: transparent !important;
}

.firebugResetStyles:before, .firebugResetStyles:after {
    content: &quot;&quot; !important;
}
/**actual styling to be modified by firebug theme**/
.firebugCanvas {
    display: none !important;
}

/* * * * * * * * * * * * * * * * * * * * * * * * * * * * * * * * * * * * * * * * * * * * * * * * */
.firebugLayoutBox {
    width: auto !important;
    position: static !important;
}

.firebugLayoutBoxOffset {
    opacity: 0.8 !important;
    position: fixed !important;
}

.firebugLayoutLine {
    opacity: 0.4 !important;
    background-color: #000000 !important;
}

.firebugLayoutLineLeft, .firebugLayoutLineRight {
    width: 1px !important;
    height: 100% !important;
}

.firebugLayoutLineTop, .firebugLayoutLineBottom {
    width: 100% !important;
    height: 1px !important;
}

.firebugLayoutLineTop {
    margin-top: -1px !important;
    border-top: 1px solid #999999 !important;
}

.firebugLayoutLineRight {
    border-right: 1px solid #999999 !important;
}

.firebugLayoutLineBottom {
    border-bottom: 1px solid #999999 !important;
}

.firebugLayoutLineLeft {
    margin-left: -1px !important;
    border-left: 1px solid #999999 !important;
}

/* * * * * * * * * * * * * * * * * * * * * * * * * * * * * * * * * * * * * * * * * * * * * * * * */
.firebugLayoutBoxParent {
    border-top: 0 none !important;
    border-right: 1px dashed #E00 !important;
    border-bottom: 1px dashed #E00 !important;
    border-left: 0 none !important;
    position: fixed !important;
    width: auto !important;
}

.firebugRuler{
    position: absolute !important;
}

.firebugRulerH {
    top: -15px !important;
    left: 0 !important;
    width: 100% !important;
    height: 14px !important;
    background: url(&quot;data:image/png,%89PNG%0D%0A%1A%0A%00%00%00%0DIHDR%00%00%13%88%00%00%00%0E%08%02%00%00%00L%25a%0A%00%00%00%04gAMA%00%00%D6%D8%D4OX2%00%00%00%19tEXtSoftware%00Adobe%20ImageReadyq%C9e%3C%00%00%04%F8IDATx%DA%EC%DD%D1n%E2%3A%00E%D1%80%F8%FF%EF%E2%AF2%95%D0D4%0E%C1%14%B0%8Fa-%E9%3E%CC%9C%87n%B9%81%A6W0%1C%A6i%9A%E7y%0As8%1CT%A9R%A5J%95*U%AAT%A9R%A5J%95*U%AAT%A9R%A5J%95*U%AAT%A9R%A5J%95*U%AAT%A9R%A5J%95*U%AAT%A9R%A5J%95*U%AAT%A9R%A5J%95*U%AATE9%FE%FCw%3E%9F%AF%2B%2F%BA%97%FDT%1D~K(%5C%9D%D5%EA%1B%5C%86%B5%A9%BDU%B5y%80%ED%AB*%03%FAV9%AB%E1%CEj%E7%82%EF%FB%18%BC%AEJ8%AB%FA'%D2%BEU9%D7U%ECc0%E1%A2r%5DynwVi%CFW%7F%BB%17%7Dy%EACU%CD%0E%F0%FA%3BX%FEbV%FEM%9B%2B%AD%BE%AA%E5%95v%AB%AA%E3E5%DCu%15rV9%07%B5%7F%B5w%FCm%BA%BE%AA%FBY%3D%14%F0%EE%C7%60%0EU%AAT%A9R%A5J%95*U%AAT%A9R%A5J%95*U%AAT%A9R%A5J%95*U%AAT%A9R%A5J%95*U%AAT%A9R%A5JU%88%D3%F5%1F%AE%DF%3B%1B%F2%3E%DAUCNa%F92%D02%AC%7Dm%F9%3A%D4%F2%8B6%AE*%BF%5C%C2Ym~9g5%D0Y%95%17%7C%C8c%B0%7C%18%26%9CU%CD%13i%F7%AA%90%B3Z%7D%95%B4%C7%60%E6E%B5%BC%05%B4%FBY%95U%9E%DB%FD%1C%FC%E0%9F%83%7F%BE%17%7DkjMU%E3%03%AC%7CWj%DF%83%9An%BCG%AE%F1%95%96yQ%0Dq%5Dy%00%3Et%B5'%FC6%5DS%95pV%95%01%81%FF'%07%00%00%00%00%00%00%00%00%00%F8x%C7%F0%BE%9COp%5D%C9%7C%AD%E7%E6%EBV%FB%1E%E0(%07%E5%AC%C6%3A%ABi%9C%8F%C6%0E9%AB%C0'%D2%8E%9F%F99%D0E%B5%99%14%F5%0D%CD%7F%24%C6%DEH%B8%E9rV%DFs%DB%D0%F7%00k%FE%1D%84%84%83J%B8%E3%BA%FB%EF%20%84%1C%D7%AD%B0%8E%D7U%C8Y%05%1E%D4t%EF%AD%95Q%BF8w%BF%E9%0A%BF%EB%03%00%00%00%00%00%00%00%00%00%B8vJ%8E%BB%F5%B1u%8Cx%80%E1o%5E%CA9%AB%CB%CB%8E%03%DF%1D%B7T%25%9C%D5(%EFJM8%AB%CC'%D2%B2*%A4s%E7c6%FB%3E%FA%A2%1E%80~%0E%3E%DA%10x%5D%95Uig%15u%15%ED%7C%14%B6%87%A1%3B%FCo8%A8%D8o%D3%ADO%01%EDx%83%1A~%1B%9FpP%A3%DC%C6'%9C%95gK%00%00%00%00%00%00%00%00%00%20%D9%C9%11%D0%C0%40%AF%3F%EE%EE%92%94%D6%16X%B5%BCMH%15%2F%BF%D4%A7%C87%F1%8E%F2%81%AE%AAvzr%DA2%ABV%17%7C%E63%83%E7I%DC%C6%0Bs%1B%EF6%1E%00%00%00%00%00%00%00%00%00%80cr%9CW%FF%7F%C6%01%0E%F1%CE%A5%84%B3%CA%BC%E0%CB%AA%84%CE%F9%BF)%EC%13%08WU%AE%AB%B1%AE%2BO%EC%8E%CBYe%FE%8CN%ABr%5Dy%60~%CFA%0D%F4%AE%D4%BE%C75%CA%EDVB%EA(%B7%F1%09g%E5%D9%12%00%00%00%00%00%00%00%00%00H%F6%EB%13S%E7y%5E%5E%FB%98%F0%22%D1%B2'%A7%F0%92%B1%BC%24z3%AC%7Dm%60%D5%92%B4%7CEUO%5E%F0%AA*%3BU%B9%AE%3E%A0j%94%07%A0%C7%A0%AB%FD%B5%3F%A0%F7%03T%3Dy%D7%F7%D6%D4%C0%AAU%D2%E6%DFt%3F%A8%CC%AA%F2%86%B9%D7%F5%1F%18%E6%01%F8%CC%D5%9E%F0%F3z%88%AA%90%EF%20%00%00%00%00%00%00%00%00%00%C0%A6%D3%EA%CFi%AFb%2C%7BB%0A%2B%C3%1A%D7%06V%D5%07%A8r%5D%3D%D9%A6%CAu%F5%25%CF%A2%99%97zNX%60%95%AB%5DUZ%D5%FBR%03%AB%1C%D4k%9F%3F%BB%5C%FF%81a%AE%AB'%7F%F3%EA%FE%F3z%94%AA%D8%DF%5B%01%00%00%00%00%00%00%00%00%00%8E%FB%F3%F2%B1%1B%8DWU%AAT%A9R%A5J%95*U%AAT%A9R%A5J%95*U%AAT%A9R%A5J%95*U%AAT%A9R%A5J%95*U%AAT%A9R%A5J%95*U%AAT%A9R%A5J%95*U%AAT%A9R%A5J%95*UiU%C7%BBe%E7%F3%B9%CB%AAJ%95*U%AAT%A9R%A5J%95*U%AAT%A9R%A5J%95*U%AAT%A9R%A5J%95*U%AAT%A9R%A5J%95*U%AAT%A9R%A5J%95*U%AAT%A9R%A5J%95*U%AAT%A9R%A5*%AAj%FD%C6%D4%5Eo%90%B5Z%ADV%AB%D5j%B5Z%ADV%AB%D5j%B5Z%ADV%AB%D5j%B5Z%ADV%AB%D5j%B5Z%ADV%AB%D5j%B5Z%ADV%AB%D5j%B5Z%ADV%AB%D5j%B5%86%AF%1B%9F%98%DA%EBm%BBV%AB%D5j%B5Z%ADV%AB%D5j%B5Z%ADV%AB%D5j%B5Z%ADV%AB%D5j%B5Z%ADV%AB%D5j%B5Z%ADV%AB%D5j%B5Z%ADV%AB%D5j%B5Z%AD%D6%E4%F58%01%00%00%00%00%00%00%00%00%00%00%00%00%00%40%85%7F%02%0C%008%C2%D0H%16j%8FX%00%00%00%00IEND%AEB%60%82&quot;) repeat-x !important;
    border-top: 1px solid #BBBBBB !important;
    border-right: 1px dashed #BBBBBB !important;
    border-bottom: 1px solid #000000 !important;
}

.firebugRulerV {
    top: 0 !important;
    left: -15px !important;
    width: 14px !important;
    height: 100% !important;
    background: url(&quot;data:image/png,%89PNG%0D%0A%1A%0A%00%00%00%0DIHDR%00%00%00%0E%00%00%13%88%08%02%00%00%00%0E%F5%CB%10%00%00%00%04gAMA%00%00%D6%D8%D4OX2%00%00%00%19tEXtSoftware%00Adobe%20ImageReadyq%C9e%3C%00%00%06~IDATx%DA%EC%DD%D1v%A20%14%40Qt%F1%FF%FF%E4%97%D9%07%3BT%19%92%DC%40(%90%EEy%9A5%CB%B6%E8%F6%9Ac%A4%CC0%84%FF%DC%9E%CF%E7%E3%F1%88%DE4%F8%5D%C7%9F%2F%BA%DD%5E%7FI%7D%F18%DDn%BA%C5%FB%DF%97%BFk%F2%10%FF%FD%B4%F2M%A7%FB%FD%FD%B3%22%07p%8F%3F%AE%E3%F4S%8A%8F%40%EEq%9D%BE8D%F0%0EY%A1Uq%B7%EA%1F%81%88V%E8X%3F%B4%CEy%B7h%D1%A2E%EBohU%FC%D9%AF2fO%8BBeD%BE%F7X%0C%97%A4%D6b7%2Ck%A5%12%E3%9B%60v%B7r%C7%1AI%8C%BD%2B%23r%00c0%B2v%9B%AD%CA%26%0C%1Ek%05A%FD%93%D0%2B%A1u%8B%16-%95q%5Ce%DCSO%8E%E4M%23%8B%F7%C2%FE%40%BB%BD%8C%FC%8A%B5V%EBu%40%F9%3B%A72%FA%AE%8C%D4%01%CC%B5%DA%13%9CB%AB%E2I%18%24%B0n%A9%0CZ*Ce%9C%A22%8E%D8NJ%1E%EB%FF%8F%AE%CAP%19*%C3%BAEKe%AC%D1%AAX%8C*%DEH%8F%C5W%A1e%AD%D4%B7%5C%5B%19%C5%DB%0D%EF%9F%19%1D%7B%5E%86%BD%0C%95%A12%AC%5B*%83%96%CAP%19%F62T%86%CAP%19*%83%96%CA%B8Xe%BC%FE)T%19%A1%17xg%7F%DA%CBP%19*%C3%BA%A52T%86%CAP%19%F62T%86%CA%B0n%A9%0CZ%1DV%C6%3D%F3%FCH%DE%B4%B8~%7F%5CZc%F1%D6%1F%AF%84%F9%0F6%E6%EBVt9%0E~%BEr%AF%23%B0%97%A12T%86%CAP%19%B4T%86%CA%B8Re%D8%CBP%19*%C3%BA%A52huX%19%AE%CA%E5%BC%0C%7B%19*CeX%B7h%A9%0C%95%E1%BC%0C%7B%19*CeX%B7T%06%AD%CB%5E%95%2B%BF.%8F%C5%97%D5%E4%7B%EE%82%D6%FB%CF-%9C%FD%B9%CF%3By%7B%19%F62T%86%CA%B0n%D1R%19*%A3%D3%CA%B0%97%A12T%86uKe%D0%EA%B02*%3F1%99%5DB%2B%A4%B5%F8%3A%7C%BA%2B%8Co%7D%5C%EDe%A8%0C%95a%DDR%19%B4T%C66%82fA%B2%ED%DA%9FC%FC%17GZ%06%C9%E1%B3%E5%2C%1A%9FoiB%EB%96%CA%A0%D5qe4%7B%7D%FD%85%F7%5B%ED_%E0s%07%F0k%951%ECr%0D%B5C%D7-g%D1%A8%0C%EB%96%CA%A0%A52T%C6)*%C3%5E%86%CAP%19%D6-%95A%EB*%95q%F8%BB%E3%F9%AB%F6%E21%ACZ%B7%22%B7%9B%3F%02%85%CB%A2%5B%B7%BA%5E%B7%9C%97%E1%BC%0C%EB%16-%95%A12z%AC%0C%BFc%A22T%86uKe%D0%EA%B02V%DD%AD%8A%2B%8CWhe%5E%AF%CF%F5%3B%26%CE%CBh%5C%19%CE%CB%B0%F3%A4%095%A1%CAP%19*Ce%A8%0C%3BO*Ce%A8%0C%95%A12%3A%AD%8C%0A%82%7B%F0v%1F%2FD%A9%5B%9F%EE%EA%26%AF%03%CA%DF9%7B%19*Ce%A8%0C%95%A12T%86%CA%B8Ze%D8%CBP%19*Ce%A8%0C%95%D1ae%EC%F7%89I%E1%B4%D7M%D7P%8BjU%5C%BB%3E%F2%20%D8%CBP%19*Ce%A8%0C%95%A12T%C6%D5*%C3%5E%86%CAP%19*Ce%B4O%07%7B%F0W%7Bw%1C%7C%1A%8C%B3%3B%D1%EE%AA%5C%D6-%EBV%83%80%5E%D0%CA%10%5CU%2BD%E07YU%86%CAP%19*%E3%9A%95%91%D9%A0%C8%AD%5B%EDv%9E%82%FFKOee%E4%8FUe%A8%0C%95%A12T%C6%1F%A9%8C%C8%3D%5B%A5%15%FD%14%22r%E7B%9F%17l%F8%BF%ED%EAf%2B%7F%CF%ECe%D8%CBP%19*Ce%A8%0C%95%E1%93~%7B%19%F62T%86%CAP%19*Ce%A8%0C%E7%13%DA%CBP%19*Ce%A8%0CZf%8B%16-Z%B4h%D1R%19f%8B%16-Z%B4h%D1R%19%B4%CC%16-Z%B4h%D1R%19%B4%CC%16-Z%B4h%D1%A2%A52%CC%16-Z%B4h%D1%A2%A52h%99-Z%B4h%D1%A2%A52h%99-Z%B4h%D1%A2EKe%98-Z%B4h%D1%A2EKe%D02%5B%B4h%D1%A2EKe%D02%5B%B4h%D1%A2E%8B%96%CA0%5B%B4h%D1%A2E%8B%96%CA%A0e%B6h%D1%A2E%8B%96%CA%A0e%B6h%D1%A2E%8B%16-%95a%B6h%D1%A2E%8B%16-%95A%CBl%D1%A2E%8B%16-%95A%CBl%D1%A2E%8B%16-Z*%C3l%D1%A2E%8B%16-Z*%83%96%D9%A2E%8B%16-Z*%83%96%D9%A2E%8B%16-Z%B4T%86%D9%A2E%8B%16-Z%B4T%06-%B3E%8B%16-Z%B4T%06-%B3E%8B%16-Z%B4h%A9%0C%B3E%8B%16-Z%B4h%A9%0CZf%8B%16-Z%B4h%A9%0CZf%8B%16-Z%B4h%D1R%19f%8B%16-Z%B4h%D1R%19%B4%CC%16-Z%B4h%D1R%19%B4%CC%16-Z%B4h%D1%A2%A52%CC%16-Z%B4h%D1%A2%A52h%99-Z%B4h%D1%A2%A52h%99-Z%B4h%D1%A2EKe%98-Z%B4h%D1%A2EKe%D02%5B%B4h%D1%A2EKe%D02%5B%B4h%D1%A2E%8B%96%CA0%5B%B4h%D1%A2E%8B%96%CA%A0e%B6h%D1%A2E%8B%96%CA%A0e%B6h%D1%A2E%8B%16-%95a%B6h%D1%A2E%8B%16-%95A%CBl%D1%A2E%8B%16-%95A%CBl%D1%A2E%8B%16-Z*%C3l%D1%A2E%8B%16-Z*%83%96%D9%A2E%8B%16-Z*%83%96%D9%A2E%8B%16-Z%B4T%86%D9%A2E%8B%16-Z%B4T%06-%B3E%8B%16-Z%B4T%06-%B3E%8B%16-Z%B4h%A9%0C%B3E%8B%16-Z%B4h%A9%0CZf%8B%16-Z%B4h%A9%0CZf%8B%16-Z%B4h%D1R%19f%8B%16-Z%B4h%D1R%19%B4%CC%16-Z%B4h%D1R%19%B4%CC%16-Z%B4h%D1%A2%A52%CC%16-Z%B4h%D1%A2%A52h%99-Z%B4h%D1%A2%A52h%99-Z%B4h%D1%A2EKe%98-Z%B4h%D1%A2EKe%D02%5B%B4h%D1%A2EKe%D02%5B%B4h%D1%A2E%8B%96%CA0%5B%B4h%D1%A2E%8B%96%CA%A0e%B6h%D1%A2E%8B%96%CA%A0e%B6h%D1%A2E%8B%16-%95a%B6h%D1%A2E%8B%16-%95A%CBl%D1%A2E%8B%16-%95A%CBl%D1%A2E%8B%16-Z*%C3l%D1%A2E%8B%16-Z*%83%96%D9%A2E%8B%16-Z*%83%96%D9%A2E%8B%16-Z%B4T%86%D9%A2E%8B%16-Z%B4T%06-%B3E%8B%16-Z%B4%AE%A4%F5%25%C0%00%DE%BF%5C'%0F%DA%B8q%00%00%00%00IEND%AEB%60%82&quot;) repeat-y !important;
    border-left: 1px solid #BBBBBB !important;
    border-right: 1px solid #000000 !important;
    border-bottom: 1px dashed #BBBBBB !important;
}

.overflowRulerX &gt; .firebugRulerV {
    left: 0 !important;
}

.overflowRulerY &gt; .firebugRulerH {
    top: 0 !important;
}

/* * * * * * * * * * * * * * * * * * * * * * * * * * * * * * * * * * * * * * * * * * * * * * * * */
.fbProxyElement {
    position: fixed !important;
    pointer-events: auto !important;
}
</xhtml:style><path
     style="fill:none;fill-opacity:1;stroke:#000000;stroke-opacity:1"
     id="path420"
     ry="16.896555"
     rx="17.770515"
     cy="10.498279"
     cx="11.601633" /></svg>